<svg width="119" height="48" viewBox="0 0 119 48" fill="none" xmlns="http://www.w3.org/2000/svg">
<path d="M96.3438 33.6563L116.656 13.3438M96.3438 13.3438L116.656 33.6563" stroke="white" stroke-width="2.11" stroke-linecap="round" stroke-linejoin="round"/>
<path d="M2.272 18.688C2.464 18.496 2.704 18.4 2.96 18.4H14.848C14.96 18.4 15.04 18.48 15.04 18.592V21.088C15.04 21.2 14.96 21.28 14.848 21.28H14.16C14.112 21.28 14.064 21.264 14.016 21.216L13.184 20.384C13.136 20.336 13.088 20.32 13.04 20.32H1.792C1.68 20.32 1.6 20.4 1.6 20.512V21.2C1.6 21.248 1.616 21.296 1.664 21.344L2.496 22.176C2.544 22.224 2.56 22.272 2.56 22.32V25.888C2.56 26 2.64 26.08 2.752 26.08H13.04C13.088 26.08 13.136 26.064 13.184 26.016L14.016 25.184C14.064 25.136 14.112 25.12 14.16 25.12H14.848C14.96 25.12 15.04 25.2 15.04 25.312V27.808C15.04 27.92 14.96 28 14.848 28H2.96C2.704 28 2.464 27.904 2.272 27.712L0.928 26.368C0.736 26.176 0.64 25.936 0.64 25.68V20.72C0.64 20.464 0.736 20.224 0.928 20.032L2.272 18.688ZM18.6475 28C18.3915 28 18.1515 27.904 17.9595 27.712L16.6155 26.368C16.4235 26.176 16.3275 25.936 16.3275 25.68V18.592C16.3275 18.48 16.4075 18.4 16.5195 18.4H18.0555C18.1675 18.4 18.2475 18.48 18.2475 18.592V25.888C18.2475 26 18.3275 26.08 18.4395 26.08H28.7275C28.7755 26.08 28.8235 26.064 28.8715 26.016L29.7035 25.184C29.7515 25.136 29.7995 25.12 29.8475 25.12H30.5355C30.6475 25.12 30.7275 25.2 30.7275 25.312V27.808C30.7275 27.92 30.6475 28 30.5355 28H18.6475ZM44.303 26.08C44.415 26.08 44.495 26 44.495 25.888V20.512C44.495 20.4 44.415 20.32 44.303 20.32H34.127C34.031 20.32 33.935 20.4 33.935 20.512V25.888C33.935 26 34.031 26.08 34.127 26.08H44.303ZM32.015 25.68V20.72C32.015 20.464 32.127 20.224 32.303 20.032L33.663 18.688C33.839 18.496 34.079 18.4 34.335 18.4H44.095C44.351 18.4 44.607 18.496 44.783 18.688L46.143 20.032C46.319 20.224 46.415 20.464 46.415 20.72V25.68C46.415 25.936 46.319 26.176 46.143 26.368L44.783 27.712C44.607 27.904 44.351 28 44.095 28H34.335C34.079 28 33.839 27.904 33.663 27.712L32.303 26.368C32.127 26.176 32.015 25.936 32.015 25.68ZM61.8145 23.872C62.0065 24.064 62.1025 24.304 62.1025 24.56V25.68C62.1025 25.936 62.0065 26.176 61.8145 26.368L60.4705 27.712C60.2785 27.904 60.0385 28 59.7825 28H48.3745C48.2625 28 48.1825 27.92 48.1825 27.808V25.312C48.1825 25.2 48.2625 25.12 48.3745 25.12H49.0625C49.1105 25.12 49.1585 25.136 49.2065 25.184L50.0385 26.016C50.0865 26.064 50.1345 26.08 50.1825 26.08H59.9905C60.1025 26.08 60.1825 26 60.1825 25.888V24.352C60.1825 24.24 60.1025 24.16 59.9905 24.16H50.0225C49.7665 24.16 49.5265 24.064 49.3345 23.872L47.9905 22.528C47.7985 22.336 47.7025 22.096 47.7025 21.84V20.72C47.7025 20.464 47.7985 20.224 47.9905 20.032L49.3345 18.688C49.5265 18.496 49.7665 18.4 50.0225 18.4H61.4305C61.5425 18.4 61.6225 18.48 61.6225 18.592V21.088C61.6225 21.2 61.5425 21.28 61.4305 21.28H60.7425C60.6945 21.28 60.6465 21.264 60.5985 21.216L59.7665 20.384C59.7185 20.336 59.6705 20.32 59.6225 20.32H49.8145C49.7025 20.32 49.6225 20.4 49.6225 20.512V22.048C49.6225 22.16 49.7025 22.24 49.8145 22.24H59.7825C60.0385 22.24 60.2785 22.336 60.4705 22.528L61.8145 23.872ZM77.79 20.128C77.79 20.24 77.71 20.32 77.598 20.32H64.542C64.43 20.32 64.35 20.4 64.35 20.512V21.2C64.35 21.248 64.366 21.296 64.414 21.344L65.246 22.176C65.294 22.224 65.342 22.24 65.39 22.24H76.638C76.75 22.24 76.83 22.32 76.83 22.432V23.968C76.83 24.08 76.75 24.16 76.638 24.16H64.542C64.43 24.16 64.35 24.24 64.35 24.352V25.04C64.35 25.088 64.366 25.136 64.414 25.184L65.246 26.016C65.294 26.064 65.342 26.08 65.39 26.08H77.598C77.71 26.08 77.79 26.16 77.79 26.272V27.808C77.79 27.92 77.71 28 77.598 28H63.582C63.47 28 63.39 27.92 63.39 27.808V18.592C63.39 18.48 63.47 18.4 63.582 18.4H77.598C77.71 18.4 77.79 18.48 77.79 18.592V20.128Z" fill="white"/>
</svg>
