<svg width="1410" height="600" viewBox="0 0 1410 600" fill="none" xmlns="http://www.w3.org/2000/svg">
<g opacity="0.5" clip-path="url(#clip0_4413_2807)">
<path d="M899.983 598.772C734.985 598.772 601.228 465.015 601.228 300.017C601.228 135.019 734.985 1.26172 899.983 1.26172C1064.98 1.26172 1198.74 135.019 1198.74 300.017C1198.74 465.015 1064.98 598.772 899.983 598.772Z" stroke="url(#paint0_linear_4413_2807)" stroke-width="0.75" stroke-miterlimit="10"/>
<path d="M905.661 580.018C747.886 580.018 619.984 452.116 619.984 294.341C619.984 136.567 747.886 8.66504 905.661 8.66504C1063.44 8.66504 1191.34 136.567 1191.34 294.341C1191.34 452.116 1063.44 580.018 905.661 580.018Z" stroke="url(#paint1_linear_4413_2807)" stroke-width="0.72" stroke-miterlimit="10"/>
<path d="M911.336 561.295C760.766 561.295 638.705 439.234 638.705 288.664C638.705 138.094 760.766 16.0332 911.336 16.0332C1061.91 16.0332 1183.97 138.094 1183.97 288.664C1183.97 439.234 1061.91 561.295 911.336 561.295Z" stroke="url(#paint2_linear_4413_2807)" stroke-width="0.69" stroke-miterlimit="10"/>
<path d="M916.979 542.573C773.633 542.573 657.428 426.368 657.428 283.022C657.428 139.675 773.633 23.4697 916.979 23.4697C1060.33 23.4697 1176.53 139.675 1176.53 283.022C1176.53 426.368 1060.33 542.573 916.979 542.573Z" stroke="url(#paint3_linear_4413_2807)" stroke-width="0.66" stroke-miterlimit="10"/>
<path d="M922.656 523.817C786.533 523.817 676.183 413.467 676.183 277.344C676.183 141.221 786.533 30.8711 922.656 30.8711C1058.78 30.8711 1169.13 141.221 1169.13 277.344C1169.13 413.467 1058.78 523.817 922.656 523.817Z" stroke="url(#paint4_linear_4413_2807)" stroke-width="0.62" stroke-miterlimit="10"/>
<path d="M928.332 505.063C799.432 505.063 694.938 400.569 694.938 271.669C694.938 142.769 799.432 38.2744 928.332 38.2744C1057.23 38.2744 1161.73 142.769 1161.73 271.669C1161.73 400.569 1057.23 505.063 928.332 505.063Z" stroke="url(#paint5_linear_4413_2807)" stroke-width="0.59" stroke-miterlimit="10"/>
<path d="M933.976 486.374C812.281 486.374 713.627 387.72 713.627 266.025C713.627 144.33 812.281 45.6768 933.976 45.6768C1055.67 45.6768 1154.32 144.33 1154.32 266.025C1154.32 387.72 1055.67 486.374 933.976 486.374Z" stroke="url(#paint6_linear_4413_2807)" stroke-width="0.56" stroke-miterlimit="10"/>
<path d="M939.652 467.619C825.18 467.619 732.382 374.821 732.382 260.349C732.382 145.877 825.18 53.0791 939.652 53.0791C1054.12 53.0791 1146.92 145.877 1146.92 260.349C1146.92 374.821 1054.12 467.619 939.652 467.619Z" stroke="url(#paint7_linear_4413_2807)" stroke-width="0.53" stroke-miterlimit="10"/>
<path d="M945.294 448.897C838.046 448.897 751.104 361.955 751.104 254.707C751.104 147.458 838.046 60.5156 945.294 60.5156C1052.54 60.5156 1139.49 147.458 1139.49 254.707C1139.49 361.955 1052.54 448.897 945.294 448.897Z" stroke="url(#paint8_linear_4413_2807)" stroke-width="0.5" stroke-miterlimit="10"/>
<path d="M950.971 430.141C850.946 430.141 769.859 349.054 769.859 249.029C769.859 149.004 850.946 67.917 950.971 67.917C1051 67.917 1132.08 149.004 1132.08 249.029C1132.08 349.054 1051 430.141 950.971 430.141Z" stroke="url(#paint9_linear_4413_2807)" stroke-width="0.47" stroke-miterlimit="10"/>
<path d="M956.647 411.388C863.845 411.388 788.614 336.157 788.614 243.354C788.614 150.552 863.845 75.3213 956.647 75.3213C1049.45 75.3213 1124.68 150.552 1124.68 243.354C1124.68 336.157 1049.45 411.388 956.647 411.388Z" stroke="url(#paint10_linear_4413_2807)" stroke-width="0.44" stroke-miterlimit="10"/>
<path d="M962.29 392.697C876.693 392.697 807.302 323.307 807.302 237.709C807.302 152.112 876.693 82.7217 962.29 82.7217C1047.89 82.7217 1117.28 152.112 1117.28 237.709C1117.28 323.307 1047.89 392.697 962.29 392.697Z" stroke="url(#paint11_linear_4413_2807)" stroke-width="0.41" stroke-miterlimit="10"/>
<path d="M967.967 373.943C889.593 373.943 826.059 310.409 826.059 232.035C826.059 153.661 889.593 90.126 967.967 90.126C1046.34 90.126 1109.88 153.661 1109.88 232.035C1109.88 310.409 1046.34 373.943 967.967 373.943Z" stroke="url(#paint12_linear_4413_2807)" stroke-width="0.38" stroke-miterlimit="10"/>
<path d="M973.643 355.187C902.492 355.187 844.813 297.508 844.813 226.357C844.813 155.206 902.492 97.5273 973.643 97.5273C1044.79 97.5273 1102.47 155.206 1102.47 226.357C1102.47 297.508 1044.79 355.187 973.643 355.187Z" stroke="url(#paint13_linear_4413_2807)" stroke-width="0.34" stroke-miterlimit="10"/>
<path d="M930.861 325.861C872.775 299.119 847.365 230.353 874.106 172.267C900.847 114.181 969.613 88.7714 1027.7 115.513C1085.79 142.254 1111.2 211.02 1084.45 269.106C1057.71 327.192 988.947 352.602 930.861 325.861Z" stroke="url(#paint14_linear_4413_2807)" stroke-width="0.31" stroke-miterlimit="10"/>
<path d="M984.963 317.743C928.24 317.743 882.257 271.76 882.257 215.037C882.257 158.315 928.24 112.332 984.963 112.332C1041.69 112.332 1087.67 158.315 1087.67 215.037C1087.67 271.76 1041.69 317.743 984.963 317.743Z" stroke="url(#paint15_linear_4413_2807)" stroke-width="0.28" stroke-miterlimit="10"/>
<path d="M990.639 299.021C941.14 299.021 901.013 258.894 901.013 209.394C901.013 159.895 941.14 119.768 990.639 119.768C1040.14 119.768 1080.27 159.895 1080.27 209.394C1080.27 258.894 1040.14 299.021 990.639 299.021Z" stroke="url(#paint16_linear_4413_2807)" stroke-width="0.25" stroke-miterlimit="10"/>
</g>
<g opacity="0.3" clip-path="url(#clip1_4413_2807)">
<path d="M1499.98 598.772C1334.99 598.772 1201.23 465.015 1201.23 300.017C1201.23 135.019 1334.99 1.26172 1499.98 1.26172C1664.98 1.26172 1798.74 135.019 1798.74 300.017C1798.74 465.015 1664.98 598.772 1499.98 598.772Z" stroke="url(#paint17_linear_4413_2807)" stroke-width="0.75" stroke-miterlimit="10"/>
<path d="M1505.66 580.018C1347.89 580.018 1219.98 452.116 1219.98 294.341C1219.98 136.567 1347.89 8.66504 1505.66 8.66504C1663.44 8.66504 1791.34 136.567 1791.34 294.341C1791.34 452.116 1663.44 580.018 1505.66 580.018Z" stroke="url(#paint18_linear_4413_2807)" stroke-width="0.72" stroke-miterlimit="10"/>
<path d="M1511.34 561.295C1360.77 561.295 1238.71 439.234 1238.71 288.664C1238.71 138.094 1360.77 16.0332 1511.34 16.0332C1661.91 16.0332 1783.97 138.094 1783.97 288.664C1783.97 439.234 1661.91 561.295 1511.34 561.295Z" stroke="url(#paint19_linear_4413_2807)" stroke-width="0.69" stroke-miterlimit="10"/>
<path d="M1516.98 542.573C1373.63 542.573 1257.43 426.368 1257.43 283.022C1257.43 139.675 1373.63 23.4697 1516.98 23.4697C1660.33 23.4697 1776.53 139.675 1776.53 283.022C1776.53 426.368 1660.33 542.573 1516.98 542.573Z" stroke="url(#paint20_linear_4413_2807)" stroke-width="0.66" stroke-miterlimit="10"/>
<path d="M1522.66 523.817C1386.53 523.817 1276.18 413.467 1276.18 277.344C1276.18 141.221 1386.53 30.8711 1522.66 30.8711C1658.78 30.8711 1769.13 141.221 1769.13 277.344C1769.13 413.467 1658.78 523.817 1522.66 523.817Z" stroke="url(#paint21_linear_4413_2807)" stroke-width="0.62" stroke-miterlimit="10"/>
<path d="M1528.33 505.063C1399.43 505.063 1294.94 400.569 1294.94 271.669C1294.94 142.769 1399.43 38.2744 1528.33 38.2744C1657.23 38.2744 1761.73 142.769 1761.73 271.669C1761.73 400.569 1657.23 505.063 1528.33 505.063Z" stroke="url(#paint22_linear_4413_2807)" stroke-width="0.59" stroke-miterlimit="10"/>
<path d="M1533.98 486.374C1412.28 486.374 1313.63 387.72 1313.63 266.025C1313.63 144.33 1412.28 45.6768 1533.98 45.6768C1655.67 45.6768 1754.32 144.33 1754.32 266.025C1754.32 387.72 1655.67 486.374 1533.98 486.374Z" stroke="url(#paint23_linear_4413_2807)" stroke-width="0.56" stroke-miterlimit="10"/>
<path d="M1539.65 467.619C1425.18 467.619 1332.38 374.821 1332.38 260.349C1332.38 145.877 1425.18 53.0791 1539.65 53.0791C1654.12 53.0791 1746.92 145.877 1746.92 260.349C1746.92 374.821 1654.12 467.619 1539.65 467.619Z" stroke="url(#paint24_linear_4413_2807)" stroke-width="0.53" stroke-miterlimit="10"/>
<path d="M1545.29 448.897C1438.05 448.897 1351.1 361.955 1351.1 254.707C1351.1 147.458 1438.05 60.5156 1545.29 60.5156C1652.54 60.5156 1739.49 147.458 1739.49 254.707C1739.49 361.955 1652.54 448.897 1545.29 448.897Z" stroke="url(#paint25_linear_4413_2807)" stroke-width="0.5" stroke-miterlimit="10"/>
<path d="M1550.97 430.141C1450.95 430.141 1369.86 349.054 1369.86 249.029C1369.86 149.004 1450.95 67.917 1550.97 67.917C1651 67.917 1732.08 149.004 1732.08 249.029C1732.08 349.054 1651 430.141 1550.97 430.141Z" stroke="url(#paint26_linear_4413_2807)" stroke-width="0.47" stroke-miterlimit="10"/>
<path d="M1556.65 411.388C1463.85 411.388 1388.61 336.157 1388.61 243.354C1388.61 150.552 1463.85 75.3213 1556.65 75.3213C1649.45 75.3213 1724.68 150.552 1724.68 243.354C1724.68 336.157 1649.45 411.388 1556.65 411.388Z" stroke="url(#paint27_linear_4413_2807)" stroke-width="0.44" stroke-miterlimit="10"/>
<path d="M1562.29 392.697C1476.69 392.697 1407.3 323.307 1407.3 237.709C1407.3 152.112 1476.69 82.7217 1562.29 82.7217C1647.89 82.7217 1717.28 152.112 1717.28 237.709C1717.28 323.307 1647.89 392.697 1562.29 392.697Z" stroke="url(#paint28_linear_4413_2807)" stroke-width="0.41" stroke-miterlimit="10"/>
</g>
<g clip-path="url(#clip2_4413_2807)">
<path d="M299.983 598.772C134.985 598.772 1.22791 465.015 1.22791 300.017C1.22791 135.019 134.985 1.26172 299.983 1.26172C464.981 1.26172 598.738 135.019 598.738 300.017C598.738 465.015 464.981 598.772 299.983 598.772Z" stroke="url(#paint29_linear_4413_2807)" stroke-width="0.75" stroke-miterlimit="10"/>
<path d="M305.661 580.018C147.886 580.018 19.9842 452.116 19.9842 294.341C19.9842 136.567 147.886 8.66504 305.661 8.66504C463.435 8.66504 591.337 136.567 591.337 294.341C591.337 452.116 463.435 580.018 305.661 580.018Z" stroke="url(#paint30_linear_4413_2807)" stroke-width="0.72" stroke-miterlimit="10"/>
<path d="M311.336 561.295C160.766 561.295 38.7054 439.234 38.7054 288.664C38.7054 138.094 160.766 16.0332 311.336 16.0332C461.906 16.0332 583.967 138.094 583.967 288.664C583.967 439.234 461.906 561.295 311.336 561.295Z" stroke="url(#paint31_linear_4413_2807)" stroke-width="0.69" stroke-miterlimit="10"/>
<path d="M316.979 542.573C173.633 542.573 57.4276 426.368 57.4276 283.022C57.4276 139.675 173.633 23.4697 316.979 23.4697C460.326 23.4697 576.531 139.675 576.531 283.022C576.531 426.368 460.326 542.573 316.979 542.573Z" stroke="url(#paint32_linear_4413_2807)" stroke-width="0.66" stroke-miterlimit="10"/>
<path d="M322.656 523.817C186.533 523.817 76.1828 413.467 76.1828 277.344C76.1828 141.221 186.533 30.8711 322.656 30.8711C458.779 30.8711 569.129 141.221 569.129 277.344C569.129 413.467 458.779 523.817 322.656 523.817Z" stroke="url(#paint33_linear_4413_2807)" stroke-width="0.62" stroke-miterlimit="10"/>
<path d="M328.332 505.063C199.432 505.063 94.9382 400.569 94.9382 271.669C94.9382 142.769 199.432 38.2744 328.332 38.2744C457.232 38.2744 561.727 142.769 561.727 271.669C561.727 400.569 457.232 505.063 328.332 505.063Z" stroke="url(#paint34_linear_4413_2807)" stroke-width="0.59" stroke-miterlimit="10"/>
<path d="M333.976 486.374C212.281 486.374 113.627 387.72 113.627 266.025C113.627 144.33 212.281 45.6768 333.976 45.6768C455.671 45.6768 554.324 144.33 554.324 266.025C554.324 387.72 455.671 486.374 333.976 486.374Z" stroke="url(#paint35_linear_4413_2807)" stroke-width="0.56" stroke-miterlimit="10"/>
<path d="M339.652 467.619C225.18 467.619 132.382 374.821 132.382 260.349C132.382 145.877 225.18 53.0791 339.652 53.0791C454.124 53.0791 546.921 145.877 546.921 260.349C546.921 374.821 454.124 467.619 339.652 467.619Z" stroke="url(#paint36_linear_4413_2807)" stroke-width="0.53" stroke-miterlimit="10"/>
<path d="M345.294 448.897C238.046 448.897 151.104 361.955 151.104 254.707C151.104 147.458 238.046 60.5156 345.294 60.5156C452.543 60.5156 539.485 147.458 539.485 254.707C539.485 361.955 452.543 448.897 345.294 448.897Z" stroke="url(#paint37_linear_4413_2807)" stroke-width="0.5" stroke-miterlimit="10"/>
<path d="M350.971 430.141C250.946 430.141 169.859 349.054 169.859 249.029C169.859 149.004 250.946 67.917 350.971 67.917C450.996 67.917 532.083 149.004 532.083 249.029C532.083 349.054 450.996 430.141 350.971 430.141Z" stroke="url(#paint38_linear_4413_2807)" stroke-width="0.47" stroke-miterlimit="10"/>
<path d="M356.647 411.388C263.845 411.388 188.614 336.157 188.614 243.354C188.614 150.552 263.845 75.3213 356.647 75.3213C449.45 75.3213 524.681 150.552 524.681 243.354C524.681 336.157 449.45 411.388 356.647 411.388Z" stroke="url(#paint39_linear_4413_2807)" stroke-width="0.44" stroke-miterlimit="10"/>
<path d="M362.29 392.697C276.693 392.697 207.303 323.307 207.303 237.709C207.303 152.112 276.693 82.7217 362.29 82.7217C447.888 82.7217 517.278 152.112 517.278 237.709C517.278 323.307 447.888 392.697 362.29 392.697Z" stroke="url(#paint40_linear_4413_2807)" stroke-width="0.41" stroke-miterlimit="10"/>
<path d="M367.967 373.943C289.593 373.943 226.059 310.409 226.059 232.035C226.059 153.661 289.593 90.126 367.967 90.126C446.341 90.126 509.876 153.661 509.876 232.035C509.876 310.409 446.341 373.943 367.967 373.943Z" stroke="url(#paint41_linear_4413_2807)" stroke-width="0.38" stroke-miterlimit="10"/>
<path d="M373.643 355.187C302.492 355.187 244.813 297.508 244.813 226.357C244.813 155.206 302.492 97.5273 373.643 97.5273C444.794 97.5273 502.473 155.206 502.473 226.357C502.473 297.508 444.794 355.187 373.643 355.187Z" stroke="url(#paint42_linear_4413_2807)" stroke-width="0.34" stroke-miterlimit="10"/>
<path d="M330.86 325.861C272.774 299.119 247.364 230.353 274.105 172.267C300.847 114.181 369.613 88.7714 427.699 115.513C485.785 142.254 511.195 211.02 484.453 269.106C457.712 327.192 388.946 352.602 330.86 325.861Z" stroke="url(#paint43_linear_4413_2807)" stroke-width="0.31" stroke-miterlimit="10"/>
<path d="M384.963 317.743C328.24 317.743 282.257 271.76 282.257 215.037C282.257 158.315 328.24 112.332 384.963 112.332C441.685 112.332 487.668 158.315 487.668 215.037C487.668 271.76 441.685 317.743 384.963 317.743Z" stroke="url(#paint44_linear_4413_2807)" stroke-width="0.28" stroke-miterlimit="10"/>
<path d="M390.639 299.021C341.14 299.021 301.013 258.894 301.013 209.394C301.013 159.895 341.14 119.768 390.639 119.768C440.138 119.768 480.266 159.895 480.266 209.394C480.266 258.894 440.138 299.021 390.639 299.021Z" stroke="url(#paint45_linear_4413_2807)" stroke-width="0.25" stroke-miterlimit="10"/>
</g>
<defs>
<linearGradient id="paint0_linear_4413_2807" x1="899.983" y1="0.000307976" x2="899.983" y2="600" gradientUnits="userSpaceOnUse">
<stop stop-color="#00CDFF"/>
<stop offset="1" stop-color="#005FF5"/>
</linearGradient>
<linearGradient id="paint1_linear_4413_2807" x1="933.777" y1="8.83101" x2="877.544" y2="579.852" gradientUnits="userSpaceOnUse">
<stop stop-color="#00CDFF"/>
<stop offset="1" stop-color="#005FF5"/>
</linearGradient>
<linearGradient id="paint2_linear_4413_2807" x1="964.747" y1="20.1162" x2="857.925" y2="557.212" gradientUnits="userSpaceOnUse">
<stop stop-color="#00CDFF"/>
<stop offset="1" stop-color="#005FF5"/>
</linearGradient>
<linearGradient id="paint3_linear_4413_2807" x1="992.664" y1="33.5278" x2="841.328" y2="532.482" gradientUnits="userSpaceOnUse">
<stop stop-color="#00CDFF"/>
<stop offset="1" stop-color="#005FF5"/>
</linearGradient>
<linearGradient id="paint4_linear_4413_2807" x1="1017.39" y1="48.6304" x2="827.917" y2="506.058" gradientUnits="userSpaceOnUse">
<stop stop-color="#00CDFF"/>
<stop offset="1" stop-color="#005FF5"/>
</linearGradient>
<linearGradient id="paint5_linear_4413_2807" x1="1038.84" y1="64.93" x2="817.793" y2="478.44" gradientUnits="userSpaceOnUse">
<stop stop-color="#00CDFF"/>
<stop offset="1" stop-color="#005FF5"/>
</linearGradient>
<linearGradient id="paint6_linear_4413_2807" x1="1056.93" y1="82.0253" x2="811.054" y2="450.025" gradientUnits="userSpaceOnUse">
<stop stop-color="#00CDFF"/>
<stop offset="1" stop-color="#005FF5"/>
</linearGradient>
<linearGradient id="paint7_linear_4413_2807" x1="1071.7" y1="99.4526" x2="807.602" y2="421.245" gradientUnits="userSpaceOnUse">
<stop stop-color="#00CDFF"/>
<stop offset="1" stop-color="#005FF5"/>
</linearGradient>
<linearGradient id="paint8_linear_4413_2807" x1="1083.22" y1="116.781" x2="807.402" y2="392.599" gradientUnits="userSpaceOnUse">
<stop stop-color="#00CDFF"/>
<stop offset="1" stop-color="#005FF5"/>
</linearGradient>
<linearGradient id="paint9_linear_4413_2807" x1="1091.59" y1="133.61" x2="810.357" y2="364.415" gradientUnits="userSpaceOnUse">
<stop stop-color="#00CDFF"/>
<stop offset="1" stop-color="#005FF5"/>
</linearGradient>
<linearGradient id="paint10_linear_4413_2807" x1="1097" y1="149.579" x2="816.299" y2="337.13" gradientUnits="userSpaceOnUse">
<stop stop-color="#00CDFF"/>
<stop offset="1" stop-color="#005FF5"/>
</linearGradient>
<linearGradient id="paint11_linear_4413_2807" x1="1099.62" y1="164.315" x2="824.995" y2="311.07" gradientUnits="userSpaceOnUse">
<stop stop-color="#00CDFF"/>
<stop offset="1" stop-color="#005FF5"/>
</linearGradient>
<linearGradient id="paint12_linear_4413_2807" x1="1099.69" y1="177.462" x2="836.249" y2="286.607" gradientUnits="userSpaceOnUse">
<stop stop-color="#00CDFF"/>
<stop offset="1" stop-color="#005FF5"/>
</linearGradient>
<linearGradient id="paint13_linear_4413_2807" x1="1097.49" y1="188.78" x2="849.759" y2="263.934" gradientUnits="userSpaceOnUse">
<stop stop-color="#00CDFF"/>
<stop offset="1" stop-color="#005FF5"/>
</linearGradient>
<linearGradient id="paint14_linear_4413_2807" x1="1093.39" y1="197.999" x2="865.243" y2="243.376" gradientUnits="userSpaceOnUse">
<stop stop-color="#00CDFF"/>
<stop offset="1" stop-color="#005FF5"/>
</linearGradient>
<linearGradient id="paint15_linear_4413_2807" x1="1087.63" y1="204.913" x2="882.29" y2="225.162" gradientUnits="userSpaceOnUse">
<stop stop-color="#00CDFF"/>
<stop offset="1" stop-color="#005FF5"/>
</linearGradient>
<linearGradient id="paint16_linear_4413_2807" x1="1080.66" y1="209.394" x2="900.581" y2="209.394" gradientUnits="userSpaceOnUse">
<stop stop-color="#00CDFF"/>
<stop offset="1" stop-color="#005FF5"/>
</linearGradient>
<linearGradient id="paint17_linear_4413_2807" x1="1499.98" y1="0.000307976" x2="1499.98" y2="600" gradientUnits="userSpaceOnUse">
<stop stop-color="#00CDFF"/>
<stop offset="1" stop-color="#005FF5"/>
</linearGradient>
<linearGradient id="paint18_linear_4413_2807" x1="1533.78" y1="8.83101" x2="1477.54" y2="579.852" gradientUnits="userSpaceOnUse">
<stop stop-color="#00CDFF"/>
<stop offset="1" stop-color="#005FF5"/>
</linearGradient>
<linearGradient id="paint19_linear_4413_2807" x1="1564.75" y1="20.1162" x2="1457.93" y2="557.212" gradientUnits="userSpaceOnUse">
<stop stop-color="#00CDFF"/>
<stop offset="1" stop-color="#005FF5"/>
</linearGradient>
<linearGradient id="paint20_linear_4413_2807" x1="1592.66" y1="33.5278" x2="1441.33" y2="532.482" gradientUnits="userSpaceOnUse">
<stop stop-color="#00CDFF"/>
<stop offset="1" stop-color="#005FF5"/>
</linearGradient>
<linearGradient id="paint21_linear_4413_2807" x1="1617.39" y1="48.6304" x2="1427.92" y2="506.058" gradientUnits="userSpaceOnUse">
<stop stop-color="#00CDFF"/>
<stop offset="1" stop-color="#005FF5"/>
</linearGradient>
<linearGradient id="paint22_linear_4413_2807" x1="1638.84" y1="64.93" x2="1417.79" y2="478.44" gradientUnits="userSpaceOnUse">
<stop stop-color="#00CDFF"/>
<stop offset="1" stop-color="#005FF5"/>
</linearGradient>
<linearGradient id="paint23_linear_4413_2807" x1="1656.93" y1="82.0253" x2="1411.05" y2="450.025" gradientUnits="userSpaceOnUse">
<stop stop-color="#00CDFF"/>
<stop offset="1" stop-color="#005FF5"/>
</linearGradient>
<linearGradient id="paint24_linear_4413_2807" x1="1671.7" y1="99.4526" x2="1407.6" y2="421.245" gradientUnits="userSpaceOnUse">
<stop stop-color="#00CDFF"/>
<stop offset="1" stop-color="#005FF5"/>
</linearGradient>
<linearGradient id="paint25_linear_4413_2807" x1="1683.22" y1="116.781" x2="1407.4" y2="392.599" gradientUnits="userSpaceOnUse">
<stop stop-color="#00CDFF"/>
<stop offset="1" stop-color="#005FF5"/>
</linearGradient>
<linearGradient id="paint26_linear_4413_2807" x1="1691.59" y1="133.61" x2="1410.36" y2="364.415" gradientUnits="userSpaceOnUse">
<stop stop-color="#00CDFF"/>
<stop offset="1" stop-color="#005FF5"/>
</linearGradient>
<linearGradient id="paint27_linear_4413_2807" x1="1697" y1="149.579" x2="1416.3" y2="337.13" gradientUnits="userSpaceOnUse">
<stop stop-color="#00CDFF"/>
<stop offset="1" stop-color="#005FF5"/>
</linearGradient>
<linearGradient id="paint28_linear_4413_2807" x1="1699.62" y1="164.315" x2="1425" y2="311.07" gradientUnits="userSpaceOnUse">
<stop stop-color="#00CDFF"/>
<stop offset="1" stop-color="#005FF5"/>
</linearGradient>
<linearGradient id="paint29_linear_4413_2807" x1="299.983" y1="0.000307976" x2="299.983" y2="600" gradientUnits="userSpaceOnUse">
<stop stop-color="#00CDFF"/>
<stop offset="1" stop-color="#005FF5"/>
</linearGradient>
<linearGradient id="paint30_linear_4413_2807" x1="333.777" y1="8.83101" x2="277.544" y2="579.852" gradientUnits="userSpaceOnUse">
<stop stop-color="#00CDFF"/>
<stop offset="1" stop-color="#005FF5"/>
</linearGradient>
<linearGradient id="paint31_linear_4413_2807" x1="364.747" y1="20.1162" x2="257.925" y2="557.212" gradientUnits="userSpaceOnUse">
<stop stop-color="#00CDFF"/>
<stop offset="1" stop-color="#005FF5"/>
</linearGradient>
<linearGradient id="paint32_linear_4413_2807" x1="392.664" y1="33.5278" x2="241.328" y2="532.482" gradientUnits="userSpaceOnUse">
<stop stop-color="#00CDFF"/>
<stop offset="1" stop-color="#005FF5"/>
</linearGradient>
<linearGradient id="paint33_linear_4413_2807" x1="417.394" y1="48.6304" x2="227.917" y2="506.058" gradientUnits="userSpaceOnUse">
<stop stop-color="#00CDFF"/>
<stop offset="1" stop-color="#005FF5"/>
</linearGradient>
<linearGradient id="paint34_linear_4413_2807" x1="438.839" y1="64.93" x2="217.793" y2="478.44" gradientUnits="userSpaceOnUse">
<stop stop-color="#00CDFF"/>
<stop offset="1" stop-color="#005FF5"/>
</linearGradient>
<linearGradient id="paint35_linear_4413_2807" x1="456.93" y1="82.0253" x2="211.054" y2="450.025" gradientUnits="userSpaceOnUse">
<stop stop-color="#00CDFF"/>
<stop offset="1" stop-color="#005FF5"/>
</linearGradient>
<linearGradient id="paint36_linear_4413_2807" x1="471.701" y1="99.4526" x2="207.602" y2="421.245" gradientUnits="userSpaceOnUse">
<stop stop-color="#00CDFF"/>
<stop offset="1" stop-color="#005FF5"/>
</linearGradient>
<linearGradient id="paint37_linear_4413_2807" x1="483.22" y1="116.781" x2="207.402" y2="392.599" gradientUnits="userSpaceOnUse">
<stop stop-color="#00CDFF"/>
<stop offset="1" stop-color="#005FF5"/>
</linearGradient>
<linearGradient id="paint38_linear_4413_2807" x1="491.585" y1="133.61" x2="210.357" y2="364.415" gradientUnits="userSpaceOnUse">
<stop stop-color="#00CDFF"/>
<stop offset="1" stop-color="#005FF5"/>
</linearGradient>
<linearGradient id="paint39_linear_4413_2807" x1="496.996" y1="149.579" x2="216.299" y2="337.13" gradientUnits="userSpaceOnUse">
<stop stop-color="#00CDFF"/>
<stop offset="1" stop-color="#005FF5"/>
</linearGradient>
<linearGradient id="paint40_linear_4413_2807" x1="499.618" y1="164.315" x2="224.996" y2="311.07" gradientUnits="userSpaceOnUse">
<stop stop-color="#00CDFF"/>
<stop offset="1" stop-color="#005FF5"/>
</linearGradient>
<linearGradient id="paint41_linear_4413_2807" x1="499.685" y1="177.462" x2="236.249" y2="286.607" gradientUnits="userSpaceOnUse">
<stop stop-color="#00CDFF"/>
<stop offset="1" stop-color="#005FF5"/>
</linearGradient>
<linearGradient id="paint42_linear_4413_2807" x1="497.494" y1="188.78" x2="249.759" y2="263.934" gradientUnits="userSpaceOnUse">
<stop stop-color="#00CDFF"/>
<stop offset="1" stop-color="#005FF5"/>
</linearGradient>
<linearGradient id="paint43_linear_4413_2807" x1="493.392" y1="197.999" x2="265.243" y2="243.376" gradientUnits="userSpaceOnUse">
<stop stop-color="#00CDFF"/>
<stop offset="1" stop-color="#005FF5"/>
</linearGradient>
<linearGradient id="paint44_linear_4413_2807" x1="487.635" y1="204.913" x2="282.29" y2="225.162" gradientUnits="userSpaceOnUse">
<stop stop-color="#00CDFF"/>
<stop offset="1" stop-color="#005FF5"/>
</linearGradient>
<linearGradient id="paint45_linear_4413_2807" x1="480.664" y1="209.394" x2="300.581" y2="209.394" gradientUnits="userSpaceOnUse">
<stop stop-color="#00CDFF"/>
<stop offset="1" stop-color="#005FF5"/>
</linearGradient>
<clipPath id="clip0_4413_2807">
<rect width="600" height="600" fill="white" transform="matrix(-1 0 0 1 1200 0)"/>
</clipPath>
<clipPath id="clip1_4413_2807">
<rect width="600" height="600" fill="white" transform="matrix(-1 0 0 1 1800 0)"/>
</clipPath>
<clipPath id="clip2_4413_2807">
<rect width="600" height="600" fill="white" transform="matrix(-1 0 0 1 600 0)"/>
</clipPath>
</defs>
</svg>
