<svg width="390" height="1046" viewBox="0 0 390 1046" fill="none" xmlns="http://www.w3.org/2000/svg">
<g clip-path="url(#clip0_4439_2806)">
<path d="M299.983 1044.77C134.985 1044.77 1.22791 911.015 1.22791 746.017C1.22791 581.019 134.985 447.262 299.983 447.262C464.981 447.262 598.738 581.019 598.738 746.017C598.738 911.015 464.981 1044.77 299.983 1044.77Z" stroke="url(#paint0_linear_4439_2806)" stroke-width="0.75" stroke-miterlimit="10"/>
<path d="M305.661 1026.02C147.886 1026.02 19.9842 898.117 19.9842 740.342C19.9842 582.568 147.886 454.666 305.661 454.666C463.435 454.666 591.337 582.568 591.337 740.342C591.337 898.117 463.435 1026.02 305.661 1026.02Z" stroke="url(#paint1_linear_4439_2806)" stroke-width="0.72" stroke-miterlimit="10"/>
<path d="M311.336 1007.29C160.766 1007.29 38.7054 885.234 38.7054 734.664C38.7054 584.094 160.766 462.033 311.336 462.033C461.906 462.033 583.967 584.094 583.967 734.664C583.967 885.234 461.906 1007.29 311.336 1007.29Z" stroke="url(#paint2_linear_4439_2806)" stroke-width="0.69" stroke-miterlimit="10"/>
<path d="M316.979 988.574C173.633 988.574 57.4276 872.369 57.4276 729.023C57.4276 585.676 173.633 469.471 316.979 469.471C460.326 469.471 576.531 585.676 576.531 729.023C576.531 872.369 460.326 988.574 316.979 988.574Z" stroke="url(#paint3_linear_4439_2806)" stroke-width="0.66" stroke-miterlimit="10"/>
<path d="M322.656 969.817C186.533 969.817 76.1828 859.467 76.1828 723.344C76.1828 587.221 186.533 476.871 322.656 476.871C458.779 476.871 569.129 587.221 569.129 723.344C569.129 859.467 458.779 969.817 322.656 969.817Z" stroke="url(#paint4_linear_4439_2806)" stroke-width="0.62" stroke-miterlimit="10"/>
<path d="M328.332 951.062C199.432 951.062 94.9382 846.568 94.9382 717.668C94.9382 588.768 199.432 484.273 328.332 484.273C457.232 484.273 561.727 588.768 561.727 717.668C561.727 846.568 457.232 951.062 328.332 951.062Z" stroke="url(#paint5_linear_4439_2806)" stroke-width="0.59" stroke-miterlimit="10"/>
<path d="M333.976 932.373C212.281 932.373 113.627 833.719 113.627 712.024C113.627 590.329 212.281 491.676 333.976 491.676C455.671 491.676 554.324 590.329 554.324 712.024C554.324 833.719 455.671 932.373 333.976 932.373Z" stroke="url(#paint6_linear_4439_2806)" stroke-width="0.56" stroke-miterlimit="10"/>
<path d="M339.652 913.618C225.18 913.618 132.382 820.82 132.382 706.348C132.382 591.876 225.18 499.078 339.652 499.078C454.124 499.078 546.922 591.876 546.922 706.348C546.922 820.82 454.124 913.618 339.652 913.618Z" stroke="url(#paint7_linear_4439_2806)" stroke-width="0.53" stroke-miterlimit="10"/>
<path d="M345.294 894.897C238.046 894.897 151.104 807.955 151.104 700.707C151.104 593.458 238.046 506.516 345.294 506.516C452.543 506.516 539.485 593.458 539.485 700.707C539.485 807.955 452.543 894.897 345.294 894.897Z" stroke="url(#paint8_linear_4439_2806)" stroke-width="0.5" stroke-miterlimit="10"/>
<path d="M350.971 876.142C250.946 876.142 169.859 795.055 169.859 695.03C169.859 595.005 250.946 513.918 350.971 513.918C450.996 513.918 532.083 595.005 532.083 695.03C532.083 795.055 450.996 876.142 350.971 876.142Z" stroke="url(#paint9_linear_4439_2806)" stroke-width="0.47" stroke-miterlimit="10"/>
<path d="M356.647 857.387C263.845 857.387 188.614 782.156 188.614 689.354C188.614 596.551 263.845 521.32 356.647 521.32C449.45 521.32 524.681 596.551 524.681 689.354C524.681 782.156 449.45 857.387 356.647 857.387Z" stroke="url(#paint10_linear_4439_2806)" stroke-width="0.44" stroke-miterlimit="10"/>
<path d="M362.29 838.698C276.693 838.698 207.302 769.307 207.302 683.71C207.302 598.113 276.693 528.723 362.29 528.723C447.887 528.723 517.277 598.113 517.277 683.71C517.277 769.307 447.887 838.698 362.29 838.698Z" stroke="url(#paint11_linear_4439_2806)" stroke-width="0.41" stroke-miterlimit="10"/>
<path d="M367.967 819.942C289.593 819.942 226.059 756.408 226.059 678.034C226.059 599.66 289.593 536.125 367.967 536.125C446.341 536.125 509.876 599.66 509.876 678.034C509.876 756.408 446.341 819.942 367.967 819.942Z" stroke="url(#paint12_linear_4439_2806)" stroke-width="0.38" stroke-miterlimit="10"/>
<path d="M373.643 801.187C302.492 801.187 244.813 743.508 244.813 672.357C244.813 601.206 302.492 543.527 373.643 543.527C444.794 543.527 502.473 601.206 502.473 672.357C502.473 743.508 444.794 801.187 373.643 801.187Z" stroke="url(#paint13_linear_4439_2806)" stroke-width="0.34" stroke-miterlimit="10"/>
<path d="M330.861 771.861C272.775 745.119 247.365 676.353 274.106 618.267C300.847 560.181 369.613 534.771 427.699 561.513C485.785 588.254 511.195 657.02 484.454 715.106C457.713 773.192 388.947 798.602 330.861 771.861Z" stroke="url(#paint14_linear_4439_2806)" stroke-width="0.31" stroke-miterlimit="10"/>
<path d="M384.963 763.743C328.24 763.743 282.257 717.76 282.257 661.037C282.257 604.315 328.24 558.332 384.963 558.332C441.685 558.332 487.668 604.315 487.668 661.037C487.668 717.76 441.685 763.743 384.963 763.743Z" stroke="url(#paint15_linear_4439_2806)" stroke-width="0.28" stroke-miterlimit="10"/>
<path d="M390.639 745.021C341.14 745.021 301.013 704.894 301.013 655.394C301.013 605.895 341.14 565.768 390.639 565.768C440.138 565.768 480.266 605.895 480.266 655.394C480.266 704.894 440.138 745.021 390.639 745.021Z" stroke="url(#paint16_linear_4439_2806)" stroke-width="0.25" stroke-miterlimit="10"/>
</g>
<g clip-path="url(#clip1_4439_2806)">
<g opacity="0.5">
<path d="M333.329 408.171L282.519 277.1L384.543 278.793L333.329 408.171Z" fill="url(#paint17_linear_4439_2806)"/>
<path d="M282.518 277.098L194.452 359.902L333.329 408.17L282.518 277.098Z" fill="url(#paint18_linear_4439_2806)"/>
<path d="M282.518 277.099L194.452 359.903L247.197 226.874L282.518 277.099Z" fill="url(#paint19_linear_4439_2806)"/>
<path d="M282.519 277.1L384.543 278.794L247.197 226.875L282.519 277.1Z" fill="url(#paint20_linear_4439_2806)"/>
</g>
</g>
<g clip-path="url(#clip2_4439_2806)">
<g style="mix-blend-mode:overlay" opacity="0.8">
<path d="M364.42 83.1394L337.22 0.409357V0.379357C337.22 0.379357 337.16 0.339357 337.14 0.299357C337.09 0.209357 337.03 0.129357 336.94 0.0793571C336.93 0.0793571 336.93 0.0593571 336.91 0.0493571C336.87 0.0293571 336.83 0.0493571 336.79 0.0493571C336.72 0.0293571 336.67 -0.0106429 336.6 0.0093571L285.04 7.44936L213.34 35.2694C213.25 35.2994 213.2 35.3794 213.14 35.4394C213.12 35.4594 213.08 35.4594 213.07 35.4894C213.07 35.4894 213.07 35.5094 213.06 35.5194C213.06 35.5394 213.05 35.5494 213.04 35.5694C213 35.6694 212.98 35.7794 213.01 35.8894C213.01 35.8994 213.01 35.9094 213.01 35.9294C213.01 35.9294 213.01 35.9294 213.01 35.9394C213.01 35.9394 213.01 35.9494 213.01 35.9594L240.22 118.719C240.29 118.929 240.47 119.069 240.68 119.099C240.73 119.099 240.78 119.099 240.83 119.099L292.27 111.699C292.27 111.699 292.29 111.679 292.3 111.679C292.33 111.679 292.36 111.679 292.39 111.669L364.09 83.8394C364.37 83.7394 364.51 83.4294 364.41 83.1494L364.42 83.1394ZM285.32 8.50936L331.94 1.79936L264.85 27.8494L218.29 34.5494L285.32 8.50936ZM241.13 117.929L214.28 36.2394L215.7 36.0394L264.61 28.9994L291.47 110.679L241.14 117.929H241.13ZM292.54 110.409L265.68 28.7094L317.5 8.58936L336.34 1.27936L363.21 82.9794L292.55 110.409H292.54Z" fill="#5AFFFF"/>
</g>
</g>
<defs>
<linearGradient id="paint0_linear_4439_2806" x1="299.983" y1="446" x2="299.983" y2="1046" gradientUnits="userSpaceOnUse">
<stop stop-color="#00CDFF"/>
<stop offset="1" stop-color="#005FF5"/>
</linearGradient>
<linearGradient id="paint1_linear_4439_2806" x1="333.777" y1="454.832" x2="277.544" y2="1025.85" gradientUnits="userSpaceOnUse">
<stop stop-color="#00CDFF"/>
<stop offset="1" stop-color="#005FF5"/>
</linearGradient>
<linearGradient id="paint2_linear_4439_2806" x1="364.747" y1="466.116" x2="257.925" y2="1003.21" gradientUnits="userSpaceOnUse">
<stop stop-color="#00CDFF"/>
<stop offset="1" stop-color="#005FF5"/>
</linearGradient>
<linearGradient id="paint3_linear_4439_2806" x1="392.664" y1="479.529" x2="241.328" y2="978.483" gradientUnits="userSpaceOnUse">
<stop stop-color="#00CDFF"/>
<stop offset="1" stop-color="#005FF5"/>
</linearGradient>
<linearGradient id="paint4_linear_4439_2806" x1="417.394" y1="494.63" x2="227.917" y2="952.058" gradientUnits="userSpaceOnUse">
<stop stop-color="#00CDFF"/>
<stop offset="1" stop-color="#005FF5"/>
</linearGradient>
<linearGradient id="paint5_linear_4439_2806" x1="438.839" y1="510.929" x2="217.793" y2="924.439" gradientUnits="userSpaceOnUse">
<stop stop-color="#00CDFF"/>
<stop offset="1" stop-color="#005FF5"/>
</linearGradient>
<linearGradient id="paint6_linear_4439_2806" x1="456.93" y1="528.024" x2="211.054" y2="896.024" gradientUnits="userSpaceOnUse">
<stop stop-color="#00CDFF"/>
<stop offset="1" stop-color="#005FF5"/>
</linearGradient>
<linearGradient id="paint7_linear_4439_2806" x1="471.702" y1="545.452" x2="207.602" y2="867.244" gradientUnits="userSpaceOnUse">
<stop stop-color="#00CDFF"/>
<stop offset="1" stop-color="#005FF5"/>
</linearGradient>
<linearGradient id="paint8_linear_4439_2806" x1="483.22" y1="562.781" x2="207.402" y2="838.599" gradientUnits="userSpaceOnUse">
<stop stop-color="#00CDFF"/>
<stop offset="1" stop-color="#005FF5"/>
</linearGradient>
<linearGradient id="paint9_linear_4439_2806" x1="491.585" y1="579.611" x2="210.357" y2="810.416" gradientUnits="userSpaceOnUse">
<stop stop-color="#00CDFF"/>
<stop offset="1" stop-color="#005FF5"/>
</linearGradient>
<linearGradient id="paint10_linear_4439_2806" x1="496.996" y1="595.578" x2="216.299" y2="783.129" gradientUnits="userSpaceOnUse">
<stop stop-color="#00CDFF"/>
<stop offset="1" stop-color="#005FF5"/>
</linearGradient>
<linearGradient id="paint11_linear_4439_2806" x1="499.618" y1="610.316" x2="224.995" y2="757.071" gradientUnits="userSpaceOnUse">
<stop stop-color="#00CDFF"/>
<stop offset="1" stop-color="#005FF5"/>
</linearGradient>
<linearGradient id="paint12_linear_4439_2806" x1="499.685" y1="623.461" x2="236.249" y2="732.606" gradientUnits="userSpaceOnUse">
<stop stop-color="#00CDFF"/>
<stop offset="1" stop-color="#005FF5"/>
</linearGradient>
<linearGradient id="paint13_linear_4439_2806" x1="497.493" y1="634.78" x2="249.759" y2="709.934" gradientUnits="userSpaceOnUse">
<stop stop-color="#00CDFF"/>
<stop offset="1" stop-color="#005FF5"/>
</linearGradient>
<linearGradient id="paint14_linear_4439_2806" x1="493.393" y1="643.999" x2="265.243" y2="689.376" gradientUnits="userSpaceOnUse">
<stop stop-color="#00CDFF"/>
<stop offset="1" stop-color="#005FF5"/>
</linearGradient>
<linearGradient id="paint15_linear_4439_2806" x1="487.635" y1="650.913" x2="282.29" y2="671.162" gradientUnits="userSpaceOnUse">
<stop stop-color="#00CDFF"/>
<stop offset="1" stop-color="#005FF5"/>
</linearGradient>
<linearGradient id="paint16_linear_4439_2806" x1="480.664" y1="655.394" x2="300.581" y2="655.394" gradientUnits="userSpaceOnUse">
<stop stop-color="#00CDFF"/>
<stop offset="1" stop-color="#005FF5"/>
</linearGradient>
<linearGradient id="paint17_linear_4439_2806" x1="389.34" y1="326.428" x2="291.134" y2="345.239" gradientUnits="userSpaceOnUse">
<stop stop-color="#B8FFFF"/>
<stop offset="1" stop-color="#5AFFFF"/>
</linearGradient>
<linearGradient id="paint18_linear_4439_2806" x1="374.855" y1="362.923" x2="194.782" y2="308.985" gradientUnits="userSpaceOnUse">
<stop stop-color="#4380EB"/>
<stop offset="1" stop-color="#1C53B3"/>
</linearGradient>
<linearGradient id="paint19_linear_4439_2806" x1="209.404" y1="346.351" x2="298.08" y2="198.82" gradientUnits="userSpaceOnUse">
<stop stop-color="#4380EB"/>
<stop offset="1" stop-color="#1C53B3"/>
</linearGradient>
<linearGradient id="paint20_linear_4439_2806" x1="175.804" y1="222.599" x2="428.914" y2="306.493" gradientUnits="userSpaceOnUse">
<stop stop-color="#5AFFFF"/>
<stop offset="1" stop-color="#4380EB"/>
</linearGradient>
<clipPath id="clip0_4439_2806">
<rect width="600" height="600" fill="white" transform="matrix(-1 0 0 1 600 446)"/>
</clipPath>
<clipPath id="clip1_4439_2806">
<rect width="206.16" height="199.49" fill="white" transform="translate(159 257.369) rotate(-19.0734)"/>
</clipPath>
<clipPath id="clip2_4439_2806">
<rect width="151.45" height="119.1" fill="white" transform="translate(213)"/>
</clipPath>
</defs>
</svg>
