<svg width="152" height="120" viewBox="0 0 152 120" fill="none" xmlns="http://www.w3.org/2000/svg">
<g clip-path="url(#clip0_2611_13317)">
<g style="mix-blend-mode:overlay" opacity="0.8">
<path d="M151.42 83.1403L124.22 0.410334V0.380334C124.22 0.380334 124.16 0.340334 124.14 0.300334C124.09 0.210334 124.03 0.130334 123.94 0.0803337C123.93 0.0803337 123.93 0.0603337 123.91 0.0503337C123.87 0.0303337 123.83 0.0503337 123.79 0.0503337C123.72 0.0303337 123.67 -0.00966634 123.6 0.0103337L72.0401 7.45033L0.34005 35.2703C0.25005 35.3003 0.20005 35.3803 0.14005 35.4403C0.12005 35.4603 0.0800499 35.4603 0.0700499 35.4903C0.0700499 35.4903 0.0700499 35.5103 0.0600499 35.5203C0.0600499 35.5403 0.0500499 35.5503 0.0400499 35.5703C4.99114e-05 35.6703 -0.0199501 35.7803 0.0100499 35.8903C0.0100499 35.9003 0.0100499 35.9103 0.0100499 35.9303C0.0100499 35.9303 0.0100499 35.9303 0.0100499 35.9403C0.0100499 35.9403 0.0100499 35.9503 0.0100499 35.9603L27.22 118.72C27.29 118.93 27.4701 119.07 27.68 119.1C27.73 119.1 27.7801 119.1 27.83 119.1L79.2701 111.7C79.2701 111.7 79.2901 111.68 79.3001 111.68C79.3301 111.68 79.3601 111.68 79.3901 111.67L151.09 83.8403C151.37 83.7403 151.51 83.4303 151.41 83.1503L151.42 83.1403ZM72.3201 8.51033L118.94 1.80033L51.85 27.8503L5.29005 34.5503L72.3201 8.51033ZM28.13 117.93L1.28005 36.2403L2.70005 36.0403L51.6101 29.0003L78.4701 110.68L28.14 117.93H28.13ZM79.5401 110.41L52.68 28.7103L104.5 8.59033L123.34 1.28033L150.21 82.9803L79.5501 110.41H79.5401Z" fill="#5AFFFF"/>
</g>
</g>
<defs>
<clipPath id="clip0_2611_13317">
<rect width="151.45" height="119.1" fill="white"/>
</clipPath>
</defs>
</svg>
