<svg width="152" height="152" viewBox="0 0 152 152" fill="none" xmlns="http://www.w3.org/2000/svg">
<path opacity="0.5" d="M76 151C117.421 151 151 117.421 151 76C151 34.5786 117.421 1 76 1C34.5786 1 1 34.5786 1 76C1 117.421 34.5786 151 76 151Z" fill="url(#paint0_linear_2554_5845)"/>
<path d="M76 151C117.421 151 151 117.421 151 76C151 34.5786 117.421 1 76 1C34.5786 1 1 34.5786 1 76C1 117.421 34.5786 151 76 151Z" stroke="white" stroke-miterlimit="10"/>
<path d="M74.5811 146.3C114.19 146.3 146.3 114.19 146.3 74.5811C146.3 34.9719 114.19 2.8623 74.5811 2.8623C34.9719 2.8623 2.8623 34.9719 2.8623 74.5811C2.8623 114.19 34.9719 146.3 74.5811 146.3Z" stroke="white" stroke-width="0.95" stroke-miterlimit="10"/>
<path d="M73.1562 141.594C110.953 141.594 141.594 110.953 141.594 73.1562C141.594 35.3593 110.953 4.71875 73.1562 4.71875C35.3593 4.71875 4.71875 35.3593 4.71875 73.1562C4.71875 110.953 35.3593 141.594 73.1562 141.594Z" stroke="white" stroke-width="0.91" stroke-miterlimit="10"/>
<path d="M71.7378 136.888C107.723 136.888 136.894 107.716 136.894 71.7314C136.894 35.7466 107.723 6.5752 71.7378 6.5752C35.753 6.5752 6.58154 35.7466 6.58154 71.7314C6.58154 107.716 35.753 136.888 71.7378 136.888Z" stroke="white" stroke-width="0.86" stroke-miterlimit="10"/>
<path d="M70.3125 132.188C104.485 132.188 132.188 104.485 132.188 70.3125C132.188 36.1399 104.485 8.4375 70.3125 8.4375C36.1399 8.4375 8.4375 36.1399 8.4375 70.3125C8.4375 104.485 36.1399 132.188 70.3125 132.188Z" stroke="white" stroke-width="0.81" stroke-miterlimit="10"/>
<path d="M68.8877 127.481C101.248 127.481 127.481 101.248 127.481 68.8877C127.481 36.5273 101.248 10.2939 68.8877 10.2939C36.5273 10.2939 10.2939 36.5273 10.2939 68.8877C10.2939 101.248 36.5273 127.481 68.8877 127.481Z" stroke="white" stroke-width="0.77" stroke-miterlimit="10"/>
<path d="M67.4688 122.781C98.017 122.781 122.781 98.017 122.781 67.4688C122.781 36.9205 98.017 12.1562 67.4688 12.1562C36.9205 12.1562 12.1562 36.9205 12.1562 67.4688C12.1562 98.017 36.9205 122.781 67.4688 122.781Z" stroke="white" stroke-width="0.72" stroke-miterlimit="10"/>
<path d="M66.0498 118.081C94.7859 118.081 118.081 94.7859 118.081 66.0498C118.081 37.3137 94.7859 14.0186 66.0498 14.0186C37.3137 14.0186 14.0186 37.3137 14.0186 66.0498C14.0186 94.7859 37.3137 118.081 66.0498 118.081Z" stroke="white" stroke-width="0.67" stroke-miterlimit="10"/>
<path d="M64.625 113.375C91.5489 113.375 113.375 91.5489 113.375 64.625C113.375 37.7011 91.5489 15.875 64.625 15.875C37.7011 15.875 15.875 37.7011 15.875 64.625C15.875 91.5489 37.7011 113.375 64.625 113.375Z" stroke="white" stroke-width="0.62" stroke-miterlimit="10"/>
<path d="M63.2061 108.668C88.3177 108.668 108.675 88.3109 108.675 63.1992C108.675 38.0875 88.3177 17.7305 63.2061 17.7305C38.0944 17.7305 17.7373 38.0875 17.7373 63.1992C17.7373 88.3109 38.0944 108.668 63.2061 108.668Z" stroke="white" stroke-width="0.58" stroke-miterlimit="10"/>
<path d="M61.7812 103.969C85.0808 103.969 103.969 85.0808 103.969 61.7812C103.969 38.4817 85.0808 19.5938 61.7812 19.5938C38.4817 19.5938 19.5938 38.4817 19.5938 61.7812C19.5938 85.0808 38.4817 103.969 61.7812 103.969Z" stroke="white" stroke-width="0.53" stroke-miterlimit="10"/>
<path d="M60.3623 99.2695C81.8496 99.2695 99.2686 81.8506 99.2686 60.3633C99.2686 38.876 81.8496 21.457 60.3623 21.457C38.875 21.457 21.4561 38.876 21.4561 60.3633C21.4561 81.8506 38.875 99.2695 60.3623 99.2695Z" stroke="white" stroke-width="0.48" stroke-miterlimit="10"/>
<path d="M58.9375 94.5625C78.6126 94.5625 94.5625 78.6126 94.5625 58.9375C94.5625 39.2624 78.6126 23.3125 58.9375 23.3125C39.2624 23.3125 23.3125 39.2624 23.3125 58.9375C23.3125 78.6126 39.2624 94.5625 58.9375 94.5625Z" stroke="white" stroke-width="0.44" stroke-miterlimit="10"/>
<path d="M57.5186 89.8623C75.3815 89.8623 89.8623 75.3815 89.8623 57.5186C89.8623 39.6556 75.3815 25.1748 57.5186 25.1748C39.6556 25.1748 25.1748 39.6556 25.1748 57.5186C25.1748 75.3815 39.6556 89.8623 57.5186 89.8623Z" stroke="white" stroke-width="0.39" stroke-miterlimit="10"/>
<path d="M56.0937 85.1562C72.1445 85.1562 85.1562 72.1445 85.1562 56.0937C85.1562 40.043 72.1445 27.0312 56.0937 27.0312C40.043 27.0312 27.0312 40.043 27.0312 56.0937C27.0312 72.1445 40.043 85.1562 56.0937 85.1562Z" stroke="white" stroke-width="0.34" stroke-miterlimit="10"/>
<path d="M54.6748 80.4561C68.9134 80.4561 80.4561 68.9134 80.4561 54.6748C80.4561 40.4362 68.9134 28.8936 54.6748 28.8936C40.4362 28.8936 28.8936 40.4362 28.8936 54.6748C28.8936 68.9134 40.4362 80.4561 54.6748 80.4561Z" stroke="white" stroke-width="0.3" stroke-miterlimit="10"/>
<path d="M53.25 75.75C65.6764 75.75 75.75 65.6764 75.75 53.25C75.75 40.8236 65.6764 30.75 53.25 30.75C40.8236 30.75 30.75 40.8236 30.75 53.25C30.75 65.6764 40.8236 75.75 53.25 75.75Z" stroke="white" stroke-width="0.25" stroke-miterlimit="10"/>
<defs>
<linearGradient id="paint0_linear_2554_5845" x1="76" y1="1" x2="76" y2="151" gradientUnits="userSpaceOnUse">
<stop stop-color="#00CDFF"/>
<stop offset="1" stop-color="#005FF5"/>
</linearGradient>
</defs>
</svg>
