<svg width="390" height="210" viewBox="0 0 390 210" fill="none" xmlns="http://www.w3.org/2000/svg">
<path d="M103 4L-50 199H1.5H281.5L263 35.5L208.5 72L122.5 51.5L103 4Z" fill="#01CBFF"/>
<circle cx="98" cy="94" r="10" fill="white"/>
<circle cx="213" cy="123" r="10" fill="white"/>
<path d="M168.838 113.162C167.916 117.5 160.848 120.456 154 119C147.152 117.544 143.465 110.592 144.04 107.891C144.614 105.19 150.631 104.18 157.479 105.636C164.327 107.091 169.413 110.461 168.838 113.162Z" fill="white"/>
<path d="M318.909 94L256.5 201.5L311 210L333 120L346.141 122.512L358.227 112.285L354.818 99.8884L318.909 94Z" fill="#01CBFF"/>
<path d="M150 180L0 0V210H1440V120L615 207L150 180Z" fill="#01CBFF"/>
</svg>
