<svg width="203" height="90" viewBox="0 0 203 90" fill="none" xmlns="http://www.w3.org/2000/svg">
<path d="M86.3037 52.0245C85.5718 52.0245 84.8595 52.6127 84.7072 53.3431L83.5135 59.0294L78.5374 52.4264C78.5374 52.4264 78.5325 52.4215 78.5275 52.4166C78.4981 52.3774 78.4588 52.3431 78.4195 52.3039C78.3998 52.2843 78.3851 52.2647 78.3605 52.2451C78.3261 52.2156 78.2868 52.196 78.2475 52.1715C78.2181 52.1568 78.1935 52.1323 78.164 52.1176C78.1346 52.1029 78.1002 52.098 78.0658 52.0833C78.0216 52.0686 77.9774 52.049 77.9331 52.0392C77.9037 52.0343 77.8742 52.0343 77.8447 52.0294C77.7907 52.0196 77.7367 52.0147 77.6777 52.0098C77.6777 52.0098 77.6679 52.0098 77.663 52.0098C77.6335 52.0098 77.604 52.0147 77.5696 52.0196C77.5156 52.0196 77.4616 52.0245 77.4124 52.0343C77.3682 52.0441 77.3289 52.0539 77.2847 52.0686C77.2405 52.0833 77.1963 52.0931 77.1472 52.1078C77.103 52.1225 77.0588 52.147 77.0145 52.1666C76.9752 52.1862 76.931 52.2009 76.8917 52.2255C76.8426 52.2549 76.7935 52.2892 76.7493 52.3235C76.7198 52.3431 76.6952 52.3578 76.6658 52.3774C76.6658 52.3774 76.6609 52.3823 76.6559 52.3872C76.6068 52.4264 76.5626 52.4755 76.5135 52.5196C76.4889 52.5441 76.4644 52.5637 76.4447 52.5882C76.4054 52.6274 76.3759 52.6764 76.3416 52.7206C76.317 52.75 76.2924 52.7794 76.2728 52.8137C76.2531 52.848 76.2384 52.8823 76.2187 52.9166C76.1942 52.9656 76.1647 53.0098 76.1451 53.0588C76.1352 53.0882 76.1254 53.1176 76.1156 53.147C76.0959 53.2058 76.0763 53.2598 76.0616 53.3186C76.0616 53.3186 76.0616 53.3284 76.0616 53.3333L74.185 62.2941C74.0328 63.0245 74.4994 63.6127 75.2314 63.6127C75.9633 63.6127 76.6756 63.0245 76.8279 62.2941L78.0216 56.6078L82.9977 63.2107C82.9977 63.2107 83.0027 63.2156 83.0076 63.2205C83.0371 63.2598 83.0763 63.299 83.1156 63.3333C83.1353 63.3529 83.15 63.3725 83.1746 63.3872C83.209 63.4166 83.2483 63.4362 83.2876 63.4607C83.317 63.4754 83.3416 63.4999 83.3711 63.5147C83.4006 63.5294 83.4349 63.5343 83.4644 63.549C83.5086 63.5637 83.5528 63.5833 83.5971 63.5931C83.6265 63.598 83.656 63.598 83.6806 63.6029C83.7346 63.6127 83.7936 63.6176 83.8476 63.6225C83.8476 63.6225 83.8574 63.6225 83.8623 63.6225C83.8918 63.6225 83.9213 63.6176 83.9557 63.6127C84.0097 63.6127 84.0637 63.6078 84.1178 63.598C84.162 63.5882 84.2013 63.5784 84.2455 63.5637C84.2897 63.549 84.3388 63.5392 84.383 63.5245C84.4272 63.5098 84.4714 63.4852 84.5157 63.4656C84.555 63.446 84.5992 63.4313 84.6385 63.4068C84.6876 63.3774 84.7367 63.3431 84.7809 63.3088C84.8104 63.2892 84.835 63.2745 84.8644 63.2549C84.8644 63.2549 84.8693 63.2499 84.8743 63.245C84.9234 63.2058 84.9676 63.1568 85.0118 63.1127C85.0364 63.0882 85.0609 63.0686 85.0806 63.0441C85.115 63.0049 85.1444 62.9607 85.1788 62.9166C85.2034 62.8823 85.2279 62.8529 85.2525 62.8186C85.2722 62.7843 85.2869 62.75 85.3065 62.7156C85.3311 62.6666 85.3606 62.6225 85.3802 62.5735C85.3901 62.5441 85.3999 62.5147 85.4097 62.4852C85.4293 62.4264 85.449 62.3725 85.4637 62.3137C85.4637 62.3137 85.4637 62.3039 85.4637 62.299L87.3402 53.3382C87.4925 52.6078 87.0259 52.0196 86.2939 52.0196L86.3037 52.0245Z" fill="#0A0A55"/>
<path d="M132.957 53.1568C132.957 53.1274 132.966 53.098 132.966 53.0685C132.966 53.0195 132.957 52.9754 132.952 52.9264C132.952 52.8921 132.952 52.8578 132.942 52.8235C132.937 52.7891 132.922 52.7597 132.912 52.7303C132.898 52.6862 132.888 52.6421 132.868 52.598C132.858 52.5735 132.839 52.5538 132.824 52.5293C132.799 52.4852 132.77 52.4362 132.74 52.397C132.74 52.397 132.74 52.3921 132.736 52.3872C132.716 52.3676 132.696 52.3529 132.677 52.3333C132.642 52.2989 132.613 52.2646 132.573 52.2352C132.544 52.2107 132.51 52.196 132.475 52.1764C132.441 52.1568 132.406 52.1323 132.367 52.1176C132.328 52.1029 132.288 52.0882 132.249 52.0784C132.21 52.0685 132.175 52.0538 132.136 52.044C132.087 52.0342 132.033 52.0342 131.984 52.0293C131.954 52.0293 131.925 52.0195 131.896 52.0195C131.896 52.0195 131.886 52.0195 131.881 52.0195C131.822 52.0195 131.763 52.0293 131.704 52.0391C131.674 52.0391 131.645 52.0391 131.615 52.0489C131.566 52.0587 131.517 52.0784 131.463 52.0931C131.429 52.1029 131.39 52.1127 131.355 52.1274C131.321 52.1421 131.286 52.1617 131.247 52.1813C131.198 52.2058 131.149 52.2254 131.1 52.2548C131.07 52.2695 131.046 52.294 131.021 52.3136C130.967 52.348 130.913 52.3823 130.864 52.4264C130.864 52.4264 130.854 52.4313 130.854 52.4362L126.757 55.9264L124.124 52.4362C124.124 52.4362 124.119 52.4313 124.114 52.4264C124.085 52.3872 124.046 52.348 124.006 52.3136C123.987 52.294 123.972 52.2744 123.952 52.2597C123.918 52.2303 123.874 52.2107 123.834 52.1862C123.805 52.1715 123.78 52.147 123.751 52.1372C123.721 52.1225 123.687 52.1176 123.653 52.1029C123.608 52.0882 123.564 52.0685 123.52 52.0587C123.491 52.0538 123.461 52.0538 123.432 52.0489C123.378 52.0391 123.324 52.0342 123.265 52.0293C123.265 52.0293 123.255 52.0293 123.25 52.0293C123.22 52.0293 123.191 52.0342 123.156 52.0391C123.102 52.0391 123.048 52.044 122.999 52.0538C122.955 52.0636 122.916 52.0735 122.872 52.0882C122.827 52.1029 122.783 52.1127 122.734 52.1274C122.69 52.1421 122.646 52.1666 122.601 52.1862C122.562 52.2058 122.518 52.2205 122.479 52.245C122.429 52.2744 122.38 52.3087 122.336 52.3431C122.307 52.3627 122.282 52.3774 122.253 52.397C122.253 52.397 122.248 52.4019 122.243 52.4068C122.194 52.446 122.149 52.495 122.105 52.5391C122.081 52.5636 122.056 52.5833 122.036 52.6078C122.002 52.647 121.968 52.696 121.938 52.7401C121.914 52.7695 121.889 52.8038 121.869 52.8333C121.85 52.8676 121.835 52.9019 121.815 52.9362C121.791 52.9852 121.761 53.0293 121.742 53.0784C121.732 53.1078 121.722 53.1372 121.712 53.1666C121.693 53.2254 121.673 53.2793 121.658 53.3382C121.658 53.3382 121.658 53.348 121.658 53.3529L119.782 62.3136C119.629 63.044 120.096 63.6323 120.828 63.6323C121.56 63.6323 122.272 63.044 122.425 62.3136L123.618 56.6274L125.22 58.7499C125.22 58.7499 125.229 58.7597 125.234 58.7646C125.239 58.7695 125.244 58.7793 125.249 58.7842C125.269 58.8087 125.298 58.8283 125.318 58.848C125.347 58.8774 125.377 58.9068 125.406 58.9313C125.436 58.9558 125.47 58.9754 125.505 58.995C125.539 59.0146 125.573 59.0391 125.608 59.0538C125.642 59.0685 125.681 59.0783 125.721 59.093C125.76 59.1029 125.794 59.1176 125.834 59.1274C125.873 59.1372 125.917 59.1372 125.957 59.1421C125.996 59.1421 126.04 59.1519 126.079 59.1519C126.124 59.1519 126.163 59.147 126.207 59.1421C126.251 59.1421 126.291 59.1372 126.335 59.1274C126.379 59.1176 126.423 59.1078 126.462 59.093C126.507 59.0832 126.551 59.0685 126.59 59.0538C126.634 59.0391 126.674 59.0146 126.718 58.995C126.762 58.9754 126.801 58.9558 126.846 58.9313C126.89 58.9068 126.929 58.8774 126.968 58.848C127.003 58.8234 127.032 58.8087 127.067 58.7842C127.077 58.7793 127.081 58.7695 127.086 58.7646C127.096 58.7597 127.101 58.7548 127.111 58.7499L129.601 56.6274L128.408 62.3136C128.255 63.044 128.722 63.6323 129.454 63.6323C130.186 63.6323 130.898 63.044 131.051 62.3136L132.927 53.3529C132.927 53.3529 132.927 53.3431 132.927 53.3382C132.937 53.2793 132.942 53.2254 132.947 53.1666L132.957 53.1568Z" fill="#0A0A55"/>
<path d="M115.729 52.0244H106.96C106.233 52.0244 105.516 52.6127 105.364 53.343C105.211 54.0685 105.678 54.6617 106.41 54.6617H109.353L107.751 62.3038C107.599 63.0293 108.066 63.6225 108.793 63.6225C109.52 63.6225 110.237 63.0342 110.389 62.3038L111.99 54.6617H115.174C115.901 54.6617 116.618 54.0734 116.77 53.343C116.922 52.6127 116.456 52.0244 115.724 52.0244H115.729Z" fill="#0A0A55"/>
<path d="M101.163 52.0244H95.2242C94.3743 52.0244 93.5245 52.3725 92.8515 52.9264C92.1785 53.4803 91.6676 54.2597 91.4908 55.1028L90.3511 60.544C90.1743 61.3921 90.3561 62.1666 90.7982 62.7205C91.2354 63.2744 91.9427 63.6225 92.7926 63.6225H98.7316C99.4635 63.6225 100.176 63.0342 100.328 62.3038C100.48 61.5734 100.014 60.9852 99.2817 60.9852H93.3427C93.215 60.9852 93.1217 60.9362 93.0578 60.8578C92.994 60.7744 92.9694 60.6715 92.994 60.544L93.2887 59.1421H99.6747C100.407 59.1421 101.119 58.5538 101.271 57.8234C101.424 57.093 100.957 56.5048 100.225 56.5048H93.8389L94.1336 55.1028C94.1631 54.9754 94.227 54.8725 94.3301 54.7891C94.4333 54.7058 94.5463 54.6617 94.6691 54.6617H100.608C101.34 54.6617 102.052 54.0734 102.205 53.343C102.357 52.6127 101.89 52.0244 101.158 52.0244H101.163Z" fill="#0A0A55"/>
<path fill-rule="evenodd" clip-rule="evenodd" d="M160.676 54.6617C161.408 54.6617 162.125 54.0685 162.273 53.343C162.43 52.6127 161.958 52.0244 161.231 52.0244H157.807H155.646H152.463C151.736 52.0244 151.018 52.6127 150.866 53.343C150.709 54.0734 151.181 54.6617 151.908 54.6617L154.855 54.6617L153.254 62.3038C153.101 63.0342 153.573 63.6225 154.3 63.6225C155.027 63.6225 155.744 63.0293 155.896 62.3038L157.498 54.6617L160.676 54.6617Z" fill="#0A0A55"/>
<path d="M146.815 52.0244H140.876C140.026 52.0244 139.176 52.3725 138.503 52.9264C137.83 53.4803 137.319 54.2597 137.142 55.1028L136.003 60.544C135.826 61.3921 136.007 62.1666 136.45 62.7205C136.887 63.2744 137.594 63.6225 138.444 63.6225H144.383C145.115 63.6225 145.827 63.0342 145.979 62.3038C146.132 61.5734 145.665 60.9852 144.933 60.9852H138.994C138.866 60.9852 138.773 60.9362 138.709 60.8578C138.645 60.7744 138.621 60.6715 138.645 60.544L138.94 59.1421H145.326C146.058 59.1421 146.77 58.5538 146.923 57.8234C147.075 57.093 146.608 56.5048 145.876 56.5048H139.49L139.785 55.1028C139.814 54.9754 139.878 54.8725 139.981 54.7891C140.085 54.7058 140.198 54.6617 140.32 54.6617H146.259C146.991 54.6617 147.704 54.0734 147.856 53.343C148.008 52.6127 147.542 52.0244 146.81 52.0244H146.815Z" fill="#0A0A55"/>
<path d="M74.7447 45.7598C74.2633 45.3529 74.0816 44.9706 74.1946 44.6029C74.3223 44.2402 74.7349 43.8578 75.4325 43.4657C75.9188 43.1421 76.4297 42.7647 76.9553 42.3284C77.6381 41.6421 78.429 41.4215 79.323 41.6764C80.5216 42.0147 80.6395 42.6568 79.6718 43.6127C79.4507 43.8235 79.0823 44.1323 78.5763 44.5392L78.5125 44.6029C77.9918 45.0098 77.476 45.3872 76.9651 45.7402C76.5033 46.0196 76.1055 46.1617 75.7714 46.1617C75.4177 46.1764 75.0739 46.0441 74.7398 45.7598H74.7447ZM76.6605 37.696C76.2725 37.6176 75.9777 37.4117 75.7862 37.0735L75.7665 37.0539C75.6977 36.9411 75.6437 36.8627 75.6044 36.8235C75.2949 36.5 75.2163 36.1862 75.3637 35.8774C75.5111 35.5686 75.8942 35.2892 76.5083 35.0343C78.4142 34.2058 80.0697 33.196 81.4746 32.0049H78.1539C77.1174 32.0049 76.7048 31.549 76.9111 30.6372C77.1174 29.7255 77.7413 29.2696 78.7728 29.2696H84.1027C84.309 28.9902 84.4908 28.7157 84.648 28.4509C85.2178 27.4853 86.0529 27.0637 87.1582 27.1911C88.5238 27.3578 88.8185 28.0245 88.0424 29.1911L88.008 29.2353L87.9736 29.2794H96.5751C97.6116 29.2794 98.0242 29.7353 97.8179 30.647C97.6116 31.5588 96.9877 32.0147 95.9561 32.0147H92.3259C93.1463 33.0245 94.2466 33.9019 95.6221 34.6421C96.3147 34.9509 96.7028 35.2892 96.7765 35.6519C96.8649 36.0441 96.5997 36.5098 95.9856 37.0392C95.5533 37.4019 95.1407 37.6127 94.7428 37.6715C94.3498 37.7157 93.9273 37.6225 93.4656 37.397C92.5077 36.8382 91.6382 36.147 90.8522 35.3382L90.6656 36.1568C90.6164 36.3676 90.5084 36.5343 90.3364 36.6617C90.1645 36.7892 89.9582 36.8529 89.7224 36.8529H82.6978C82.2508 36.8529 81.9216 36.7353 81.7153 36.5049C81.5041 36.2745 81.4451 35.9607 81.5336 35.5686L81.5483 35.5049C80.4578 36.2353 79.2641 36.9019 77.9672 37.5049C77.4907 37.7157 77.0584 37.7843 76.6655 37.7058L76.6605 37.696ZM79.7406 45.9706C79.49 44.9068 80.163 44.3872 81.7644 44.4166H82.0494C82.2409 44.4166 82.3785 44.397 82.4571 44.3529C82.5406 44.3088 82.5946 44.2255 82.6241 44.098L83.3855 40.7549H78.0802C77.0928 40.7549 76.6998 40.3137 76.9012 39.4313C77.0977 38.5637 77.6921 38.1274 78.6795 38.1274H92.7533C93.7407 38.1274 94.1386 38.5637 93.9372 39.4313C93.7358 40.3137 93.1414 40.7549 92.154 40.7549H86.8487L86.0676 44.2058C85.9154 44.8774 85.6943 45.3921 85.4094 45.7402C85.1196 46.1029 84.6873 46.3823 84.1174 46.5833C83.4788 46.8088 82.6094 46.9411 81.5188 46.9853C80.4774 47.0147 79.883 46.6764 79.7406 45.9755V45.9706ZM83.8325 34.2549H89.3736C89.7715 34.2549 89.8649 34.1274 89.6487 33.8774C89.2705 33.3578 88.907 32.7353 88.5434 32.0049H85.7238C84.9575 32.7745 84.2943 33.4019 83.7195 33.8774C83.4052 34.1323 83.4445 34.2549 83.8227 34.2549H83.8325ZM91.0929 46.1176C90.7294 46.0588 90.42 45.8382 90.1596 45.446C90.1007 45.3627 90.0024 45.2353 89.8649 45.0686C89.7175 44.8725 89.6094 44.7255 89.5357 44.6274C89.2115 44.2353 88.9659 43.946 88.7989 43.7647C88.0866 42.9804 88.3568 42.3137 89.6094 41.7647C90.42 41.4166 91.0782 41.4706 91.5793 41.9313C92.3652 42.6862 92.9645 43.3333 93.387 43.8676C93.6916 44.2745 93.7652 44.6323 93.608 44.9411C93.4509 45.25 93.0677 45.5441 92.4635 45.8235C91.9133 46.0784 91.4565 46.1715 91.0929 46.1176Z" fill="#0A0A55"/>
<path d="M104.121 47C103.069 47 102.647 46.5392 102.858 45.6127L104.096 40.1666C103.674 40.2794 103.055 40.4313 102.249 40.6274C101.124 40.8774 100.545 40.5245 100.51 39.5539C100.495 39.049 100.603 38.6568 100.825 38.3774C101.065 38.098 101.468 37.9019 102.033 37.7892C103.035 37.5931 103.944 37.4019 104.764 37.2206L105.555 33.7304H104.337C104.121 34.1912 103.934 34.549 103.782 34.8039C103.497 35.2794 103.197 35.5637 102.883 35.6568C102.568 35.75 102.2 35.6568 101.787 35.3725C101.473 35.147 101.281 34.9362 101.213 34.7402C101.154 34.5 101.232 34.2059 101.439 33.8578C102.033 32.7206 102.603 31.2941 103.153 29.5686C103.458 28.5882 104.091 28.1715 105.059 28.3284C105.904 28.4559 106.208 28.9117 105.968 29.6961C105.924 29.8235 105.855 30.0098 105.756 30.2647C105.658 30.5147 105.589 30.7059 105.545 30.8333H106.213L106.764 28.4166C106.975 27.4902 107.604 27.0294 108.655 27.0294C109.706 27.0294 110.128 27.4902 109.917 28.4166L109.367 30.8333H110.3C110.811 30.8333 111.013 31.0588 110.914 31.5049L110.639 32.7255H115.611L115.905 31.4215H113.493C112.457 31.4215 112.044 30.9608 112.255 30.0343C112.462 29.1225 113.081 28.6666 114.117 28.6666H116.529L116.569 28.5C116.794 27.5049 117.472 27.0049 118.602 27.0049C119.732 27.0049 120.184 27.5049 119.958 28.5L119.919 28.6666H122.522C123.559 28.6666 123.971 29.1225 123.765 30.0343C123.554 30.9608 122.935 31.4215 121.898 31.4215H119.295L119 32.7255H122.562C123.628 32.7255 124.055 33.1961 123.844 34.1323C123.632 35.0735 122.989 35.5392 121.923 35.5392H121.088L120.734 37.0931H121.309C122.36 37.0931 122.783 37.5539 122.571 38.4804C122.36 39.4215 121.726 39.8872 120.675 39.8872H120.1L119.236 43.6911C119.064 44.4509 118.843 45.0294 118.578 45.4362C118.273 45.8725 117.841 46.2009 117.276 46.4264C116.583 46.6813 115.763 46.8382 114.825 46.9117C113.543 46.9411 112.86 46.5392 112.781 45.7108C112.703 45.0784 112.87 44.6176 113.287 44.3235C113.66 44.0686 114.265 43.951 115.09 43.9657H115.281C115.473 43.9657 115.611 43.946 115.689 43.9019C115.773 43.8578 115.827 43.7696 115.861 43.6274L116.711 39.8823H112.698C113.145 40.4313 113.552 40.9951 113.911 41.5882C114.098 41.9509 114.117 42.2696 113.96 42.5343C113.818 42.799 113.508 43.0588 113.017 43.3137C112.457 43.6078 112.005 43.7255 111.671 43.6715C111.312 43.6274 111.042 43.3921 110.855 42.9559C110.615 42.5343 110.399 42.1715 110.197 41.8627C109.991 41.5833 109.952 41.2941 110.084 41C110.212 40.7059 110.477 40.4608 110.87 40.2647L111.627 39.8872H110.291C109.942 39.8872 109.686 39.799 109.524 39.6225C109.362 39.4461 109.318 39.2059 109.392 38.897L109.406 38.8333L107.451 39.3382L106.027 45.6029C105.815 46.5294 105.187 46.9902 104.135 46.9902L104.121 47ZM110.001 37.0931H117.335L117.689 35.5392H111.116C110.654 35.5392 110.31 35.4117 110.079 35.1617C109.848 34.9068 109.78 34.5784 109.873 34.1715L109.971 33.7304H108.704L108.085 36.4657L109.141 36.2353C109.745 36.1078 110.035 36.2941 110.02 36.7843L109.996 37.098L110.001 37.0931Z" fill="#0A0A55"/>
<path d="M136.709 46.9999C135.481 46.9999 134.99 46.4607 135.236 45.3822L136.439 40.0832C134.288 42.2548 132.023 44.0636 129.64 45.5097C129.056 45.8479 128.56 45.9999 128.162 45.9705C127.764 45.9411 127.4 45.7205 127.086 45.2989C126.688 44.794 126.585 44.3479 126.772 43.9509C126.939 43.5587 127.396 43.1715 128.132 42.794C130.672 41.3626 132.863 39.7156 134.7 37.8528H129.803C128.638 37.8528 128.177 37.3332 128.412 36.2989C128.643 35.2744 129.341 34.7646 130.505 34.7646H137.648L139.038 28.6469C139.283 27.5685 140.02 27.0293 141.243 27.0293C142.467 27.0293 142.963 27.5685 142.717 28.6469L141.327 34.7646H148.519C149.683 34.7646 150.145 35.2744 149.914 36.2989C149.678 37.3381 148.98 37.8528 147.816 37.8528H142.918C144.019 39.6617 145.453 41.245 147.217 42.6077C147.826 43.0146 148.13 43.4116 148.14 43.8087C148.14 44.2156 147.821 44.6862 147.177 45.2156C146.632 45.6617 146.136 45.9018 145.699 45.9313C145.281 45.946 144.839 45.7548 144.373 45.3626C142.727 43.9067 141.317 42.1126 140.148 39.9803L138.92 45.3871C138.674 46.4656 137.937 47.0048 136.714 47.0048L136.709 46.9999ZM133.079 33.5195C132.691 33.392 132.445 33.0489 132.332 32.4901C132.19 31.9166 131.979 31.3136 131.694 30.6813C131.227 29.6567 131.63 28.9166 132.917 28.4509C133.904 28.1028 134.602 28.2597 135.005 28.9362C135.226 29.3724 135.447 29.8381 135.663 30.343C135.85 30.794 135.977 31.1273 136.056 31.3528C136.159 31.8136 136.095 32.2058 135.874 32.5195C135.653 32.8332 135.255 33.0979 134.68 33.3087C133.968 33.5636 133.438 33.6322 133.079 33.5195ZM144.766 33.7303C143.734 33.2842 143.611 32.6322 144.397 31.7744C144.874 31.2254 145.468 30.4999 146.185 29.5881C146.971 28.4411 147.939 28.0734 149.083 28.495C150.331 28.9558 150.42 29.7695 149.344 30.9362C149.285 30.9901 149.192 31.0832 149.069 31.2107C148.754 31.5489 148.514 31.7989 148.347 31.9656C148.18 32.1469 147.909 32.4166 147.546 32.7646C147.281 33.0293 147.084 33.2254 146.956 33.3528C146.293 33.9558 145.566 34.0832 144.77 33.7303H144.766Z" fill="#0A0A55"/>
<path d="M156.845 47C155.73 47 155.283 46.5098 155.509 45.5294L156.648 40.5049C156.226 41.0931 155.852 41.5932 155.518 42C154.909 42.6471 154.438 42.9657 154.104 42.9657C153.735 42.9657 153.455 42.6275 153.259 41.9559C153.141 41.5637 153.131 41.2157 153.234 40.9167C153.332 40.6177 153.568 40.2892 153.932 39.9412C155.022 38.848 156.142 37.4608 157.292 35.7745H155.975C154.909 35.7745 154.482 35.299 154.698 34.3431C154.909 33.402 155.553 32.9363 156.619 32.9363H158.363L158.805 30.9804C158.692 30.9951 158.525 31.0147 158.299 31.0441C158.078 31.0735 157.911 31.0931 157.793 31.1078C156.894 31.2059 156.388 30.9069 156.28 30.2059C156.142 29.3382 156.658 28.8186 157.827 28.652C159.635 28.3431 161.295 27.9804 162.808 27.5588C163.3 27.4167 163.693 27.402 163.977 27.5049C164.262 27.6078 164.508 27.8529 164.709 28.2304C165.196 29.1863 164.783 29.8284 163.481 30.1667C163.079 30.25 162.681 30.3333 162.278 30.4167L161.703 32.9412H163.02C164.086 32.9412 164.513 33.4118 164.302 34.348C164.086 35.299 163.442 35.7794 162.376 35.7794H161.06L161.045 35.8431C161.32 36.098 161.885 36.7402 162.73 37.7794C162.98 38.0882 163.074 38.3726 163.015 38.6324C162.956 38.8922 162.744 39.1961 162.376 39.549C161.846 40.0539 161.418 40.2794 161.089 40.2206C160.76 40.1667 160.485 39.8333 160.274 39.2304L159.389 43.1226L158.839 45.5392C158.618 46.5196 157.945 47.0098 156.835 47.0098L156.845 47ZM170.039 46.9804C168.909 46.9804 168.453 46.4902 168.679 45.5098L169.406 42.3137L164.051 43.1569C162.892 43.353 162.327 42.9559 162.366 41.9559C162.396 40.9902 162.975 40.4216 164.115 40.25L170.083 39.3235L171.484 33.1618L172.549 28.4706C172.771 27.4902 173.448 27 174.578 27C175.708 27 176.14 27.4902 175.914 28.4706L173.571 38.7941L174.067 38.7108C175.207 38.5441 175.752 38.9412 175.708 39.8971C175.664 40.8579 175.089 41.4216 173.984 41.5882L172.893 41.7549L172.044 45.5C171.822 46.4804 171.149 46.9706 170.039 46.9706V46.9804ZM166.041 37.5343C166.001 37.4902 165.947 37.4265 165.874 37.3333C165.8 37.2402 165.736 37.1667 165.687 37.1128C165.599 37 165.456 36.8382 165.245 36.6275C165.156 36.5294 165.088 36.451 165.034 36.3971C164.395 35.7647 164.547 35.1373 165.486 34.5049C166.276 33.9706 166.945 33.9461 167.49 34.4216C168.074 34.9412 168.571 35.4461 168.988 35.9363C169.234 36.2598 169.307 36.5588 169.214 36.8382C169.121 37.103 168.855 37.3922 168.423 37.701C167.382 38.4314 166.591 38.3726 166.046 37.5343H166.041ZM168.05 31.9608C168.015 31.9069 167.961 31.8333 167.883 31.7402C167.809 31.6471 167.75 31.5833 167.716 31.5392C167.465 31.2304 167.274 31 167.131 30.8431C166.497 30.201 166.66 29.5588 167.613 28.9314C168.394 28.4265 169.057 28.4216 169.602 28.9118C170.133 29.3873 170.599 29.8775 171.012 30.3824C171.243 30.7059 171.302 31.0147 171.184 31.3088C171.076 31.5735 170.796 31.8578 170.349 32.152C169.317 32.8382 168.551 32.7745 168.05 31.9608Z" fill="#0A0A55"/>
<path d="M178.513 45.6764C178.45 45.1176 178.572 44.7107 178.887 44.4558C179.196 44.2009 179.712 44.0833 180.424 44.098C180.729 44.098 180.911 43.9656 180.97 43.696L181.819 39.9509L181.417 40.0342C180.262 40.2744 179.663 39.9068 179.609 38.9411C179.584 38.4215 179.697 38.0244 179.953 37.7401C180.208 37.4607 180.631 37.2695 181.23 37.1715C181.426 37.1421 181.751 37.0882 182.203 37.0048C182.335 36.9754 182.438 36.9558 182.502 36.9411L183.239 33.7009H182.281C181.215 33.7009 180.788 33.2303 180.999 32.294C181.21 31.3529 181.854 30.8872 182.92 30.8872H183.878L184.423 28.4901C184.644 27.5097 185.322 27.0195 186.452 27.0195C187.582 27.0195 188.014 27.5097 187.788 28.4901L187.243 30.8872H187.817C188.883 30.8872 189.311 31.3578 189.099 32.294C188.888 33.2352 188.245 33.7009 187.179 33.7009H186.604L186.019 36.2646L186.319 36.2009C187.488 35.9607 188.029 36.3529 187.94 37.3774C187.876 38.2205 187.346 38.7597 186.353 38.995C185.921 39.0784 185.587 39.147 185.351 39.2058L184.841 41.4558L184.33 43.7058C184.168 44.4215 183.961 44.9656 183.72 45.348C183.45 45.7548 183.077 46.0686 182.596 46.294C182.06 46.549 181.333 46.7058 180.41 46.7793C179.236 46.8186 178.607 46.4509 178.513 45.6666V45.6764ZM196.664 46.5391C195.353 46.0784 194.13 45.4264 193 44.5833C191.541 45.3284 189.998 45.9509 188.368 46.4558C187.149 46.7793 186.368 46.5539 186.034 45.7842C185.784 45.196 185.823 44.7205 186.142 44.3529C186.457 44.0293 187.031 43.7695 187.871 43.5735C188.982 43.2499 189.998 42.8676 190.932 42.4166C190.19 41.3921 189.61 40.1715 189.183 38.7548C189.104 38.4754 189.134 38.2303 189.276 38.0195C189.419 37.8087 189.659 37.6715 189.994 37.598L190.072 37.5784H190.023C189.05 37.5784 188.667 37.1372 188.864 36.2548C189.08 35.3038 189.704 34.8235 190.74 34.8235H193.634L194.125 32.6568H190.878C189.827 32.6568 189.409 32.1862 189.62 31.2499C189.831 30.3235 190.46 29.8627 191.511 29.8627H194.758L195.063 28.5146C195.289 27.5195 195.977 27.0195 197.121 27.0195C198.266 27.0195 198.703 27.5195 198.477 28.5146L198.173 29.8627H201.685C202.736 29.8627 203.159 30.3235 202.947 31.2499C202.736 32.1911 202.102 32.6568 201.051 32.6568H197.539L197.048 34.8235H200.442C201.572 34.8235 201.842 35.4264 201.248 36.6323C199.931 38.9999 198.246 40.9803 196.198 42.5637C196.925 43.0146 197.706 43.3921 198.546 43.7009C199.337 43.9264 199.799 44.2107 199.926 44.5637C200.059 44.9558 199.823 45.4411 199.214 46.0146C198.521 46.6862 197.667 46.8627 196.66 46.5391H196.664ZM193.982 40.6715C195.26 39.745 196.33 38.7156 197.195 37.5784H192.322C192.685 38.7156 193.241 39.745 193.987 40.6715H193.982Z" fill="#0A0A55"/>
<path d="M24.0508 17H18.5677C14.5108 17 10.4866 20.3047 9.57277 24.3775L9.22855 25.9216C9.13429 26.1953 9.05643 26.4771 8.99087 26.759L0 67H5.48303C9.53999 67 13.5642 63.6953 14.478 59.6225L14.8222 58.0784C14.9165 57.8047 14.9943 57.5229 15.0599 57.241L24.0508 17Z" fill="url(#paint0_linear_2663_10750)"/>
<path d="M57.8567 36.964C56.4207 34.9907 54.0131 34 50.6298 34C48.1294 34 45.8992 34.4488 43.9394 35.3425C42.9595 35.7913 41.9458 36.3938 40.9025 37.1459L39.082 44.6913C40.1591 43.8341 41.3502 43.4055 42.6553 43.4055C43.9605 43.4055 44.9404 43.8139 45.4811 44.6307C46.0259 45.4475 46.0597 46.8385 45.5867 48.8037L41.1939 67H47.1452C50.6383 67 54.068 64.5334 54.8029 61.4885L58.5114 46.1228C59.5082 41.9942 59.2886 38.9453 57.8567 36.968V36.964Z" fill="url(#paint1_linear_2663_10750)"/>
<path d="M33.0695 58C33.0176 58.0427 32.9657 58.0855 32.9098 58.1282C32.4866 58.5324 31.9556 58.8355 31.3807 59.057C30.3786 59.5272 29.2806 59.7992 28.1707 59.8031C25.0047 59.8031 21.9185 60.6386 21.1319 64.1088L20.042 67H26.2463C29.0011 67 31.3887 65.1425 31.9795 62.5389C31.9795 62.5389 32.6343 59.6477 32.6263 59.6477L33.0695 58.0078V58Z" fill="url(#paint2_linear_2663_10750)"/>
<path d="M36.8691 30.0098C35.497 28.0033 33.1968 27 29.9643 27C27.5752 27 25.4445 27.4523 23.572 28.361C22.6438 28.8133 21.6874 29.4177 20.7027 30.1701L19.04 37.7768C20.0409 36.9668 21.1426 36.5557 22.3452 36.5557C23.6244 36.5557 24.5284 36.9709 25.0449 37.7974C25.5655 38.628 25.5978 40.0383 25.1458 42.0366L21.6833 56H27.3694C30.7068 56 33.9837 53.4918 34.6859 50.3998L37.4946 39.3105C38.447 35.1165 38.2372 32.0163 36.8691 30.0098Z" fill="url(#paint3_linear_2663_10750)"/>
<defs>
<linearGradient id="paint0_linear_2663_10750" x1="12.0274" y1="67.4534" x2="12.0274" y2="24.692" gradientUnits="userSpaceOnUse">
<stop stop-color="#00CDFF"/>
<stop offset="1" stop-color="#005FF5"/>
</linearGradient>
<linearGradient id="paint1_linear_2663_10750" x1="55.3436" y1="56.434" x2="55.3436" y2="37.7808" gradientUnits="userSpaceOnUse">
<stop stop-color="#00CDFF"/>
<stop offset="1" stop-color="#005FF5"/>
</linearGradient>
<linearGradient id="paint2_linear_2663_10750" x1="22.5852" y1="67.7383" x2="33.1716" y2="55.307" gradientUnits="userSpaceOnUse">
<stop stop-color="#F5911E"/>
<stop offset="1" stop-color="#DE5FFF"/>
</linearGradient>
<linearGradient id="paint3_linear_2663_10750" x1="32.9183" y1="23.9327" x2="32.9183" y2="50.4163" gradientUnits="userSpaceOnUse">
<stop stop-color="#00CDFF"/>
<stop offset="1" stop-color="#005FF5"/>
</linearGradient>
</defs>
</svg>
