<svg width="120" height="120" viewBox="0 0 120 120" fill="none" xmlns="http://www.w3.org/2000/svg">
<path d="M27.9215 90.0305C29.3568 90.0305 30.5203 88.867 30.5203 87.4318C30.5203 85.9965 29.3568 84.833 27.9215 84.833C26.4863 84.833 25.3228 85.9965 25.3228 87.4318C25.3228 88.867 26.4863 90.0305 27.9215 90.0305Z" fill="white"/>
<path d="M37.0172 90.0305C38.4525 90.0305 39.616 88.867 39.616 87.4318C39.616 85.9965 38.4525 84.833 37.0172 84.833C35.582 84.833 34.4185 85.9965 34.4185 87.4318C34.4185 88.867 35.582 90.0305 37.0172 90.0305Z" fill="white"/>
<path d="M46.1129 90.0305C47.5482 90.0305 48.7117 88.867 48.7117 87.4318C48.7117 85.9965 47.5482 84.833 46.1129 84.833C44.6777 84.833 43.5142 85.9965 43.5142 87.4318C43.5142 88.867 44.6777 90.0305 46.1129 90.0305Z" fill="white"/>
<path d="M83.0326 23H15.465C13.5513 23 12 24.5513 12 26.465V64.58C12 66.4937 13.5513 68.045 15.465 68.045H83.0326C84.9462 68.045 86.4976 66.4937 86.4976 64.58V26.465C86.4976 24.5513 84.9462 23 83.0326 23Z" fill="white"/>
<path d="M80.4337 26.4648H18.0636C16.6283 26.4648 15.4648 27.6283 15.4648 29.0636V61.9811C15.4648 63.4164 16.6283 64.5799 18.0636 64.5799H80.4337C81.8689 64.5799 83.0324 63.4164 83.0324 61.9811V29.0636C83.0324 27.6283 81.8689 26.4648 80.4337 26.4648Z" fill="url(#paint0_linear_2582_2952)"/>
<path d="M23.0186 55.0509C22.0658 55.0509 21.2861 54.2713 21.2861 53.3184V35.1271C21.2861 33.2214 22.8454 31.6621 24.7511 31.6621H52.3499C53.3028 31.6621 54.0824 32.4417 54.0824 33.3946C54.0824 34.3475 53.3028 35.1271 52.3499 35.1271H24.7511V53.3184C24.7511 54.2713 23.9715 55.0509 23.0186 55.0509Z" fill="white"/>
<path d="M58.6564 66.3125H36.3765V74.975H58.6564V66.3125Z" fill="url(#paint1_linear_2582_2952)"/>
<path d="M60.51 76.7076H34.5225V64.5801H60.51V76.7076ZM38.23 73.2426H56.7851V68.0451H38.23V73.2426Z" fill="white"/>
<path d="M58.7773 76.7072H29.3248C28.3719 76.7072 27.5923 75.9276 27.5923 74.9747C27.5923 74.0218 28.3719 73.2422 29.3248 73.2422H58.7773C59.7302 73.2422 60.5098 74.0218 60.5098 74.9747C60.5098 75.9276 59.7302 76.7072 58.7773 76.7072Z" fill="white"/>
<path d="M56.4214 76.5167C56.4214 71.9082 57.998 67.577 60.7526 64.2679C60.8912 64.1293 61.0472 63.9734 61.0472 63.8348C64.079 60.2312 68.5489 57.6324 73.5905 56.9221H73.7291C85.2502 55.3455 96.061 64.5624 96.061 76.5167C96.061 81.1251 94.4845 85.4564 91.7298 88.7655C91.5912 88.9041 91.4352 89.06 91.4352 89.1986C88.6979 92.5077 84.5226 95.1064 79.7582 95.9727C79.1865 96.1113 78.7533 96.1113 78.7533 96.1113C78.1816 96.2499 77.3154 96.2499 76.7436 96.2499C65.2225 96.5444 56.4214 87.3102 56.4214 76.4994V76.5167Z" fill="url(#paint2_linear_2582_2952)"/>
<path d="M76.172 98C70.5414 98 65.2226 95.8517 61.2032 91.9362C57.0625 87.8995 54.7063 82.2862 54.689 76.5343C54.689 71.6313 56.3348 66.9535 59.3147 63.298V63.2113L59.7305 62.7262C63.1262 58.6895 68.0985 55.9521 73.3653 55.2072H73.6079C79.533 54.3756 85.7007 56.264 90.3958 60.37C95.1082 64.4761 97.8109 70.3666 97.8109 76.5169C97.8109 81.4026 96.1651 86.0977 93.1852 89.7533V89.8226L92.7867 90.3077C89.6509 94.1018 85.0251 96.7872 80.0874 97.6881C79.637 97.7921 79.2385 97.8267 78.996 97.844C78.251 97.9826 77.3674 97.9826 76.7784 97.9826C76.5878 97.9826 76.3972 97.9826 76.2066 97.9826L76.172 98ZM58.154 76.4996C58.154 81.3333 60.1463 86.0457 63.6114 89.4414C67.0937 92.8371 71.7714 94.6562 76.6917 94.5176C77.1595 94.5176 77.9738 94.5176 78.3376 94.431L78.7534 94.379C78.7534 94.379 79.0133 94.379 79.3425 94.2924C83.4831 93.5301 87.2773 91.3818 89.8934 88.3153C90.0667 87.9515 90.3265 87.6916 90.4825 87.5356C92.908 84.6077 94.3113 80.6403 94.3113 76.4996C94.3113 71.3368 92.0417 66.4165 88.0916 62.9514C84.1415 59.5038 78.9786 57.9272 73.9544 58.6202H73.7118C69.4845 59.2266 65.3958 61.4442 62.5545 64.7013C62.3813 65.0651 62.1214 65.325 61.9655 65.4809C59.54 68.4088 58.154 72.3589 58.1366 76.4823L58.154 76.4996Z" fill="white"/>
<path d="M76.4666 78.1451C73.1229 78.1451 70.4028 75.4251 70.4028 72.0813C70.4028 68.7376 73.1229 66.0176 76.4666 66.0176C79.8103 66.0176 82.5303 68.7376 82.5303 72.0813C82.5303 73.0342 81.7507 73.8138 80.7978 73.8138C79.845 73.8138 79.0653 73.0342 79.0653 72.0813C79.0653 70.6434 77.9046 69.4826 76.4666 69.4826C75.0286 69.4826 73.8678 70.6434 73.8678 72.0813C73.8678 73.5193 75.0286 74.6801 76.4666 74.6801C77.4195 74.6801 78.1991 75.4597 78.1991 76.4126C78.1991 77.3655 77.4195 78.1451 76.4666 78.1451Z" fill="white"/>
<path d="M76.4666 86.8082C73.1229 86.8082 70.4028 84.0882 70.4028 80.7444C70.4028 79.7915 71.1825 79.0119 72.1353 79.0119C73.0882 79.0119 73.8678 79.7915 73.8678 80.7444C73.8678 82.1824 75.0286 83.3432 76.4666 83.3432C77.9046 83.3432 79.0653 82.1824 79.0653 80.7444C79.0653 79.3064 77.9046 78.1457 76.4666 78.1457C75.5137 78.1457 74.7341 77.366 74.7341 76.4132C74.7341 75.4603 75.5137 74.6807 76.4666 74.6807C79.8103 74.6807 82.5303 77.4007 82.5303 80.7444C82.5303 84.0882 79.8103 86.8082 76.4666 86.8082Z" fill="white"/>
<path d="M76.4664 69.4827C75.5135 69.4827 74.7339 68.7031 74.7339 67.7502V65.1514C74.7339 64.1986 75.5135 63.4189 76.4664 63.4189C77.4193 63.4189 78.1989 64.1986 78.1989 65.1514V67.7502C78.1989 68.7031 77.4193 69.4827 76.4664 69.4827Z" fill="white"/>
<path d="M76.4664 89.3892C75.5135 89.3892 74.7339 88.6096 74.7339 87.6567V85.0753C74.7339 84.1224 75.5135 83.3428 76.4664 83.3428C77.4193 83.3428 78.1989 84.1224 78.1989 85.0753V87.6567C78.1989 88.6096 77.4193 89.3892 76.4664 89.3892Z" fill="white"/>
<path d="M103.825 41C103.825 40.0335 103.041 39.25 102.075 39.25C101.109 39.25 100.325 40.0335 100.325 41C100.325 45.6035 96.6035 49.325 92 49.325C91.0335 49.325 90.25 50.1085 90.25 51.075C90.25 52.0415 91.0335 52.825 92 52.825C96.6035 52.825 100.325 56.5465 100.325 61.15C100.325 62.1165 101.109 62.9 102.075 62.9C103.041 62.9 103.825 62.1165 103.825 61.15C103.825 56.5465 107.546 52.825 112.15 52.825C113.116 52.825 113.9 52.0415 113.9 51.075C113.9 50.1085 113.116 49.325 112.15 49.325C107.546 49.325 103.825 45.6035 103.825 41Z" fill="url(#paint3_linear_2582_2952)" stroke="white" stroke-width="3.5" stroke-linejoin="round"/>
<path d="M85.7885 30C85.7885 29.3096 85.2288 28.75 84.5385 28.75C83.8481 28.75 83.2885 29.3096 83.2885 30C83.2885 32.3716 81.3716 34.2885 79 34.2885C78.3096 34.2885 77.75 34.8481 77.75 35.5385C77.75 36.2288 78.3096 36.7885 79 36.7885C81.3716 36.7885 83.2885 38.7053 83.2885 41.0769C83.2885 41.7673 83.8481 42.3269 84.5385 42.3269C85.2288 42.3269 85.7885 41.7673 85.7885 41.0769C85.7885 38.7053 87.7053 36.7885 90.0769 36.7885C90.7673 36.7885 91.3269 36.2288 91.3269 35.5385C91.3269 34.8481 90.7673 34.2885 90.0769 34.2885C87.7053 34.2885 85.7885 32.3716 85.7885 30Z" fill="url(#paint4_linear_2582_2952)" stroke="white" stroke-width="2.5" stroke-linejoin="round"/>
<defs>
<linearGradient id="paint0_linear_2582_2952" x1="49.2486" y1="25" x2="49.2486" y2="95.5" gradientUnits="userSpaceOnUse">
<stop stop-color="#005FF5"/>
<stop offset="1" stop-color="#00CDFF"/>
</linearGradient>
<linearGradient id="paint1_linear_2582_2952" x1="47.5164" y1="25" x2="47.5164" y2="95" gradientUnits="userSpaceOnUse">
<stop offset="0.1" stop-color="#005FF5"/>
<stop offset="1" stop-color="#00CDFF"/>
</linearGradient>
<linearGradient id="paint2_linear_2582_2952" x1="76.2412" y1="25" x2="76.2412" y2="96.2567" gradientUnits="userSpaceOnUse">
<stop stop-color="#005FF5"/>
<stop offset="1" stop-color="#00CDFF"/>
</linearGradient>
<linearGradient id="paint3_linear_2582_2952" x1="102.075" y1="21.8995" x2="102.075" y2="93" gradientUnits="userSpaceOnUse">
<stop stop-color="#005FF5"/>
<stop offset="1" stop-color="#00CDFF"/>
</linearGradient>
<linearGradient id="paint4_linear_2582_2952" x1="84.5385" y1="25" x2="84.5385" y2="96.5" gradientUnits="userSpaceOnUse">
<stop stop-color="#005FF5"/>
<stop offset="1" stop-color="#00CDFF"/>
</linearGradient>
</defs>
</svg>
