<svg width="120" height="120" viewBox="0 0 120 120" fill="none" xmlns="http://www.w3.org/2000/svg">
<path d="M112.222 23.0771H24.3927C22.1366 23.0771 20.3076 24.9139 20.3076 27.1797V92.8207C20.3076 95.0865 22.1366 96.9233 24.3927 96.9233H112.222C114.479 96.9233 116.308 95.0865 116.308 92.8207V27.1797C116.308 24.9139 114.479 23.0771 112.222 23.0771Z" fill="white"/>
<path d="M108.893 39.4873H27.7219C25.8832 39.4873 24.3926 40.9843 24.3926 42.8309V89.4771C24.3926 91.3237 25.8832 92.8207 27.7219 92.8207H108.893C110.732 92.8207 112.222 91.3237 112.222 89.4771V42.8309C112.222 40.9843 110.732 39.4873 108.893 39.4873Z" fill="url(#paint0_linear_2582_2967)"/>
<path d="M98 47H38C35.8 47 34 48.8 34 51V77C34 79.2 35.8 81 38 81H98C100.2 81 102 79.2 102 77V51C102 48.8 100.2 47 98 47Z" fill="url(#paint1_linear_2582_2967)"/>
<path d="M98 83H38C34.7 83 32 80.3 32 77V51C32 47.7 34.7 45 38 45H98C101.3 45 104 47.7 104 51V77C104 80.3 101.3 83 98 83ZM38 49C36.9 49 36 49.9 36 51V77C36 78.1 36.9 79 38 79H98C99.1 79 100 78.1 100 77V51C100 49.9 99.1 49 98 49H38Z" fill="white"/>
<path d="M98 90H38C35.8 90 34 91.8 34 94V106C34 108.2 35.8 110 38 110H98C100.2 110 102 108.2 102 106V94C102 91.8 100.2 90 98 90Z" fill="url(#paint2_linear_2582_2967)"/>
<path d="M98 112H38C34.7 112 32 109.3 32 106V94C32 90.7 34.7 88 38 88H98C101.3 88 104 90.7 104 94V106C104 109.3 101.3 112 98 112ZM38 92C36.9 92 36 92.9 36 94V106C36 107.1 36.9 108 38 108H98C99.1 108 100 107.1 100 106V94C100 92.9 99.1 92 98 92H38Z" fill="white"/>
<path d="M28.8656 34.7486C30.5577 34.7486 31.9294 33.371 31.9294 31.6717C31.9294 29.9723 30.5577 28.5947 28.8656 28.5947C27.1735 28.5947 25.8018 29.9723 25.8018 31.6717C25.8018 33.371 27.1735 34.7486 28.8656 34.7486Z" fill="#005FF5"/>
<path d="M39.5892 34.7486C41.2813 34.7486 42.653 33.371 42.653 31.6717C42.653 29.9723 41.2813 28.5947 39.5892 28.5947C37.8971 28.5947 36.5254 29.9723 36.5254 31.6717C36.5254 33.371 37.8971 34.7486 39.5892 34.7486Z" fill="#005FF5"/>
<path d="M50.3129 34.7486C52.005 34.7486 53.3767 33.371 53.3767 31.6717C53.3767 29.9723 52.005 28.5947 50.3129 28.5947C48.6207 28.5947 47.249 29.9723 47.249 31.6717C47.249 33.371 48.6207 34.7486 50.3129 34.7486Z" fill="#005FF5"/>
<path d="M21.7498 84.0771C21.7498 83.1107 20.9663 82.3271 19.9998 82.3271C19.0333 82.3271 18.2498 83.1107 18.2498 84.0771C18.2498 89.2346 14.0803 93.4041 8.92285 93.4041C7.95635 93.4041 7.17285 94.1876 7.17285 95.1541C7.17285 96.1206 7.95635 96.9041 8.92285 96.9041C14.0803 96.9041 18.2498 101.074 18.2498 106.231C18.2498 107.197 19.0333 107.981 19.9998 107.981C20.9663 107.981 21.7498 107.197 21.7498 106.231C21.7498 101.074 25.9192 96.9041 31.0767 96.9041C32.0432 96.9041 32.8267 96.1206 32.8267 95.1541C32.8267 94.1876 32.0432 93.4041 31.0767 93.4041C25.9192 93.4041 21.7498 89.2346 21.7498 84.0771Z" fill="url(#paint3_linear_2582_2967)" stroke="white" stroke-width="3.5" stroke-linejoin="round"/>
<path d="M10.4808 70C10.4808 69.3096 9.9212 68.75 9.23084 68.75C8.54049 68.75 7.98084 69.3096 7.98084 70C7.98084 72.3716 6.064 74.2885 3.69238 74.2885C3.00203 74.2885 2.44238 74.8481 2.44238 75.5385C2.44238 76.2288 3.00203 76.7885 3.69238 76.7885C6.064 76.7885 7.98084 78.7053 7.98084 81.0769C7.98084 81.7673 8.54049 82.3269 9.23084 82.3269C9.9212 82.3269 10.4808 81.7673 10.4808 81.0769C10.4808 78.7053 12.3977 76.7885 14.7693 76.7885C15.4597 76.7885 16.0193 76.2288 16.0193 75.5385C16.0193 74.8481 15.4597 74.2885 14.7693 74.2885C12.3977 74.2885 10.4808 72.3716 10.4808 70Z" fill="url(#paint4_linear_2582_2967)" stroke="white" stroke-width="2.5" stroke-linejoin="round"/>
<defs>
<linearGradient id="paint0_linear_2582_2967" x1="68.3075" y1="39.4873" x2="68.3075" y2="92.8207" gradientUnits="userSpaceOnUse">
<stop stop-color="#005FF5"/>
<stop offset="1" stop-color="#00CDFF"/>
</linearGradient>
<linearGradient id="paint1_linear_2582_2967" x1="68" y1="37" x2="68" y2="95" gradientUnits="userSpaceOnUse">
<stop stop-color="#005FF5"/>
<stop offset="1" stop-color="#00CDFF"/>
</linearGradient>
<linearGradient id="paint2_linear_2582_2967" x1="68" y1="37.5" x2="68" y2="98.5" gradientUnits="userSpaceOnUse">
<stop stop-color="#005FF5"/>
<stop offset="1" stop-color="#00CDFF"/>
</linearGradient>
<linearGradient id="paint3_linear_2582_2967" x1="19.9998" y1="38.5" x2="19.9998" y2="112.885" gradientUnits="userSpaceOnUse">
<stop stop-color="#005FF5"/>
<stop offset="1" stop-color="#00CDFF"/>
</linearGradient>
<linearGradient id="paint4_linear_2582_2967" x1="9.23085" y1="38" x2="9.23085" y2="97" gradientUnits="userSpaceOnUse">
<stop stop-color="#005FF5"/>
<stop offset="1" stop-color="#00CDFF"/>
</linearGradient>
</defs>
</svg>
