<svg width="390" height="600" viewBox="0 0 390 600" fill="none" xmlns="http://www.w3.org/2000/svg">
<g clip-path="url(#clip0_2671_15061)">
<path d="M90.0169 598.772C255.015 598.772 388.772 465.015 388.772 300.017C388.772 135.019 255.015 1.26172 90.0169 1.26172C-74.981 1.26172 -208.738 135.019 -208.738 300.017C-208.738 465.015 -74.981 598.772 90.0169 598.772Z" stroke="url(#paint0_linear_2671_15061)" stroke-width="0.75" stroke-miterlimit="10"/>
<path d="M84.3394 580.017C242.114 580.017 370.016 452.115 370.016 294.34C370.016 136.566 242.114 8.66406 84.3394 8.66406C-73.4352 8.66406 -201.337 136.566 -201.337 294.34C-201.337 452.115 -73.4352 580.017 84.3394 580.017Z" stroke="url(#paint1_linear_2671_15061)" stroke-width="0.72" stroke-miterlimit="10"/>
<path d="M78.6639 561.295C229.234 561.295 351.295 439.234 351.295 288.664C351.295 138.094 229.234 16.0332 78.6639 16.0332C-71.9059 16.0332 -193.967 138.094 -193.967 288.664C-193.967 439.234 -71.9059 561.295 78.6639 561.295Z" stroke="url(#paint2_linear_2671_15061)" stroke-width="0.69" stroke-miterlimit="10"/>
<path d="M73.0206 542.572C216.367 542.572 332.572 426.367 332.572 283.021C332.572 139.674 216.367 23.4688 73.0206 23.4688C-70.3259 23.4688 -186.531 139.674 -186.531 283.021C-186.531 426.367 -70.3259 542.572 73.0206 542.572Z" stroke="url(#paint3_linear_2671_15061)" stroke-width="0.66" stroke-miterlimit="10"/>
<path d="M67.3441 523.817C203.467 523.817 313.817 413.467 313.817 277.344C313.817 141.221 203.467 30.8711 67.3441 30.8711C-68.7792 30.8711 -179.129 141.221 -179.129 277.344C-179.129 413.467 -68.7792 523.817 67.3441 523.817Z" stroke="url(#paint4_linear_2671_15061)" stroke-width="0.62" stroke-miterlimit="10"/>
<path d="M61.6676 505.062C190.568 505.062 295.062 400.568 295.062 271.668C295.062 142.768 190.568 38.2734 61.6676 38.2734C-67.2324 38.2734 -171.727 142.768 -171.727 271.668C-171.727 400.568 -67.2324 505.062 61.6676 505.062Z" stroke="url(#paint5_linear_2671_15061)" stroke-width="0.59" stroke-miterlimit="10"/>
<path d="M56.0243 486.373C177.719 486.373 276.373 387.719 276.373 266.024C276.373 144.329 177.719 45.6758 56.0243 45.6758C-65.6708 45.6758 -164.324 144.329 -164.324 266.024C-164.324 387.719 -65.6708 486.373 56.0243 486.373Z" stroke="url(#paint6_linear_2671_15061)" stroke-width="0.56" stroke-miterlimit="10"/>
<path d="M50.3478 467.618C164.82 467.618 257.618 374.82 257.618 260.348C257.618 145.876 164.82 53.0781 50.3478 53.0781C-64.1241 53.0781 -156.922 145.876 -156.922 260.348C-156.922 374.82 -64.1241 467.618 50.3478 467.618Z" stroke="url(#paint7_linear_2671_15061)" stroke-width="0.53" stroke-miterlimit="10"/>
<path d="M44.7055 448.897C151.954 448.897 238.896 361.955 238.896 254.707C238.896 147.458 151.954 60.5156 44.7055 60.5156C-62.5431 60.5156 -149.485 147.458 -149.485 254.707C-149.485 361.955 -62.5431 448.897 44.7055 448.897Z" stroke="url(#paint8_linear_2671_15061)" stroke-width="0.5" stroke-miterlimit="10"/>
<path d="M39.029 430.142C139.054 430.142 220.141 349.055 220.141 249.03C220.141 149.005 139.054 67.918 39.029 67.918C-60.9964 67.918 -142.083 149.005 -142.083 249.03C-142.083 349.055 -60.9964 430.142 39.029 430.142Z" stroke="url(#paint9_linear_2671_15061)" stroke-width="0.47" stroke-miterlimit="10"/>
<path d="M33.3525 411.387C126.155 411.387 201.386 336.156 201.386 243.354C201.386 150.551 126.155 75.3203 33.3525 75.3203C-59.4497 75.3203 -134.681 150.551 -134.681 243.354C-134.681 336.156 -59.4497 411.387 33.3525 411.387Z" stroke="url(#paint10_linear_2671_15061)" stroke-width="0.44" stroke-miterlimit="10"/>
<path d="M27.7102 392.698C113.307 392.698 182.698 323.307 182.698 237.71C182.698 152.113 113.307 82.7227 27.7102 82.7227C-57.887 82.7227 -127.277 152.113 -127.277 237.71C-127.277 323.307 -57.887 392.698 27.7102 392.698Z" stroke="url(#paint11_linear_2671_15061)" stroke-width="0.41" stroke-miterlimit="10"/>
<path d="M22.0327 373.942C100.407 373.942 163.941 310.408 163.941 232.034C163.941 153.66 100.407 90.125 22.0327 90.125C-56.3413 90.125 -119.876 153.66 -119.876 232.034C-119.876 310.408 -56.3413 373.942 22.0327 373.942Z" stroke="url(#paint12_linear_2671_15061)" stroke-width="0.38" stroke-miterlimit="10"/>
<path d="M16.3572 355.187C87.508 355.187 145.187 297.508 145.187 226.357C145.187 155.206 87.508 97.5273 16.3572 97.5273C-54.7935 97.5273 -112.473 155.206 -112.473 226.357C-112.473 297.508 -54.7935 355.187 16.3572 355.187Z" stroke="url(#paint13_linear_2671_15061)" stroke-width="0.34" stroke-miterlimit="10"/>
<path d="M59.1393 325.861C117.225 299.119 142.635 230.353 115.894 172.267C89.153 114.181 20.387 88.7714 -37.699 115.513C-95.785 142.254 -121.195 211.02 -94.4539 269.106C-67.7128 327.192 1.05324 352.602 59.1393 325.861Z" stroke="url(#paint14_linear_2671_15061)" stroke-width="0.31" stroke-miterlimit="10"/>
<path d="M5.03741 317.743C61.76 317.743 107.743 271.76 107.743 215.037C107.743 158.315 61.76 112.332 5.03741 112.332C-51.6852 112.332 -97.668 158.315 -97.668 215.037C-97.668 271.76 -51.6852 317.743 5.03741 317.743Z" stroke="url(#paint15_linear_2671_15061)" stroke-width="0.28" stroke-miterlimit="10"/>
<path d="M-0.639069 299.021C48.8603 299.021 88.9875 258.894 88.9875 209.394C88.9875 159.895 48.8603 119.768 -0.639069 119.768C-50.1384 119.768 -90.2656 159.895 -90.2656 209.394C-90.2656 258.894 -50.1384 299.021 -0.639069 299.021Z" stroke="url(#paint16_linear_2671_15061)" stroke-width="0.25" stroke-miterlimit="10"/>
</g>
<defs>
<linearGradient id="paint0_linear_2671_15061" x1="90.0169" y1="0.000307976" x2="90.0169" y2="600" gradientUnits="userSpaceOnUse">
<stop stop-color="#00CDFF"/>
<stop offset="1" stop-color="#005FF5"/>
</linearGradient>
<linearGradient id="paint1_linear_2671_15061" x1="56.2233" y1="8.83004" x2="112.456" y2="579.851" gradientUnits="userSpaceOnUse">
<stop stop-color="#00CDFF"/>
<stop offset="1" stop-color="#005FF5"/>
</linearGradient>
<linearGradient id="paint2_linear_2671_15061" x1="25.2531" y1="20.1162" x2="132.075" y2="557.212" gradientUnits="userSpaceOnUse">
<stop stop-color="#00CDFF"/>
<stop offset="1" stop-color="#005FF5"/>
</linearGradient>
<linearGradient id="paint3_linear_2671_15061" x1="-2.66405" y1="33.5268" x2="148.672" y2="532.481" gradientUnits="userSpaceOnUse">
<stop stop-color="#00CDFF"/>
<stop offset="1" stop-color="#005FF5"/>
</linearGradient>
<linearGradient id="paint4_linear_2671_15061" x1="-27.3945" y1="48.6304" x2="162.083" y2="506.058" gradientUnits="userSpaceOnUse">
<stop stop-color="#00CDFF"/>
<stop offset="1" stop-color="#005FF5"/>
</linearGradient>
<linearGradient id="paint5_linear_2671_15061" x1="-48.8386" y1="64.929" x2="172.207" y2="478.439" gradientUnits="userSpaceOnUse">
<stop stop-color="#00CDFF"/>
<stop offset="1" stop-color="#005FF5"/>
</linearGradient>
<linearGradient id="paint6_linear_2671_15061" x1="-66.93" y1="82.0243" x2="178.946" y2="450.024" gradientUnits="userSpaceOnUse">
<stop stop-color="#00CDFF"/>
<stop offset="1" stop-color="#005FF5"/>
</linearGradient>
<linearGradient id="paint7_linear_2671_15061" x1="-81.702" y1="99.4516" x2="182.398" y2="421.244" gradientUnits="userSpaceOnUse">
<stop stop-color="#00CDFF"/>
<stop offset="1" stop-color="#005FF5"/>
</linearGradient>
<linearGradient id="paint8_linear_2671_15061" x1="-93.2198" y1="116.781" x2="182.598" y2="392.599" gradientUnits="userSpaceOnUse">
<stop stop-color="#00CDFF"/>
<stop offset="1" stop-color="#005FF5"/>
</linearGradient>
<linearGradient id="paint9_linear_2671_15061" x1="-101.585" y1="133.611" x2="179.643" y2="364.416" gradientUnits="userSpaceOnUse">
<stop stop-color="#00CDFF"/>
<stop offset="1" stop-color="#005FF5"/>
</linearGradient>
<linearGradient id="paint10_linear_2671_15061" x1="-106.996" y1="149.578" x2="173.701" y2="337.129" gradientUnits="userSpaceOnUse">
<stop stop-color="#00CDFF"/>
<stop offset="1" stop-color="#005FF5"/>
</linearGradient>
<linearGradient id="paint11_linear_2671_15061" x1="-109.618" y1="164.316" x2="165.005" y2="311.071" gradientUnits="userSpaceOnUse">
<stop stop-color="#00CDFF"/>
<stop offset="1" stop-color="#005FF5"/>
</linearGradient>
<linearGradient id="paint12_linear_2671_15061" x1="-109.685" y1="177.461" x2="153.751" y2="286.606" gradientUnits="userSpaceOnUse">
<stop stop-color="#00CDFF"/>
<stop offset="1" stop-color="#005FF5"/>
</linearGradient>
<linearGradient id="paint13_linear_2671_15061" x1="-107.493" y1="188.78" x2="140.241" y2="263.934" gradientUnits="userSpaceOnUse">
<stop stop-color="#00CDFF"/>
<stop offset="1" stop-color="#005FF5"/>
</linearGradient>
<linearGradient id="paint14_linear_2671_15061" x1="-103.393" y1="197.999" x2="124.757" y2="243.376" gradientUnits="userSpaceOnUse">
<stop stop-color="#00CDFF"/>
<stop offset="1" stop-color="#005FF5"/>
</linearGradient>
<linearGradient id="paint15_linear_2671_15061" x1="-97.6348" y1="204.913" x2="107.71" y2="225.162" gradientUnits="userSpaceOnUse">
<stop stop-color="#00CDFF"/>
<stop offset="1" stop-color="#005FF5"/>
</linearGradient>
<linearGradient id="paint16_linear_2671_15061" x1="-90.664" y1="209.394" x2="89.419" y2="209.394" gradientUnits="userSpaceOnUse">
<stop stop-color="#00CDFF"/>
<stop offset="1" stop-color="#005FF5"/>
</linearGradient>
<clipPath id="clip0_2671_15061">
<rect width="600" height="600" fill="white" transform="translate(-210)"/>
</clipPath>
</defs>
</svg>
