<svg width="144" height="12" viewBox="0 0 144 12" fill="none" xmlns="http://www.w3.org/2000/svg">
<path d="M18.44 6.84C18.68 7.08 18.8 7.38 18.8 7.7V9.1C18.8 9.42 18.68 9.72 18.44 9.96L16.76 11.64C16.52 11.88 16.22 12 15.9 12H1.64C1.5 12 1.4 11.9 1.4 11.76V8.64C1.4 8.5 1.5 8.4 1.64 8.4H2.5C2.56 8.4 2.62 8.42 2.68 8.48L3.72 9.52C3.78 9.58 3.84 9.6 3.9 9.6H16.16C16.3 9.6 16.4 9.5 16.4 9.36V7.44C16.4 7.3 16.3 7.2 16.16 7.2H3.7C3.38 7.2 3.08 7.08 2.84 6.84L1.16 5.16C0.92 4.92 0.8 4.62 0.8 4.3V2.9C0.8 2.58 0.92 2.28 1.16 2.04L2.84 0.36C3.08 0.119999 3.38 -4.76837e-07 3.7 -4.76837e-07H17.96C18.1 -4.76837e-07 18.2 0.0999994 18.2 0.24V3.36C18.2 3.5 18.1 3.6 17.96 3.6H17.1C17.04 3.6 16.98 3.58 16.92 3.52L15.88 2.48C15.82 2.42 15.76 2.4 15.7 2.4H3.44C3.3 2.4 3.2 2.5 3.2 2.64V4.56C3.2 4.7 3.3 4.8 3.44 4.8H15.9C16.22 4.8 16.52 4.92 16.76 5.16L18.44 6.84ZM38.4094 2.16C38.4094 2.3 38.3094 2.4 38.1694 2.4H21.8494C21.7094 2.4 21.6094 2.5 21.6094 2.64V3.5C21.6094 3.56 21.6294 3.62 21.6894 3.68L22.7294 4.72C22.7894 4.78 22.8494 4.8 22.9094 4.8H36.9694C37.1094 4.8 37.2094 4.9 37.2094 5.04V6.96C37.2094 7.1 37.1094 7.2 36.9694 7.2H21.8494C21.7094 7.2 21.6094 7.3 21.6094 7.44V8.3C21.6094 8.36 21.6294 8.42 21.6894 8.48L22.7294 9.52C22.7894 9.58 22.8494 9.6 22.9094 9.6H38.1694C38.3094 9.6 38.4094 9.7 38.4094 9.84V11.76C38.4094 11.9 38.3094 12 38.1694 12H20.6494C20.5094 12 20.4094 11.9 20.4094 11.76V0.24C20.4094 0.0999994 20.5094 -4.76837e-07 20.6494 -4.76837e-07H38.1694C38.3094 -4.76837e-07 38.4094 0.0999994 38.4094 0.24V2.16ZM55.3788 6C55.5188 6 55.6188 5.9 55.6188 5.76V2.64C55.6188 2.5 55.5188 2.4 55.3788 2.4H41.4588C41.3188 2.4 41.2188 2.5 41.2188 2.64V3.5C41.2188 3.56 41.2388 3.62 41.2988 3.68L42.3388 4.72C42.3988 4.78 42.4188 4.84 42.4188 4.9V5.76C42.4188 5.9 42.5188 6 42.6588 6H55.3788ZM40.0188 11.76V0.24C40.0188 0.0999994 40.1188 -4.76837e-07 40.2588 -4.76837e-07H55.1188C55.4388 -4.76837e-07 55.7388 0.119999 55.9788 0.36L57.6588 2.04C57.8988 2.28 58.0188 2.58 58.0188 2.9V5.5C58.0188 5.82 57.8988 6.12 57.6588 6.36L55.9788 7.84C55.7388 8.08 55.4388 8.2 55.1188 8.2H52.9988C52.8788 8.2 52.8388 8.38 52.9588 8.44L57.8588 10.38C57.9588 10.42 58.0188 10.5 58.0188 10.6V11.76C58.0188 11.9 57.9188 12 57.7788 12H55.7188C55.6588 12 55.5788 11.98 55.5188 11.96L47.1588 8.24C47.0988 8.22 47.0388 8.2 46.9788 8.2H42.6588C42.5188 8.2 42.4188 8.3 42.4188 8.44V11.76C42.4188 11.9 42.3188 12 42.1788 12H40.2588C40.1188 12 40.0188 11.9 40.0188 11.76ZM68.5881 11.92L59.4881 1.06C59.4481 1.02 59.4281 0.959999 59.4281 0.9V0.24C59.4281 0.0999994 59.5281 -4.76837e-07 59.6681 -4.76837e-07H61.7081C61.7881 -4.76837e-07 61.8481 0.039999 61.9081 0.0799997L69.8081 9.52C69.8481 9.56 69.9281 9.6 69.9881 9.6H71.0681C71.1281 9.6 71.2081 9.56 71.2481 9.52L79.1481 0.0799997C79.2081 0.039999 79.2681 -4.76837e-07 79.3481 -4.76837e-07H81.3881C81.5281 -4.76837e-07 81.6281 0.0999994 81.6281 0.24V0.9C81.6281 0.959999 81.6081 1.02 81.5681 1.06L72.4681 11.92C72.4081 11.96 72.3481 12 72.2681 12H68.7881C68.7081 12 68.6481 11.96 68.5881 11.92ZM85.1866 12H83.2666C83.1266 12 83.0266 11.9 83.0266 11.76V0.24C83.0266 0.0999994 83.1266 -4.76837e-07 83.2666 -4.76837e-07H85.1866C85.3266 -4.76837e-07 85.4266 0.0999994 85.4266 0.24V11.76C85.4266 11.9 85.3266 12 85.1866 12ZM89.0705 0.36C89.3105 0.119999 89.6105 -4.76837e-07 89.9305 -4.76837e-07H104.79C104.93 -4.76837e-07 105.03 0.0999994 105.03 0.24V3.36C105.03 3.5 104.93 3.6 104.79 3.6H103.93C103.87 3.6 103.81 3.58 103.75 3.52L102.71 2.48C102.65 2.42 102.59 2.4 102.53 2.4H88.4705C88.3305 2.4 88.2305 2.5 88.2305 2.64V3.5C88.2305 3.56 88.2505 3.62 88.3105 3.68L89.3505 4.72C89.4105 4.78 89.4305 4.84 89.4305 4.9V9.36C89.4305 9.5 89.5305 9.6 89.6705 9.6H102.53C102.59 9.6 102.65 9.58 102.71 9.52L103.75 8.48C103.81 8.42 103.87 8.4 103.93 8.4H104.79C104.93 8.4 105.03 8.5 105.03 8.64V11.76C105.03 11.9 104.93 12 104.79 12H89.9305C89.6105 12 89.3105 11.88 89.0705 11.64L87.3905 9.96C87.1505 9.72 87.0305 9.42 87.0305 9.1V2.9C87.0305 2.58 87.1505 2.28 87.3905 2.04L89.0705 0.36ZM124.64 2.16C124.64 2.3 124.54 2.4 124.4 2.4H108.08C107.94 2.4 107.84 2.5 107.84 2.64V3.5C107.84 3.56 107.86 3.62 107.92 3.68L108.96 4.72C109.02 4.78 109.08 4.8 109.14 4.8H123.2C123.34 4.8 123.44 4.9 123.44 5.04V6.96C123.44 7.1 123.34 7.2 123.2 7.2H108.08C107.94 7.2 107.84 7.3 107.84 7.44V8.3C107.84 8.36 107.86 8.42 107.92 8.48L108.96 9.52C109.02 9.58 109.08 9.6 109.14 9.6H124.4C124.54 9.6 124.64 9.7 124.64 9.84V11.76C124.64 11.9 124.54 12 124.4 12H106.88C106.74 12 106.64 11.9 106.64 11.76V0.24C106.64 0.0999994 106.74 -4.76837e-07 106.88 -4.76837e-07H124.4C124.54 -4.76837e-07 124.64 0.0999994 124.64 0.24V2.16ZM143.499 6.84C143.739 7.08 143.859 7.38 143.859 7.7V9.1C143.859 9.42 143.739 9.72 143.499 9.96L141.819 11.64C141.579 11.88 141.279 12 140.959 12H126.699C126.559 12 126.459 11.9 126.459 11.76V8.64C126.459 8.5 126.559 8.4 126.699 8.4H127.559C127.619 8.4 127.679 8.42 127.739 8.48L128.779 9.52C128.839 9.58 128.899 9.6 128.959 9.6H141.219C141.359 9.6 141.459 9.5 141.459 9.36V7.44C141.459 7.3 141.359 7.2 141.219 7.2H128.759C128.439 7.2 128.139 7.08 127.899 6.84L126.219 5.16C125.979 4.92 125.859 4.62 125.859 4.3V2.9C125.859 2.58 125.979 2.28 126.219 2.04L127.899 0.36C128.139 0.119999 128.439 -4.76837e-07 128.759 -4.76837e-07H143.019C143.159 -4.76837e-07 143.259 0.0999994 143.259 0.24V3.36C143.259 3.5 143.159 3.6 143.019 3.6H142.159C142.099 3.6 142.039 3.58 141.979 3.52L140.939 2.48C140.879 2.42 140.819 2.4 140.759 2.4H128.499C128.359 2.4 128.259 2.5 128.259 2.64V4.56C128.259 4.7 128.359 4.8 128.499 4.8H140.959C141.279 4.8 141.579 4.92 141.819 5.16L143.499 6.84Z" fill="white"/>
</svg>
