<svg width="333" height="195" viewBox="0 0 333 195" fill="none" xmlns="http://www.w3.org/2000/svg">
<path d="M179.228 0L332.228 195H280.728H0.727539L19.2275 31.5L73.7275 68L159.728 47.5L179.228 0Z" fill="#015FF5"/>
<circle cx="10" cy="10" r="10" transform="matrix(-1 0 0 1 194.228 80)" fill="white"/>
<circle cx="10" cy="10" r="10" transform="matrix(-1 0 0 1 79.2275 109)" fill="white"/>
<path d="M113.389 109.162C114.311 113.5 121.38 116.456 128.228 115C135.076 113.544 138.762 106.592 138.188 103.891C137.614 101.19 131.597 100.18 124.749 101.636C117.901 103.091 112.815 106.461 113.389 109.162Z" fill="white"/>
</svg>
