<svg width="40" height="38" viewBox="0 0 40 38" fill="none" xmlns="http://www.w3.org/2000/svg">
<path d="M27.1839 24.8542C25.6993 22.9569 25.6488 20.3876 24.133 18.4941C21.5568 14.6348 16.2418 15.2323 13.3191 18.3405C10.9743 20.7841 6.65003 21.1431 5.92073 24.9726C5.03325 27.8552 6.82081 30.8596 9.75048 31.5232C11.9152 32.2611 14.0933 31.1631 16.2699 31.5399C18.8139 32.4219 20.5711 35.1329 23.4821 35.0751C25.6772 35.2019 27.5671 34.0267 28.409 31.9697C29.7338 29.4896 28.7374 26.946 27.1854 24.8485L27.1839 24.8542Z" fill="white"/>
<path d="M28.024 15.4568C30.563 14.2552 31.7524 11.1499 31.1328 8.48882C30.4063 5.52586 27.466 4.49517 25.1394 6.46399C21.2614 9.15845 22.2343 17.6451 28.024 15.4568Z" fill="white"/>
<path d="M36.4131 17.6749C34.6047 12.6008 28.6599 15.7068 28.4544 20.1137C28.3094 21.5137 28.5884 22.7783 29.7913 23.647C33.3993 26.3682 37.6982 21.3339 36.4146 17.6693L36.4131 17.6749Z" fill="white"/>
<path d="M11.4069 16.1409C12.4363 14.2434 12.7012 11.4914 11.1284 9.85581C10.1643 8.23155 7.74348 8.02 6.40353 9.24544C4.29693 10.6419 3.80459 13.9035 5.02024 16.0808C6.25111 18.6083 10.1713 18.7177 11.4069 16.1409Z" fill="white"/>
<path d="M13.4435 8.47183C13.4467 9.27401 13.4844 10.128 13.8921 10.8443C13.8292 11.0339 13.9323 11.1465 14.0697 11.244C14.1134 11.5107 14.2548 11.7064 14.475 11.8565C15.177 13.1252 16.8081 13.5258 18.2048 13.2869C18.471 13.2429 18.6166 12.948 18.9135 13.0154C19.047 13.0147 19.1278 12.9393 19.1936 12.8294C22.4866 10.7128 22.9909 3.81184 18.4713 2.91042C15.5909 2.51502 13.4173 5.81184 13.4435 8.47183Z" fill="white"/>
</svg>
