<svg width="390" height="600" viewBox="0 0 390 600" fill="none" xmlns="http://www.w3.org/2000/svg">
<g clip-path="url(#clip0_2675_23475)">
<path d="M299.983 598.772C134.985 598.772 1.22791 465.015 1.22791 300.017C1.22791 135.019 134.985 1.26172 299.983 1.26172C464.981 1.26172 598.738 135.019 598.738 300.017C598.738 465.015 464.981 598.772 299.983 598.772Z" stroke="url(#paint0_linear_2675_23475)" stroke-width="0.75" stroke-miterlimit="10"/>
<path d="M305.661 580.018C147.886 580.018 19.9842 452.116 19.9842 294.341C19.9842 136.567 147.886 8.66504 305.661 8.66504C463.435 8.66504 591.337 136.567 591.337 294.341C591.337 452.116 463.435 580.018 305.661 580.018Z" stroke="url(#paint1_linear_2675_23475)" stroke-width="0.72" stroke-miterlimit="10"/>
<path d="M311.336 561.295C160.766 561.295 38.7054 439.234 38.7054 288.664C38.7054 138.094 160.766 16.0332 311.336 16.0332C461.906 16.0332 583.967 138.094 583.967 288.664C583.967 439.234 461.906 561.295 311.336 561.295Z" stroke="url(#paint2_linear_2675_23475)" stroke-width="0.69" stroke-miterlimit="10"/>
<path d="M316.979 542.573C173.633 542.573 57.4276 426.368 57.4276 283.022C57.4276 139.675 173.633 23.4697 316.979 23.4697C460.326 23.4697 576.531 139.675 576.531 283.022C576.531 426.368 460.326 542.573 316.979 542.573Z" stroke="url(#paint3_linear_2675_23475)" stroke-width="0.66" stroke-miterlimit="10"/>
<path d="M322.656 523.817C186.533 523.817 76.1828 413.467 76.1828 277.344C76.1828 141.221 186.533 30.8711 322.656 30.8711C458.779 30.8711 569.129 141.221 569.129 277.344C569.129 413.467 458.779 523.817 322.656 523.817Z" stroke="url(#paint4_linear_2675_23475)" stroke-width="0.62" stroke-miterlimit="10"/>
<path d="M328.332 505.063C199.432 505.063 94.9382 400.569 94.9382 271.669C94.9382 142.769 199.432 38.2744 328.332 38.2744C457.232 38.2744 561.727 142.769 561.727 271.669C561.727 400.569 457.232 505.063 328.332 505.063Z" stroke="url(#paint5_linear_2675_23475)" stroke-width="0.59" stroke-miterlimit="10"/>
<path d="M333.976 486.374C212.281 486.374 113.627 387.72 113.627 266.025C113.627 144.33 212.281 45.6768 333.976 45.6768C455.671 45.6768 554.324 144.33 554.324 266.025C554.324 387.72 455.671 486.374 333.976 486.374Z" stroke="url(#paint6_linear_2675_23475)" stroke-width="0.56" stroke-miterlimit="10"/>
<path d="M339.652 467.619C225.18 467.619 132.382 374.821 132.382 260.349C132.382 145.877 225.18 53.0791 339.652 53.0791C454.124 53.0791 546.922 145.877 546.922 260.349C546.922 374.821 454.124 467.619 339.652 467.619Z" stroke="url(#paint7_linear_2675_23475)" stroke-width="0.53" stroke-miterlimit="10"/>
<path d="M345.294 448.897C238.046 448.897 151.104 361.955 151.104 254.707C151.104 147.458 238.046 60.5156 345.294 60.5156C452.543 60.5156 539.485 147.458 539.485 254.707C539.485 361.955 452.543 448.897 345.294 448.897Z" stroke="url(#paint8_linear_2675_23475)" stroke-width="0.5" stroke-miterlimit="10"/>
<path d="M350.971 430.141C250.946 430.141 169.859 349.054 169.859 249.029C169.859 149.004 250.946 67.917 350.971 67.917C450.996 67.917 532.083 149.004 532.083 249.029C532.083 349.054 450.996 430.141 350.971 430.141Z" stroke="url(#paint9_linear_2675_23475)" stroke-width="0.47" stroke-miterlimit="10"/>
<path d="M356.647 411.388C263.845 411.388 188.614 336.157 188.614 243.354C188.614 150.552 263.845 75.3213 356.647 75.3213C449.45 75.3213 524.681 150.552 524.681 243.354C524.681 336.157 449.45 411.388 356.647 411.388Z" stroke="url(#paint10_linear_2675_23475)" stroke-width="0.44" stroke-miterlimit="10"/>
<path d="M362.29 392.697C276.693 392.697 207.302 323.307 207.302 237.709C207.302 152.112 276.693 82.7217 362.29 82.7217C447.887 82.7217 517.277 152.112 517.277 237.709C517.277 323.307 447.887 392.697 362.29 392.697Z" stroke="url(#paint11_linear_2675_23475)" stroke-width="0.41" stroke-miterlimit="10"/>
<path d="M367.967 373.943C289.593 373.943 226.059 310.409 226.059 232.035C226.059 153.661 289.593 90.126 367.967 90.126C446.341 90.126 509.876 153.661 509.876 232.035C509.876 310.409 446.341 373.943 367.967 373.943Z" stroke="url(#paint12_linear_2675_23475)" stroke-width="0.38" stroke-miterlimit="10"/>
<path d="M373.643 355.187C302.492 355.187 244.813 297.508 244.813 226.357C244.813 155.206 302.492 97.5273 373.643 97.5273C444.794 97.5273 502.473 155.206 502.473 226.357C502.473 297.508 444.794 355.187 373.643 355.187Z" stroke="url(#paint13_linear_2675_23475)" stroke-width="0.34" stroke-miterlimit="10"/>
<path d="M330.861 325.861C272.775 299.119 247.365 230.353 274.106 172.267C300.847 114.181 369.613 88.7714 427.699 115.513C485.785 142.254 511.195 211.02 484.454 269.106C457.713 327.192 388.947 352.602 330.861 325.861Z" stroke="url(#paint14_linear_2675_23475)" stroke-width="0.31" stroke-miterlimit="10"/>
<path d="M384.963 317.743C328.24 317.743 282.257 271.76 282.257 215.037C282.257 158.315 328.24 112.332 384.963 112.332C441.685 112.332 487.668 158.315 487.668 215.037C487.668 271.76 441.685 317.743 384.963 317.743Z" stroke="url(#paint15_linear_2675_23475)" stroke-width="0.28" stroke-miterlimit="10"/>
<path d="M390.639 299.021C341.14 299.021 301.013 258.894 301.013 209.394C301.013 159.895 341.14 119.768 390.639 119.768C440.138 119.768 480.266 159.895 480.266 209.394C480.266 258.894 440.138 299.021 390.639 299.021Z" stroke="url(#paint16_linear_2675_23475)" stroke-width="0.25" stroke-miterlimit="10"/>
</g>
<defs>
<linearGradient id="paint0_linear_2675_23475" x1="299.983" y1="0.000307976" x2="299.983" y2="600" gradientUnits="userSpaceOnUse">
<stop stop-color="#00CDFF"/>
<stop offset="1" stop-color="#005FF5"/>
</linearGradient>
<linearGradient id="paint1_linear_2675_23475" x1="333.777" y1="8.83101" x2="277.544" y2="579.852" gradientUnits="userSpaceOnUse">
<stop stop-color="#00CDFF"/>
<stop offset="1" stop-color="#005FF5"/>
</linearGradient>
<linearGradient id="paint2_linear_2675_23475" x1="364.747" y1="20.1162" x2="257.925" y2="557.212" gradientUnits="userSpaceOnUse">
<stop stop-color="#00CDFF"/>
<stop offset="1" stop-color="#005FF5"/>
</linearGradient>
<linearGradient id="paint3_linear_2675_23475" x1="392.664" y1="33.5278" x2="241.328" y2="532.482" gradientUnits="userSpaceOnUse">
<stop stop-color="#00CDFF"/>
<stop offset="1" stop-color="#005FF5"/>
</linearGradient>
<linearGradient id="paint4_linear_2675_23475" x1="417.394" y1="48.6304" x2="227.917" y2="506.058" gradientUnits="userSpaceOnUse">
<stop stop-color="#00CDFF"/>
<stop offset="1" stop-color="#005FF5"/>
</linearGradient>
<linearGradient id="paint5_linear_2675_23475" x1="438.839" y1="64.93" x2="217.793" y2="478.44" gradientUnits="userSpaceOnUse">
<stop stop-color="#00CDFF"/>
<stop offset="1" stop-color="#005FF5"/>
</linearGradient>
<linearGradient id="paint6_linear_2675_23475" x1="456.93" y1="82.0253" x2="211.054" y2="450.025" gradientUnits="userSpaceOnUse">
<stop stop-color="#00CDFF"/>
<stop offset="1" stop-color="#005FF5"/>
</linearGradient>
<linearGradient id="paint7_linear_2675_23475" x1="471.702" y1="99.4526" x2="207.602" y2="421.245" gradientUnits="userSpaceOnUse">
<stop stop-color="#00CDFF"/>
<stop offset="1" stop-color="#005FF5"/>
</linearGradient>
<linearGradient id="paint8_linear_2675_23475" x1="483.22" y1="116.781" x2="207.402" y2="392.599" gradientUnits="userSpaceOnUse">
<stop stop-color="#00CDFF"/>
<stop offset="1" stop-color="#005FF5"/>
</linearGradient>
<linearGradient id="paint9_linear_2675_23475" x1="491.585" y1="133.61" x2="210.357" y2="364.415" gradientUnits="userSpaceOnUse">
<stop stop-color="#00CDFF"/>
<stop offset="1" stop-color="#005FF5"/>
</linearGradient>
<linearGradient id="paint10_linear_2675_23475" x1="496.996" y1="149.579" x2="216.299" y2="337.13" gradientUnits="userSpaceOnUse">
<stop stop-color="#00CDFF"/>
<stop offset="1" stop-color="#005FF5"/>
</linearGradient>
<linearGradient id="paint11_linear_2675_23475" x1="499.618" y1="164.315" x2="224.995" y2="311.07" gradientUnits="userSpaceOnUse">
<stop stop-color="#00CDFF"/>
<stop offset="1" stop-color="#005FF5"/>
</linearGradient>
<linearGradient id="paint12_linear_2675_23475" x1="499.685" y1="177.462" x2="236.249" y2="286.607" gradientUnits="userSpaceOnUse">
<stop stop-color="#00CDFF"/>
<stop offset="1" stop-color="#005FF5"/>
</linearGradient>
<linearGradient id="paint13_linear_2675_23475" x1="497.493" y1="188.78" x2="249.759" y2="263.934" gradientUnits="userSpaceOnUse">
<stop stop-color="#00CDFF"/>
<stop offset="1" stop-color="#005FF5"/>
</linearGradient>
<linearGradient id="paint14_linear_2675_23475" x1="493.393" y1="197.999" x2="265.243" y2="243.376" gradientUnits="userSpaceOnUse">
<stop stop-color="#00CDFF"/>
<stop offset="1" stop-color="#005FF5"/>
</linearGradient>
<linearGradient id="paint15_linear_2675_23475" x1="487.635" y1="204.913" x2="282.29" y2="225.162" gradientUnits="userSpaceOnUse">
<stop stop-color="#00CDFF"/>
<stop offset="1" stop-color="#005FF5"/>
</linearGradient>
<linearGradient id="paint16_linear_2675_23475" x1="480.664" y1="209.394" x2="300.581" y2="209.394" gradientUnits="userSpaceOnUse">
<stop stop-color="#00CDFF"/>
<stop offset="1" stop-color="#005FF5"/>
</linearGradient>
<clipPath id="clip0_2675_23475">
<rect width="600" height="600" fill="white" transform="matrix(-1 0 0 1 600 0)"/>
</clipPath>
</defs>
</svg>
