<svg width="240" height="240" viewBox="0 0 240 240" fill="none" xmlns="http://www.w3.org/2000/svg">
<g clip-path="url(#clip0_2554_5823)">
<path d="M120.006 239.509C186.006 239.509 239.509 186.006 239.509 120.007C239.509 54.0078 186.006 0.504883 120.006 0.504883C54.0073 0.504883 0.504395 54.0078 0.504395 120.007C0.504395 186.006 54.0073 239.509 120.006 239.509Z" stroke="url(#paint0_linear_2554_5823)" stroke-width="0.75" stroke-miterlimit="10"/>
<path d="M117.736 232.007C180.846 232.007 232.006 180.846 232.006 117.736C232.006 54.6265 180.846 3.46582 117.736 3.46582C54.626 3.46582 3.46533 54.6265 3.46533 117.736C3.46533 180.846 54.626 232.007 117.736 232.007Z" stroke="url(#paint1_linear_2554_5823)" stroke-width="0.72" stroke-miterlimit="10"/>
<path d="M115.465 224.518C175.693 224.518 224.518 175.693 224.518 115.465C224.518 55.2374 175.693 6.41309 115.465 6.41309C55.2374 6.41309 6.41309 55.2374 6.41309 115.465C6.41309 175.693 55.2374 224.518 115.465 224.518Z" stroke="url(#paint2_linear_2554_5823)" stroke-width="0.69" stroke-miterlimit="10"/>
<path d="M113.208 217.029C170.547 217.029 217.029 170.547 217.029 113.208C217.029 55.8698 170.547 9.3877 113.208 9.3877C55.8693 9.3877 9.38721 55.8698 9.38721 113.208C9.38721 170.547 55.8693 217.029 113.208 217.029Z" stroke="url(#paint3_linear_2554_5823)" stroke-width="0.66" stroke-miterlimit="10"/>
<path d="M110.938 209.527C165.387 209.527 209.527 165.387 209.527 110.938C209.527 56.4885 165.387 12.3486 110.938 12.3486C56.4885 12.3486 12.3486 56.4885 12.3486 110.938C12.3486 165.387 56.4885 209.527 110.938 209.527Z" stroke="url(#paint4_linear_2554_5823)" stroke-width="0.62" stroke-miterlimit="10"/>
<path d="M108.667 202.025C160.227 202.025 202.024 160.227 202.024 108.667C202.024 57.1072 160.227 15.3096 108.667 15.3096C57.1067 15.3096 15.3091 57.1072 15.3091 108.667C15.3091 160.227 57.1067 202.025 108.667 202.025Z" stroke="url(#paint5_linear_2554_5823)" stroke-width="0.59" stroke-miterlimit="10"/>
<path d="M106.41 194.549C155.088 194.549 194.549 155.088 194.549 106.41C194.549 57.7319 155.088 18.2705 106.41 18.2705C57.7319 18.2705 18.2705 57.7319 18.2705 106.41C18.2705 155.088 57.7319 194.549 106.41 194.549Z" stroke="url(#paint6_linear_2554_5823)" stroke-width="0.56" stroke-miterlimit="10"/>
<path d="M104.139 187.047C149.928 187.047 187.047 149.928 187.047 104.139C187.047 58.3506 149.928 21.2314 104.139 21.2314C58.3506 21.2314 21.2314 58.3506 21.2314 104.139C21.2314 149.928 58.3506 187.047 104.139 187.047Z" stroke="url(#paint7_linear_2554_5823)" stroke-width="0.53" stroke-miterlimit="10"/>
<path d="M101.882 179.559C144.781 179.559 179.558 144.782 179.558 101.882C179.558 58.9829 144.781 24.2061 101.882 24.2061C58.9825 24.2061 24.2056 58.9829 24.2056 101.882C24.2056 144.782 58.9825 179.559 101.882 179.559Z" stroke="url(#paint8_linear_2554_5823)" stroke-width="0.5" stroke-miterlimit="10"/>
<path d="M99.6118 172.057C139.622 172.057 172.057 139.622 172.057 99.6118C172.057 59.6016 139.622 27.167 99.6118 27.167C59.6016 27.167 27.167 59.6016 27.167 99.6118C27.167 139.622 59.6016 172.057 99.6118 172.057Z" stroke="url(#paint9_linear_2554_5823)" stroke-width="0.47" stroke-miterlimit="10"/>
<path d="M97.3412 164.554C134.462 164.554 164.554 134.462 164.554 97.3412C164.554 60.2203 134.462 30.1279 97.3412 30.1279C60.2203 30.1279 30.1279 60.2203 30.1279 97.3412C30.1279 134.462 60.2203 164.554 97.3412 164.554Z" stroke="url(#paint10_linear_2554_5823)" stroke-width="0.44" stroke-miterlimit="10"/>
<path d="M95.0839 157.079C129.323 157.079 157.079 129.323 157.079 95.0839C157.079 60.845 129.323 33.0889 95.0839 33.0889C60.845 33.0889 33.0889 60.845 33.0889 95.0839C33.0889 129.323 60.845 157.079 95.0839 157.079Z" stroke="url(#paint11_linear_2554_5823)" stroke-width="0.41" stroke-miterlimit="10"/>
<path d="M92.8133 149.578C124.163 149.578 149.577 124.164 149.577 92.8143C149.577 61.4647 124.163 36.0508 92.8133 36.0508C61.4637 36.0508 36.0498 61.4647 36.0498 92.8143C36.0498 124.164 61.4637 149.578 92.8133 149.578Z" stroke="url(#paint12_linear_2554_5823)" stroke-width="0.38" stroke-miterlimit="10"/>
<path d="M90.5427 142.075C119.003 142.075 142.075 119.003 142.075 90.5427C142.075 62.0824 119.003 39.0107 90.5427 39.0107C62.0824 39.0107 39.0107 62.0824 39.0107 90.5427C39.0107 119.003 62.0824 142.075 90.5427 142.075Z" stroke="url(#paint13_linear_2554_5823)" stroke-width="0.34" stroke-miterlimit="10"/>
<path d="M107.656 130.345C130.89 119.648 141.054 92.1419 130.358 68.9075C119.661 45.6731 92.1551 35.5091 68.9207 46.2056C45.6863 56.902 35.5223 84.4084 46.2187 107.643C56.9152 130.877 84.4216 141.041 107.656 130.345Z" stroke="url(#paint14_linear_2554_5823)" stroke-width="0.31" stroke-miterlimit="10"/>
<path d="M86.0148 127.097C108.704 127.097 127.097 108.704 127.097 86.0148C127.097 63.3257 108.704 44.9326 86.0148 44.9326C63.3257 44.9326 44.9326 63.3257 44.9326 86.0148C44.9326 108.704 63.3257 127.097 86.0148 127.097Z" stroke="url(#paint15_linear_2554_5823)" stroke-width="0.28" stroke-miterlimit="10"/>
<path d="M83.7442 119.608C103.544 119.608 119.595 103.558 119.595 83.7579C119.595 63.9581 103.544 47.9072 83.7442 47.9072C63.9444 47.9072 47.8936 63.9581 47.8936 83.7579C47.8936 103.558 63.9444 119.608 83.7442 119.608Z" stroke="url(#paint16_linear_2554_5823)" stroke-width="0.25" stroke-miterlimit="10"/>
</g>
<defs>
<linearGradient id="paint0_linear_2554_5823" x1="120.006" y1="0.000318503" x2="120.006" y2="240" gradientUnits="userSpaceOnUse">
<stop stop-color="#00CDFF"/>
<stop offset="1" stop-color="#005FF5"/>
</linearGradient>
<linearGradient id="paint1_linear_2554_5823" x1="106.489" y1="3.53221" x2="128.982" y2="231.941" gradientUnits="userSpaceOnUse">
<stop stop-color="#00CDFF"/>
<stop offset="1" stop-color="#005FF5"/>
</linearGradient>
<linearGradient id="paint2_linear_2554_5823" x1="94.101" y1="8.04628" x2="136.83" y2="222.884" gradientUnits="userSpaceOnUse">
<stop stop-color="#00CDFF"/>
<stop offset="1" stop-color="#005FF5"/>
</linearGradient>
<linearGradient id="paint3_linear_2554_5823" x1="82.9341" y1="13.4109" x2="143.469" y2="212.993" gradientUnits="userSpaceOnUse">
<stop stop-color="#00CDFF"/>
<stop offset="1" stop-color="#005FF5"/>
</linearGradient>
<linearGradient id="paint4_linear_2554_5823" x1="73.0424" y1="19.4524" x2="148.833" y2="202.423" gradientUnits="userSpaceOnUse">
<stop stop-color="#00CDFF"/>
<stop offset="1" stop-color="#005FF5"/>
</linearGradient>
<linearGradient id="paint5_linear_2554_5823" x1="64.4643" y1="25.9718" x2="152.883" y2="191.376" gradientUnits="userSpaceOnUse">
<stop stop-color="#00CDFF"/>
<stop offset="1" stop-color="#005FF5"/>
</linearGradient>
<linearGradient id="paint6_linear_2554_5823" x1="57.2282" y1="32.8099" x2="155.578" y2="180.01" gradientUnits="userSpaceOnUse">
<stop stop-color="#00CDFF"/>
<stop offset="1" stop-color="#005FF5"/>
</linearGradient>
<linearGradient id="paint7_linear_2554_5823" x1="51.3194" y1="39.7808" x2="156.959" y2="168.498" gradientUnits="userSpaceOnUse">
<stop stop-color="#00CDFF"/>
<stop offset="1" stop-color="#005FF5"/>
</linearGradient>
<linearGradient id="paint8_linear_2554_5823" x1="46.7118" y1="46.7123" x2="157.039" y2="157.039" gradientUnits="userSpaceOnUse">
<stop stop-color="#00CDFF"/>
<stop offset="1" stop-color="#005FF5"/>
</linearGradient>
<linearGradient id="paint9_linear_2554_5823" x1="43.3662" y1="53.4442" x2="155.857" y2="145.766" gradientUnits="userSpaceOnUse">
<stop stop-color="#00CDFF"/>
<stop offset="1" stop-color="#005FF5"/>
</linearGradient>
<linearGradient id="paint10_linear_2554_5823" x1="41.2018" y1="59.8308" x2="153.481" y2="134.852" gradientUnits="userSpaceOnUse">
<stop stop-color="#00CDFF"/>
<stop offset="1" stop-color="#005FF5"/>
</linearGradient>
<linearGradient id="paint11_linear_2554_5823" x1="40.1528" y1="65.7262" x2="150.002" y2="124.428" gradientUnits="userSpaceOnUse">
<stop stop-color="#00CDFF"/>
<stop offset="1" stop-color="#005FF5"/>
</linearGradient>
<linearGradient id="paint12_linear_2554_5823" x1="40.1262" y1="70.9852" x2="145.5" y2="114.643" gradientUnits="userSpaceOnUse">
<stop stop-color="#00CDFF"/>
<stop offset="1" stop-color="#005FF5"/>
</linearGradient>
<linearGradient id="paint13_linear_2554_5823" x1="41.0024" y1="75.512" x2="140.096" y2="105.573" gradientUnits="userSpaceOnUse">
<stop stop-color="#00CDFF"/>
<stop offset="1" stop-color="#005FF5"/>
</linearGradient>
<linearGradient id="paint14_linear_2554_5823" x1="42.6433" y1="79.2" x2="133.903" y2="97.3511" gradientUnits="userSpaceOnUse">
<stop stop-color="#00CDFF"/>
<stop offset="1" stop-color="#005FF5"/>
</linearGradient>
<linearGradient id="paint15_linear_2554_5823" x1="44.9459" y1="81.965" x2="127.084" y2="90.0646" gradientUnits="userSpaceOnUse">
<stop stop-color="#00CDFF"/>
<stop offset="1" stop-color="#005FF5"/>
</linearGradient>
<linearGradient id="paint16_linear_2554_5823" x1="47.7342" y1="83.7578" x2="119.767" y2="83.7578" gradientUnits="userSpaceOnUse">
<stop stop-color="#00CDFF"/>
<stop offset="1" stop-color="#005FF5"/>
</linearGradient>
<clipPath id="clip0_2554_5823">
<rect width="240" height="240" fill="white"/>
</clipPath>
</defs>
</svg>
