<svg width="202" height="202" viewBox="0 0 202 202" fill="none" xmlns="http://www.w3.org/2000/svg">
<path opacity="0.5" d="M101 201C156.228 201 201 156.228 201 101C201 45.7715 156.228 1 101 1C45.7715 1 1 45.7715 1 101C1 156.228 45.7715 201 101 201Z" fill="url(#paint0_linear_2554_5822)"/>
<path d="M101 201C156.228 201 201 156.228 201 101C201 45.7715 156.228 1 101 1C45.7715 1 1 45.7715 1 101C1 156.228 45.7715 201 101 201Z" stroke="white" stroke-miterlimit="10"/>
<path d="M99.1084 194.733C151.921 194.733 194.733 151.921 194.733 99.1084C194.733 46.2962 151.921 3.4834 99.1084 3.4834C46.2962 3.4834 3.4834 46.2962 3.4834 99.1084C3.4834 151.921 46.2962 194.733 99.1084 194.733Z" stroke="white" stroke-width="0.95" stroke-miterlimit="10"/>
<path d="M97.2085 188.459C147.604 188.459 188.458 147.605 188.458 97.209C188.458 46.813 147.604 5.95898 97.2085 5.95898C46.8125 5.95898 5.9585 46.813 5.9585 97.209C5.9585 147.605 46.8125 188.459 97.2085 188.459Z" stroke="white" stroke-width="0.91" stroke-miterlimit="10"/>
<path d="M95.3169 182.184C143.297 182.184 182.192 143.288 182.192 95.3086C182.192 47.3289 143.297 8.43359 95.3169 8.43359C47.3372 8.43359 8.44189 47.3289 8.44189 95.3086C8.44189 143.288 47.3372 182.184 95.3169 182.184Z" stroke="white" stroke-width="0.86" stroke-miterlimit="10"/>
<path d="M93.4165 175.917C138.98 175.917 175.917 138.98 175.917 93.417C175.917 47.8535 138.98 10.917 93.4165 10.917C47.853 10.917 10.9165 47.8535 10.9165 93.417C10.9165 138.98 47.853 175.917 93.4165 175.917Z" stroke="white" stroke-width="0.81" stroke-miterlimit="10"/>
<path d="M91.5166 169.642C134.664 169.642 169.642 134.664 169.642 91.5166C169.642 48.3694 134.664 13.3916 91.5166 13.3916C48.3694 13.3916 13.3916 48.3694 13.3916 91.5166C13.3916 134.664 48.3694 169.642 91.5166 169.642Z" stroke="white" stroke-width="0.77" stroke-miterlimit="10"/>
<path d="M89.625 163.375C130.356 163.375 163.375 130.356 163.375 89.625C163.375 48.894 130.356 15.875 89.625 15.875C48.894 15.875 15.875 48.894 15.875 89.625C15.875 130.356 48.894 163.375 89.625 163.375Z" stroke="white" stroke-width="0.72" stroke-miterlimit="10"/>
<path d="M87.7334 157.108C126.048 157.108 157.108 126.048 157.108 87.7334C157.108 49.4186 126.048 18.3584 87.7334 18.3584C49.4186 18.3584 18.3584 49.4186 18.3584 87.7334C18.3584 126.048 49.4186 157.108 87.7334 157.108Z" stroke="white" stroke-width="0.67" stroke-miterlimit="10"/>
<path d="M85.833 150.833C121.732 150.833 150.833 121.732 150.833 85.833C150.833 49.9345 121.732 20.833 85.833 20.833C49.9345 20.833 20.833 49.9345 20.833 85.833C20.833 121.732 49.9345 150.833 85.833 150.833Z" stroke="white" stroke-width="0.62" stroke-miterlimit="10"/>
<path d="M83.9414 144.558C117.424 144.558 144.566 117.415 144.566 83.9326C144.566 50.4504 117.424 23.3076 83.9414 23.3076C50.4591 23.3076 23.3164 50.4504 23.3164 83.9326C23.3164 117.415 50.4591 144.558 83.9414 144.558Z" stroke="white" stroke-width="0.58" stroke-miterlimit="10"/>
<path d="M82.0415 138.292C113.108 138.292 138.292 113.108 138.292 82.042C138.292 50.976 113.108 25.792 82.0415 25.792C50.9755 25.792 25.7915 50.976 25.7915 82.042C25.7915 113.108 50.9755 138.292 82.0415 138.292Z" stroke="white" stroke-width="0.53" stroke-miterlimit="10"/>
<path d="M80.1499 132.025C108.8 132.025 132.025 108.8 132.025 80.1504C132.025 51.5006 108.8 28.2754 80.1499 28.2754C51.5001 28.2754 28.2749 51.5006 28.2749 80.1504C28.2749 108.8 51.5001 132.025 80.1499 132.025Z" stroke="white" stroke-width="0.48" stroke-miterlimit="10"/>
<path d="M78.25 125.75C104.484 125.75 125.75 104.484 125.75 78.25C125.75 52.0165 104.484 30.75 78.25 30.75C52.0165 30.75 30.75 52.0165 30.75 78.25C30.75 104.484 52.0165 125.75 78.25 125.75Z" stroke="white" stroke-width="0.44" stroke-miterlimit="10"/>
<path d="M76.3584 119.483C100.176 119.483 119.483 100.176 119.483 76.3584C119.483 52.5411 100.176 33.2334 76.3584 33.2334C52.5411 33.2334 33.2334 52.5411 33.2334 76.3584C33.2334 100.176 52.5411 119.483 76.3584 119.483Z" stroke="white" stroke-width="0.39" stroke-miterlimit="10"/>
<path d="M74.458 113.209C95.859 113.209 113.208 95.86 113.208 74.459C113.208 53.058 95.859 35.709 74.458 35.709C53.057 35.709 35.708 53.058 35.708 74.459C35.708 95.86 53.057 113.209 74.458 113.209Z" stroke="white" stroke-width="0.34" stroke-miterlimit="10"/>
<path d="M72.5664 106.941C91.5512 106.941 106.941 91.5512 106.941 72.5664C106.941 53.5816 91.5512 38.1914 72.5664 38.1914C53.5816 38.1914 38.1914 53.5816 38.1914 72.5664C38.1914 91.5512 53.5816 106.941 72.5664 106.941Z" stroke="white" stroke-width="0.3" stroke-miterlimit="10"/>
<path d="M70.667 100.666C87.2355 100.666 100.667 87.2346 100.667 70.666C100.667 54.0975 87.2355 40.666 70.667 40.666C54.0984 40.666 40.667 54.0975 40.667 70.666C40.667 87.2346 54.0984 100.666 70.667 100.666Z" stroke="white" stroke-width="0.25" stroke-miterlimit="10"/>
<defs>
<linearGradient id="paint0_linear_2554_5822" x1="101" y1="1" x2="101" y2="201" gradientUnits="userSpaceOnUse">
<stop stop-color="#00CDFF"/>
<stop offset="1" stop-color="#005FF5"/>
</linearGradient>
</defs>
</svg>
