<svg width="229" height="15" viewBox="0 0 229 15" fill="none" xmlns="http://www.w3.org/2000/svg">
<path d="M225.409 12.1196C225.577 12.1196 225.697 11.9996 225.697 11.8316V3.76761C225.697 3.59961 225.577 3.47961 225.409 3.47961H210.145C210.001 3.47961 209.857 3.59961 209.857 3.76761V11.8316C209.857 11.9996 210.001 12.1196 210.145 12.1196H225.409ZM206.977 11.5196V4.07961C206.977 3.69561 207.145 3.33561 207.409 3.04761L209.449 1.03161C209.713 0.743609 210.073 0.599609 210.457 0.599609H225.097C225.481 0.599609 225.865 0.743609 226.129 1.03161L228.169 3.04761C228.433 3.33561 228.577 3.69561 228.577 4.07961V11.5196C228.577 11.9036 228.433 12.2636 228.169 12.5516L226.129 14.5676C225.865 14.8556 225.481 14.9996 225.097 14.9996H210.457C210.073 14.9996 209.713 14.8556 209.449 14.5676L207.409 12.5516C207.145 12.2636 206.977 11.9036 206.977 11.5196Z" fill="#0A0A55"/>
<path d="M206.006 3.55161C206.006 3.71961 205.886 3.83961 205.718 3.83961H199.646C199.574 3.83961 199.502 3.81561 199.43 3.74361L198.182 2.49561C198.11 2.42361 198.038 2.39961 197.966 2.39961H196.934C196.766 2.39961 196.646 2.51961 196.646 2.68761V14.7116C196.646 14.8796 196.526 14.9996 196.358 14.9996H194.054C193.886 14.9996 193.766 14.8796 193.766 14.7116V2.68761C193.766 2.51961 193.646 2.39961 193.478 2.39961H192.446C192.374 2.39961 192.302 2.42361 192.23 2.49561L190.982 3.74361C190.91 3.81561 190.838 3.83961 190.766 3.83961H184.694C184.526 3.83961 184.406 3.71961 184.406 3.55161V0.88761C184.406 0.71961 184.526 0.599609 184.694 0.599609H205.718C205.886 0.599609 206.006 0.71961 206.006 0.88761V3.55161Z" fill="#0A0A55"/>
<path d="M172.866 3.19161C172.866 3.35961 172.746 3.47961 172.578 3.47961H152.994C152.826 3.47961 152.706 3.59961 152.706 3.76761V4.79961C152.706 4.87161 152.73 4.94361 152.802 5.01561L154.05 6.26361C154.122 6.33561 154.194 6.35961 154.266 6.35961H171.138C171.306 6.35961 171.426 6.47961 171.426 6.64761V8.95161C171.426 9.11961 171.306 9.23961 171.138 9.23961H152.994C152.826 9.23961 152.706 9.35961 152.706 9.52761V10.5596C152.706 10.6316 152.73 10.7036 152.802 10.7756L154.05 12.0236C154.122 12.0956 154.194 12.1196 154.266 12.1196H172.578C172.746 12.1196 172.866 12.2396 172.866 12.4076V14.7116C172.866 14.8796 172.746 14.9996 172.578 14.9996H151.554C151.386 14.9996 151.266 14.8796 151.266 14.7116V0.88761C151.266 0.71961 151.386 0.599609 151.554 0.599609H172.578C172.746 0.599609 172.866 0.71961 172.866 0.88761V3.19161Z" fill="#0A0A55"/>
<path d="M146.359 0.695609C146.431 0.647608 146.503 0.599609 146.599 0.599609H149.047C149.215 0.599609 149.335 0.71961 149.335 0.88761V14.7116C149.335 14.8796 149.215 14.9996 149.047 14.9996H146.743C146.575 14.9996 146.455 14.8796 146.455 14.7116V7.05561C146.455 6.98361 146.479 6.91161 146.527 6.86361L147.703 5.44761C147.775 5.35161 147.703 5.23161 147.583 5.23161L146.599 5.20761C146.503 5.20761 146.431 5.25561 146.359 5.32761L138.343 14.9036C138.271 14.9516 138.199 14.9996 138.103 14.9996H133.927C133.831 14.9996 133.759 14.9516 133.687 14.9036L125.671 5.32761C125.599 5.25561 125.527 5.20761 125.431 5.20761L124.447 5.23161C124.327 5.23161 124.255 5.35161 124.327 5.44761L125.503 6.86361C125.551 6.91161 125.575 6.98361 125.575 7.05561V14.7116C125.575 14.8796 125.455 14.9996 125.287 14.9996H122.983C122.815 14.9996 122.695 14.8796 122.695 14.7116V0.88761C122.695 0.71961 122.815 0.599609 122.983 0.599609H125.431C125.527 0.599609 125.599 0.647608 125.671 0.695609L135.151 12.0236C135.199 12.0716 135.295 12.1196 135.367 12.1196H136.663C136.735 12.1196 136.831 12.0716 136.879 12.0236L146.359 0.695609Z" fill="#0A0A55"/>
<path d="M117.596 12.1196C117.764 12.1196 117.884 11.9996 117.884 11.8316V3.76761C117.884 3.59961 117.764 3.47961 117.596 3.47961H102.332C102.188 3.47961 102.044 3.59961 102.044 3.76761V11.8316C102.044 11.9996 102.188 12.1196 102.332 12.1196H117.596ZM99.1641 11.5196V4.07961C99.1641 3.69561 99.3321 3.33561 99.5961 3.04761L101.636 1.03161C101.9 0.743609 102.26 0.599609 102.644 0.599609H117.284C117.668 0.599609 118.052 0.743609 118.316 1.03161L120.356 3.04761C120.62 3.33561 120.764 3.69561 120.764 4.07961V11.5196C120.764 11.9036 120.62 12.2636 120.356 12.5516L118.316 14.5676C118.052 14.8556 117.668 14.9996 117.284 14.9996H102.644C102.26 14.9996 101.9 14.8556 101.636 14.5676L99.5961 12.5516C99.3321 12.2636 99.1641 11.9036 99.1641 11.5196Z" fill="#0A0A55"/>
<path d="M78.0808 1.03161C78.3688 0.743609 78.7288 0.599609 79.1128 0.599609H96.9448C97.1128 0.599609 97.2328 0.71961 97.2328 0.88761V4.63161C97.2328 4.79961 97.1128 4.91961 96.9448 4.91961H95.9128C95.8408 4.91961 95.7688 4.89561 95.6968 4.82361L94.4488 3.57561C94.3768 3.50361 94.3048 3.47961 94.2328 3.47961H77.3608C77.1928 3.47961 77.0728 3.59961 77.0728 3.76761V4.79961C77.0728 4.87161 77.0968 4.94361 77.1688 5.01561L78.4168 6.26361C78.4888 6.33561 78.5128 6.40761 78.5128 6.47961V11.8316C78.5128 11.9996 78.6328 12.1196 78.8008 12.1196H94.2328C94.3048 12.1196 94.3768 12.0956 94.4488 12.0236L95.6968 10.7756C95.7688 10.7036 95.8408 10.6796 95.9128 10.6796H96.9448C97.1128 10.6796 97.2328 10.7996 97.2328 10.9676V14.7116C97.2328 14.8796 97.1128 14.9996 96.9448 14.9996H79.1128C78.7288 14.9996 78.3688 14.8556 78.0808 14.5676L76.0648 12.5516C75.7768 12.2636 75.6328 11.9036 75.6328 11.5196V4.07961C75.6328 3.69561 75.7768 3.33561 76.0648 3.04761L78.0808 1.03161Z" fill="#0A0A55"/>
<path d="M55.5816 14.9996C55.1976 14.9996 54.8376 14.8556 54.5496 14.5676L52.5336 12.5516C52.2456 12.2636 52.1016 11.9036 52.1016 11.5196V0.88761C52.1016 0.71961 52.2216 0.599609 52.3896 0.599609H54.6936C54.8616 0.599609 54.9816 0.71961 54.9816 0.88761V11.8316C54.9816 11.9996 55.1016 12.1196 55.2696 12.1196H70.7016C70.7736 12.1196 70.8456 12.0956 70.9176 12.0236L72.1656 10.7756C72.2376 10.7036 72.3096 10.6796 72.3816 10.6796H73.4136C73.5816 10.6796 73.7016 10.7996 73.7016 10.9676V14.7116C73.7016 14.8796 73.5816 14.9996 73.4136 14.9996H55.5816Z" fill="#0A0A55"/>
<path d="M50.1703 3.19161C50.1703 3.35961 50.0503 3.47961 49.8823 3.47961H30.2983C30.1303 3.47961 30.0103 3.59961 30.0103 3.76761V4.79961C30.0103 4.87161 30.0343 4.94361 30.1063 5.01561L31.3543 6.26361C31.4263 6.33561 31.4983 6.35961 31.5703 6.35961H48.4423C48.6103 6.35961 48.7303 6.47961 48.7303 6.64761V8.95161C48.7303 9.11961 48.6103 9.23961 48.4423 9.23961H30.2983C30.1303 9.23961 30.0103 9.35961 30.0103 9.52761V10.5596C30.0103 10.6316 30.0343 10.7036 30.1063 10.7756L31.3543 12.0236C31.4263 12.0956 31.4983 12.1196 31.5703 12.1196H49.8823C50.0503 12.1196 50.1703 12.2396 50.1703 12.4076V14.7116C50.1703 14.8796 50.0503 14.9996 49.8823 14.9996H28.8583C28.6903 14.9996 28.5703 14.8796 28.5703 14.7116V0.88761C28.5703 0.71961 28.6903 0.599609 28.8583 0.599609H49.8823C50.0503 0.599609 50.1703 0.71961 50.1703 0.88761V3.19161Z" fill="#0A0A55"/>
<path d="M2.97601 14.9036C2.92801 14.9516 2.832 14.9996 2.76 14.9996H0.288002C0.144002 14.9996 0 14.8796 0 14.7116V0.88761C0 0.71961 0.144002 0.599609 0.288002 0.599609H2.592C2.76 0.599609 2.88 0.71961 2.88 0.88761V8.54361C2.88 8.61561 2.85601 8.68761 2.83201 8.73561L1.656 10.1516C1.56 10.2476 1.63201 10.3676 1.75201 10.3676L2.76 10.3916C2.832 10.3916 2.92801 10.3436 2.97601 10.2716L11.016 0.695609C11.064 0.647608 11.136 0.599609 11.232 0.599609H15.432C15.504 0.599609 15.6 0.647608 15.648 0.695609L23.688 10.2716C23.736 10.3436 23.808 10.3916 23.904 10.3916L24.912 10.3676C25.032 10.3676 25.08 10.2476 25.008 10.1516L23.832 8.73561C23.784 8.68761 23.76 8.61561 23.76 8.54361V0.88761C23.76 0.71961 23.904 0.599609 24.048 0.599609H26.352C26.52 0.599609 26.64 0.71961 26.64 0.88761V14.7116C26.64 14.8796 26.52 14.9996 26.352 14.9996H23.904C23.808 14.9996 23.736 14.9516 23.688 14.9036L14.184 3.57561C14.136 3.52761 14.064 3.47961 13.968 3.47961H12.696C12.6 3.47961 12.528 3.52761 12.48 3.57561L2.97601 14.9036Z" fill="#0A0A55"/>
</svg>
