<svg width="120" height="120" viewBox="0 0 120 120" fill="none" xmlns="http://www.w3.org/2000/svg">
<path d="M112.222 23.0771H24.3927C22.1366 23.0771 20.3076 24.9139 20.3076 27.1797V92.8207C20.3076 95.0865 22.1366 96.9233 24.3927 96.9233H112.222C114.479 96.9233 116.308 95.0865 116.308 92.8207V27.1797C116.308 24.9139 114.479 23.0771 112.222 23.0771Z" fill="white"/>
<path d="M108.893 39.4873H27.7219C25.8832 39.4873 24.3926 40.9843 24.3926 42.8309V89.4771C24.3926 91.3237 25.8832 92.8207 27.7219 92.8207H108.893C110.732 92.8207 112.222 91.3237 112.222 89.4771V42.8309C112.222 40.9843 110.732 39.4873 108.893 39.4873Z" fill="url(#paint0_linear_2578_2797)"/>
<g clip-path="url(#clip0_2578_2797)">
<path d="M66.8557 45.2314C55.3813 45.2314 46.0767 54.5361 46.0767 66.0104C46.0767 77.4848 55.3813 86.7894 66.8557 86.7894C78.33 86.7894 87.6151 77.4848 87.6347 66.0104C87.6151 54.5361 78.3105 45.2314 66.8557 45.2314ZM49.3606 67.5938H55.0294C55.1272 70.1154 55.479 72.5002 56.0459 74.67H51.5891C50.3771 72.5393 49.5952 70.1545 49.3606 67.5938ZM68.439 54.1256V48.75C70.2765 49.4733 71.9185 51.428 73.1695 54.1256H68.439ZM74.3424 57.3314C74.9483 59.462 75.3588 61.8664 75.4761 64.4076H68.439V57.3314H74.3424ZM65.2528 48.75V54.1256H60.5223C61.7733 51.4085 63.4153 49.4733 65.2528 48.75ZM65.2528 57.3314V64.4076H58.2157C58.3329 61.8664 58.7434 59.462 59.3494 57.3314H65.2528ZM55.0294 64.4076H49.3606C49.5952 61.8468 50.3771 59.462 51.5891 57.3314H56.0459C55.479 59.5011 55.1467 61.8859 55.0294 64.4076ZM58.2157 67.5938H65.2528V74.67H59.3494C58.7434 72.5393 58.3329 70.135 58.2157 67.5938ZM65.2528 77.8758V83.2514C63.4153 82.5281 61.7733 80.5733 60.5223 77.8758H65.2528ZM68.439 83.2514V77.8758H73.1695C71.9185 80.5929 70.2765 82.5281 68.439 83.2514ZM68.439 74.67V67.5938H75.4761C75.3588 70.135 74.9483 72.5393 74.3424 74.67H68.439ZM78.6624 67.5938H84.3311C84.0966 70.1545 83.3147 72.5393 82.1027 74.67H77.6459C78.2128 72.5002 78.5451 70.1154 78.6624 67.5938ZM78.6624 64.4076C78.5646 61.8859 78.2128 59.5011 77.6459 57.3314H82.1027C83.3147 59.462 84.0966 61.8468 84.3311 64.4076H78.6624ZM79.7766 54.1256H76.649C76.0821 52.6986 75.4175 51.4085 74.6747 50.2747C76.6099 51.2325 78.33 52.5422 79.7766 54.1256ZM59.0171 50.2747C58.2743 51.4085 57.6097 52.6986 57.0428 54.1256H53.8957C55.3422 52.5422 57.0819 51.2325 59.0171 50.2747ZM53.9152 77.8758H57.0624C57.6292 79.3028 58.2939 80.5929 59.0367 81.7266C57.1015 80.7688 55.3617 79.4591 53.9152 77.8758ZM74.6747 81.7266C75.4175 80.5929 76.0821 79.3028 76.649 77.8758H79.7961C78.3496 79.4591 76.6099 80.7688 74.6747 81.7266Z" fill="white"/>
</g>
<path d="M28.8656 34.7486C30.5577 34.7486 31.9294 33.371 31.9294 31.6717C31.9294 29.9723 30.5577 28.5947 28.8656 28.5947C27.1735 28.5947 25.8018 29.9723 25.8018 31.6717C25.8018 33.371 27.1735 34.7486 28.8656 34.7486Z" fill="#005FF5"/>
<path d="M39.5892 34.7486C41.2813 34.7486 42.653 33.371 42.653 31.6717C42.653 29.9723 41.2813 28.5947 39.5892 28.5947C37.8971 28.5947 36.5254 29.9723 36.5254 31.6717C36.5254 33.371 37.8971 34.7486 39.5892 34.7486Z" fill="#005FF5"/>
<path d="M50.3129 34.7486C52.005 34.7486 53.3767 33.371 53.3767 31.6717C53.3767 29.9723 52.005 28.5947 50.3129 28.5947C48.6207 28.5947 47.249 29.9723 47.249 31.6717C47.249 33.371 48.6207 34.7486 50.3129 34.7486Z" fill="#005FF5"/>
<path d="M23.7498 63.6924C23.7498 62.7259 22.9663 61.9424 21.9998 61.9424C21.0333 61.9424 20.2498 62.7259 20.2498 63.6924C20.2498 68.8498 16.0803 73.0193 10.9229 73.0193C9.95635 73.0193 9.17285 73.8028 9.17285 74.7693C9.17285 75.7358 9.95635 76.5193 10.9229 76.5193C16.0803 76.5193 20.2498 80.6888 20.2498 85.8462C20.2498 86.8127 21.0333 87.5962 21.9998 87.5962C22.9663 87.5962 23.7498 86.8127 23.7498 85.8462C23.7498 80.6888 27.9192 76.5193 33.0767 76.5193C34.0432 76.5193 34.8267 75.7358 34.8267 74.7693C34.8267 73.8028 34.0432 73.0193 33.0767 73.0193C27.9192 73.0193 23.7498 68.8498 23.7498 63.6924Z" fill="url(#paint1_linear_2578_2797)" stroke="white" stroke-width="3.5" stroke-linejoin="round"/>
<path d="M10.4808 49.6152C10.4808 48.9249 9.9212 48.3652 9.23084 48.3652C8.54049 48.3652 7.98084 48.9249 7.98084 49.6152C7.98084 51.9869 6.064 53.9037 3.69238 53.9037C3.00203 53.9037 2.44238 54.4633 2.44238 55.1537C2.44238 55.844 3.00203 56.4037 3.69238 56.4037C6.064 56.4037 7.98084 58.3205 7.98084 60.6922C7.98084 61.3825 8.54049 61.9422 9.23084 61.9422C9.9212 61.9422 10.4808 61.3825 10.4808 60.6922C10.4808 58.3205 12.3977 56.4037 14.7693 56.4037C15.4597 56.4037 16.0193 55.844 16.0193 55.1537C16.0193 54.4633 15.4597 53.9037 14.7693 53.9037C12.3977 53.9037 10.4808 51.9869 10.4808 49.6152Z" fill="url(#paint2_linear_2578_2797)" stroke="white" stroke-width="2.5" stroke-linejoin="round"/>
<defs>
<linearGradient id="paint0_linear_2578_2797" x1="68.3075" y1="39.4873" x2="68.3075" y2="92.8207" gradientUnits="userSpaceOnUse">
<stop stop-color="#005FF5"/>
<stop offset="1" stop-color="#00CDFF"/>
</linearGradient>
<linearGradient id="paint1_linear_2578_2797" x1="21.9998" y1="39.5" x2="21.9998" y2="92.5" gradientUnits="userSpaceOnUse">
<stop stop-color="#005FF5"/>
<stop offset="1" stop-color="#00CDFF"/>
</linearGradient>
<linearGradient id="paint2_linear_2578_2797" x1="9.23084" y1="40" x2="9.23084" y2="92" gradientUnits="userSpaceOnUse">
<stop stop-color="#005FF5"/>
<stop offset="1" stop-color="#00CDFF"/>
</linearGradient>
<clipPath id="clip0_2578_2797">
<rect width="41.5385" height="41.5385" fill="white" transform="translate(46.0767 45.2314)"/>
</clipPath>
</defs>
</svg>
