<svg width="120" height="120" viewBox="0 0 120 120" fill="none" xmlns="http://www.w3.org/2000/svg">
<path d="M104.25 26.7529H36.0005C33.0955 26.7529 30.7505 29.0979 30.7505 32.0029V37.2529C30.7505 40.1579 33.0955 42.5029 36.0005 42.5029H104.25C107.155 42.5029 109.5 40.1579 109.5 37.2529V32.0029C109.5 29.0979 107.155 26.7529 104.25 26.7529Z" fill="url(#paint0_linear_2582_2937)"/>
<path d="M87.8013 37.252C89.251 37.252 90.4263 36.0767 90.4263 34.627C90.4263 33.1772 89.251 32.002 87.8013 32.002C86.3515 32.002 85.1763 33.1772 85.1763 34.627C85.1763 36.0767 86.3515 37.252 87.8013 37.252Z" fill="white"/>
<path d="M98.2998 37.252C99.7496 37.252 100.925 36.0767 100.925 34.627C100.925 33.1772 99.7496 32.002 98.2998 32.002C96.8501 32.002 95.6748 33.1772 95.6748 34.627C95.6748 36.0767 96.8501 37.252 98.2998 37.252Z" fill="white"/>
<path d="M104.25 52.124H36.0005C33.0955 52.124 30.7505 54.469 30.7505 57.374V62.624C30.7505 65.529 33.0955 67.874 36.0005 67.874H104.25C107.155 67.874 109.5 65.529 109.5 62.624V57.374C109.5 54.469 107.155 52.124 104.25 52.124Z" fill="url(#paint1_linear_2582_2937)"/>
<path d="M87.7988 62.623C89.2486 62.623 90.4238 61.4478 90.4238 59.998C90.4238 58.5483 89.2486 57.373 87.7988 57.373C86.3491 57.373 85.1738 58.5483 85.1738 59.998C85.1738 61.4478 86.3491 62.623 87.7988 62.623Z" fill="white"/>
<path d="M98.2993 62.623C99.7491 62.623 100.924 61.4478 100.924 59.998C100.924 58.5483 99.7491 57.373 98.2993 57.373C96.8496 57.373 95.6743 58.5483 95.6743 59.998C95.6743 61.4478 96.8496 62.623 98.2993 62.623Z" fill="white"/>
<path d="M104.25 77.5H36.0005C33.0955 77.5 30.7505 79.845 30.7505 82.75V88C30.7505 90.905 33.0955 93.25 36.0005 93.25H104.25C107.155 93.25 109.5 90.905 109.5 88V82.75C109.5 79.845 107.155 77.5 104.25 77.5Z" fill="url(#paint2_linear_2582_2937)"/>
<path d="M87.7988 87.999C89.2486 87.999 90.4238 86.8238 90.4238 85.374C90.4238 83.9243 89.2486 82.749 87.7988 82.749C86.3491 82.749 85.1738 83.9243 85.1738 85.374C85.1738 86.8238 86.3491 87.999 87.7988 87.999Z" fill="white"/>
<path d="M98.2993 87.999C99.7491 87.999 100.924 86.8238 100.924 85.374C100.924 83.9243 99.7491 82.749 98.2993 82.749C96.8496 82.749 95.6743 83.9243 95.6743 85.374C95.6743 86.8238 96.8496 87.999 98.2993 87.999Z" fill="white"/>
<path d="M104.25 44.25C108.117 44.25 111.25 41.1175 111.25 37.25V32C111.25 28.1325 108.117 25 104.25 25H36C32.1325 25 29 28.1325 29 32V37.25C29 41.1175 32.1325 44.25 36 44.25H41.25V50.375H36C32.1325 50.375 29 53.5075 29 57.375V62.625C29 66.4925 32.1325 69.625 36 69.625H41.25V75.75H36C32.1325 75.75 29 78.8825 29 82.75V88C29 91.8675 32.1325 95 36 95H104.25C108.117 95 111.25 91.8675 111.25 88V82.75C111.25 78.8825 108.117 75.75 104.25 75.75H99V69.625H104.25C108.117 69.625 111.25 66.4925 111.25 62.625V57.375C111.25 53.5075 108.117 50.375 104.25 50.375H99V44.25H104.25ZM32.5 37.25V32C32.5 30.075 34.075 28.5 36 28.5H104.25C106.175 28.5 107.75 30.075 107.75 32V37.25C107.75 39.175 106.175 40.75 104.25 40.75H36C34.075 40.75 32.5 39.175 32.5 37.25ZM51.75 50.375V44.25H88.5V50.375H51.75ZM44.75 44.25H48.25V50.375H44.75V44.25ZM44.75 69.625H48.25V75.75H44.75V69.625ZM51.75 75.75V69.625H88.5V75.75H51.75ZM107.75 82.75V88C107.75 89.925 106.175 91.5 104.25 91.5H36C34.075 91.5 32.5 89.925 32.5 88V82.75C32.5 80.825 34.075 79.25 36 79.25H104.25C106.175 79.25 107.75 80.825 107.75 82.75ZM95.5 75.75H92V69.625H95.5V75.75ZM107.75 57.375V62.625C107.75 64.55 106.175 66.125 104.25 66.125H36C34.075 66.125 32.5 64.55 32.5 62.625V57.375C32.5 55.45 34.075 53.875 36 53.875H104.25C106.175 53.875 107.75 55.45 107.75 57.375ZM95.5 50.375H92V44.25H95.5V50.375Z" fill="white"/>
<path d="M24.8269 49C24.8269 48.0335 24.0434 47.25 23.0769 47.25C22.1104 47.25 21.3269 48.0335 21.3269 49C21.3269 54.1575 17.1575 58.3269 12 58.3269C11.0335 58.3269 10.25 59.1104 10.25 60.0769C10.25 61.0434 11.0335 61.8269 12 61.8269C17.1575 61.8269 21.3269 65.9964 21.3269 71.1538C21.3269 72.1203 22.1104 72.9038 23.0769 72.9038C24.0434 72.9038 24.8269 72.1203 24.8269 71.1538C24.8269 65.9964 28.9964 61.8269 34.1538 61.8269C35.1203 61.8269 35.9038 61.0434 35.9038 60.0769C35.9038 59.1104 35.1203 58.3269 34.1538 58.3269C28.9964 58.3269 24.8269 54.1575 24.8269 49Z" fill="url(#paint3_linear_2582_2937)" stroke="white" stroke-width="3.5" stroke-linejoin="round"/>
<path d="M11.7885 34C11.7885 33.3096 11.2288 32.75 10.5385 32.75C9.8481 32.75 9.28846 33.3096 9.28846 34C9.28846 36.3716 7.37162 38.2885 5 38.2885C4.30964 38.2885 3.75 38.8481 3.75 39.5385C3.75 40.2288 4.30964 40.7885 5 40.7885C7.37162 40.7885 9.28846 42.7053 9.28846 45.0769C9.28846 45.7673 9.8481 46.3269 10.5385 46.3269C11.2288 46.3269 11.7885 45.7673 11.7885 45.0769C11.7885 42.7053 13.7053 40.7885 16.0769 40.7885C16.7673 40.7885 17.3269 40.2288 17.3269 39.5385C17.3269 38.8481 16.7673 38.2885 16.0769 38.2885C13.7053 38.2885 11.7885 36.3716 11.7885 34Z" fill="url(#paint4_linear_2582_2937)" stroke="white" stroke-width="2.5" stroke-linejoin="round"/>
<defs>
<linearGradient id="paint0_linear_2582_2937" x1="70.1255" y1="26.7529" x2="70.1255" y2="93.5" gradientUnits="userSpaceOnUse">
<stop stop-color="#005FF5"/>
<stop offset="1" stop-color="#00CDFF"/>
</linearGradient>
<linearGradient id="paint1_linear_2582_2937" x1="70.1255" y1="27" x2="70.1255" y2="93.5" gradientUnits="userSpaceOnUse">
<stop stop-color="#005FF5"/>
<stop offset="1" stop-color="#00CDFF"/>
</linearGradient>
<linearGradient id="paint2_linear_2582_2937" x1="70.1255" y1="27" x2="70.1255" y2="93.25" gradientUnits="userSpaceOnUse">
<stop stop-color="#005FF5"/>
<stop offset="1" stop-color="#00CDFF"/>
</linearGradient>
<linearGradient id="paint3_linear_2582_2937" x1="23.0769" y1="28" x2="23.0769" y2="93" gradientUnits="userSpaceOnUse">
<stop stop-color="#005FF5"/>
<stop offset="1" stop-color="#00CDFF"/>
</linearGradient>
<linearGradient id="paint4_linear_2582_2937" x1="10.5385" y1="26" x2="10.5385" y2="93" gradientUnits="userSpaceOnUse">
<stop stop-color="#005FF5"/>
<stop offset="1" stop-color="#00CDFF"/>
</linearGradient>
</defs>
</svg>
