<svg width="120" height="120" viewBox="0 0 120 120" fill="none" xmlns="http://www.w3.org/2000/svg">
<path d="M14.4808 56.6152C14.4808 55.9249 13.9212 55.3652 13.2308 55.3652C12.5405 55.3652 11.9808 55.9249 11.9808 56.6152C11.9808 58.9869 10.064 60.9037 7.69238 60.9037C7.00203 60.9037 6.44238 61.4633 6.44238 62.1537C6.44238 62.844 7.00203 63.4037 7.69238 63.4037C10.064 63.4037 11.9808 65.3205 11.9808 67.6922C11.9808 68.3825 12.5405 68.9422 13.2308 68.9422C13.9212 68.9422 14.4808 68.3825 14.4808 67.6922C14.4808 65.3205 16.3977 63.4037 18.7693 63.4037C19.4597 63.4037 20.0193 62.844 20.0193 62.1537C20.0193 61.4633 19.4597 60.9037 18.7693 60.9037C16.3977 60.9037 14.4808 58.9869 14.4808 56.6152Z" fill="url(#paint0_linear_2582_2982)" stroke="white" stroke-width="2.5" stroke-linejoin="round"/>
<path d="M56.7248 107.455C55.1485 107.455 53.5721 107.084 52.1502 106.373L23.7599 92.1704C21.5963 91.0886 20.3599 88.8322 20.5608 86.4058C20.3599 83.9794 21.5963 81.723 23.7599 80.6412L52.1502 66.4383C53.5566 65.7274 55.1485 65.3564 56.7248 65.3564C58.3012 65.3564 59.8776 65.7274 61.2994 66.4383L89.6898 80.6412C91.8534 81.723 93.0898 83.9639 92.8889 86.4058C93.1053 88.8476 91.8534 91.104 89.6898 92.1704L61.2994 106.373C59.8931 107.084 58.3012 107.455 56.7248 107.455Z" fill="url(#paint1_linear_2582_2982)"/>
<path d="M60.8277 67.3661L60.8253 67.365C59.5362 66.7286 58.1314 66.4015 56.7249 66.4015C55.3183 66.4015 53.9135 66.7286 52.6244 67.365L52.622 67.3662L24.2317 81.569L24.2303 81.5698C22.2606 82.5631 21.4358 84.5434 21.6191 86.4053C21.4358 88.2673 22.2606 90.2476 24.2302 91.2409L24.2317 91.2417L52.622 105.445L52.6244 105.446C53.9135 106.082 55.3183 106.409 56.7249 106.409C58.1271 106.409 59.5337 106.099 60.8283 105.444C60.8288 105.444 60.8293 105.444 60.8298 105.443L89.2163 91.2425C89.2165 91.2424 89.2167 91.2423 89.2169 91.2422C91.1867 90.2656 92.0293 88.2704 91.8311 86.4054C92.0293 84.5403 91.1867 82.5451 89.2169 81.5685C89.2167 81.5684 89.2165 81.5683 89.2163 81.5682L60.8277 67.3661ZM19.5142 86.4386L19.5165 86.4053L19.5142 86.3721C19.3265 83.5559 20.7824 80.965 23.3043 79.6966C23.3044 79.6966 23.3045 79.6966 23.3046 79.6965L51.6921 65.495C51.6925 65.4948 51.6929 65.4946 51.6933 65.4944C53.2435 64.7269 54.9699 64.313 56.7095 64.3106C58.4372 64.3129 60.1776 64.7131 61.7232 65.4933L61.7248 65.4941L90.1152 79.697L90.1163 79.6975C92.6373 80.9509 94.1068 83.5406 93.9047 86.3697L93.9022 86.4053L93.9047 86.441C94.1069 89.272 92.6511 91.8607 90.1317 93.1132L90.1306 93.1137L61.7421 107.316C61.7416 107.316 61.7411 107.316 61.7405 107.316C60.1861 108.086 58.4389 108.5 56.7094 108.5C54.9765 108.5 53.2304 108.1 51.6801 107.317L51.6785 107.317L23.2901 93.1147C23.2899 93.1146 23.2896 93.1144 23.2894 93.1143C20.7826 91.8462 19.3265 89.2551 19.5142 86.4386Z" fill="white" stroke="white"/>
<path d="M56.725 57.009C56.4932 57.009 56.2459 56.9471 56.0295 56.839L31.642 44.6606C31.1165 44.3979 30.792 43.857 30.792 43.2852C30.792 42.7133 31.1165 42.157 31.642 41.8942L56.0295 29.7159C56.2459 29.6077 56.4777 29.5459 56.725 29.5459C56.9723 29.5459 57.2041 29.6077 57.4205 29.7159L81.808 41.9097C82.3335 42.1724 82.658 42.7133 82.658 43.3006C82.658 43.8879 82.3335 44.4288 81.808 44.6761L57.4205 56.8544C57.2041 56.9626 56.9723 57.0244 56.725 57.0244V57.009Z" fill="url(#paint2_linear_2582_2982)"/>
<path d="M56.7251 31.0909L81.1126 43.2847L56.7251 55.463L32.3375 43.2847L56.7251 31.0909ZM56.7251 28C56.246 28 55.7823 28.1082 55.3496 28.3245L30.9621 40.5183C29.9111 41.0438 29.2466 42.1102 29.2466 43.2847C29.2466 44.4593 29.9111 45.5257 30.9621 46.0511L55.3496 58.2294C55.7823 58.4458 56.2614 58.554 56.7251 58.554C57.1887 58.554 57.6678 58.4458 58.1005 58.2294L82.4881 46.0511C83.539 45.5257 84.2035 44.4593 84.2035 43.2847C84.2035 42.1102 83.539 41.0438 82.4881 40.5183L58.1005 28.3245C57.6678 28.1082 57.1887 28 56.7251 28Z" fill="white"/>
<path d="M56.7248 98.1817C55.1485 98.1817 53.5721 97.8108 52.1502 97.0998L23.7599 82.897C21.5963 81.8151 20.3599 79.5587 20.5608 77.1323C20.3599 74.7059 21.5963 72.4496 23.7599 71.3677L52.1502 57.1648C53.5566 56.4539 55.1485 56.083 56.7248 56.083C58.3012 56.083 59.8776 56.4539 61.2994 57.1648L89.6898 71.3677C91.8534 72.4496 93.0898 74.6905 92.8889 77.1323C93.1052 79.5742 91.8534 81.8306 89.6898 82.897L61.2994 97.0998C59.8931 97.8108 58.3012 98.1817 56.7248 98.1817Z" fill="url(#paint3_linear_2582_2982)"/>
<path d="M60.8277 58.0927L60.8253 58.0915C59.5362 57.4551 58.1314 57.1281 56.7249 57.1281C55.3183 57.1281 53.9135 57.4551 52.6244 58.0915L52.622 58.0927L24.2317 72.2956L24.2303 72.2963C22.2606 73.2897 21.4358 75.27 21.6191 77.1319C21.4358 78.9939 22.2606 80.9741 24.2302 81.9675L24.2317 81.9682L52.622 96.1711L52.6244 96.1723C53.9135 96.8087 55.3183 97.1358 56.7249 97.1358C58.1271 97.1358 59.5337 96.826 60.8283 96.1708C60.8288 96.1705 60.8293 96.1703 60.8298 96.17L89.2163 81.969C89.2165 81.969 89.2167 81.9689 89.2169 81.9688C91.1867 80.9922 92.0293 78.997 91.8311 77.1319C92.0293 75.2669 91.1867 73.2717 89.2169 72.295C89.2167 72.295 89.2165 72.2949 89.2163 72.2948L60.8277 58.0927ZM19.5142 77.1652L19.5165 77.1319L19.5142 77.0987C19.3265 74.2824 20.7824 71.6915 23.3043 70.4232C23.3044 70.4232 23.3045 70.4231 23.3046 70.4231L51.6921 56.2216C51.6925 56.2214 51.6929 56.2212 51.6933 56.221C53.2435 55.4535 54.9699 55.0395 56.7095 55.0371C58.4372 55.0395 60.1776 55.4396 61.7232 56.2199L61.7248 56.2207L90.1152 70.4235L90.1163 70.4241C92.6373 71.6774 94.1068 74.2671 93.9047 77.0963L93.9022 77.1319L93.9047 77.1675C94.1069 79.9986 92.6511 82.5872 90.1317 83.8397L90.1306 83.8403L61.7421 98.0423C61.7416 98.0425 61.7411 98.0428 61.7405 98.0431C60.1861 98.8125 58.4389 99.2267 56.7094 99.2267C54.9765 99.2267 53.2304 98.8265 51.6801 98.044L51.6785 98.0432L23.2901 83.8413C23.2899 83.8411 23.2896 83.841 23.2894 83.8409C20.7826 82.5727 19.3265 79.9816 19.5142 77.1652Z" fill="white" stroke="white"/>
<path d="M105.057 32.0771C105.057 31.1107 104.274 30.3271 103.307 30.3271C102.341 30.3271 101.557 31.1107 101.557 32.0771C101.557 37.2346 97.3879 41.4041 92.2305 41.4041C91.264 41.4041 90.4805 42.1876 90.4805 43.1541C90.4805 44.1206 91.264 44.9041 92.2305 44.9041C97.3879 44.9041 101.557 49.0735 101.557 54.231C101.557 55.1975 102.341 55.981 103.307 55.981C104.274 55.981 105.057 55.1975 105.057 54.231C105.057 49.0735 109.227 44.9041 114.384 44.9041C115.351 44.9041 116.134 44.1206 116.134 43.1541C116.134 42.1876 115.351 41.4041 114.384 41.4041C109.227 41.4041 105.057 37.2346 105.057 32.0771Z" fill="url(#paint4_linear_2582_2982)" stroke="white" stroke-width="3.5" stroke-linejoin="round"/>
<path d="M93.7885 18C93.7885 17.3096 93.2288 16.75 92.5385 16.75C91.8481 16.75 91.2885 17.3096 91.2885 18C91.2885 20.3716 89.3716 22.2885 87 22.2885C86.3096 22.2885 85.75 22.8481 85.75 23.5385C85.75 24.2288 86.3096 24.7885 87 24.7885C89.3716 24.7885 91.2885 26.7053 91.2885 29.0769C91.2885 29.7673 91.8481 30.3269 92.5385 30.3269C93.2288 30.3269 93.7885 29.7673 93.7885 29.0769C93.7885 26.7053 95.7053 24.7885 98.0769 24.7885C98.7673 24.7885 99.3269 24.2288 99.3269 23.5385C99.3269 22.8481 98.7673 22.2885 98.0769 22.2885C95.7053 22.2885 93.7885 20.3716 93.7885 18Z" fill="url(#paint5_linear_2582_2982)" stroke="white" stroke-width="2.5" stroke-linejoin="round"/>
<path d="M54.8461 84.4537C54.628 84.4537 54.3954 84.3955 54.1919 84.2938L31.2531 72.7938C30.7589 72.5466 30.4536 72.0379 30.4536 71.5L30.4536 43.9078C30.4536 43.399 30.7153 42.9338 31.1368 42.6722C31.3694 42.5268 31.6311 42.4541 31.9073 42.4541C32.1253 42.4541 32.3579 42.5122 32.5614 42.614L55.5002 54.0689C55.9944 54.316 56.2997 54.8248 56.2997 55.3626V83C56.2997 83.5088 56.0381 83.974 55.6165 84.2356C55.3839 84.381 55.1222 84.4537 54.8461 84.4537Z" fill="url(#paint6_linear_2582_2982)"/>
<path d="M32.1307 43.46L31.4073 43.0988L31.4073 43.9073L31.4073 71.0306L31.4073 71.3396L31.6837 71.4778L54.6225 82.9472L55.3461 83.309L55.3461 82.5L55.3461 55.3622V55.053L55.0695 54.9149L32.1307 43.46ZM30.6414 41.8629L30.6415 41.8629L30.646 41.8601C31.03 41.6201 31.4612 41.5 31.9073 41.5C32.2676 41.5 32.6415 41.5845 32.9775 41.7525L32.9777 41.7526L55.9163 53.2073C56.7369 53.6176 57.2534 54.4484 57.2534 55.3622L57.2534 82.5C57.2534 83.331 56.819 84.113 56.112 84.5444L56.112 84.5444L56.1074 84.5472C55.7234 84.7872 55.2922 84.9073 54.8461 84.9073C54.4858 84.9073 54.112 84.8228 53.7759 84.6548L30.8372 73.1854C30.0166 72.7752 29.5 71.9443 29.5 71.0306L29.5 43.9073C29.5 43.0764 29.9345 42.2943 30.6414 41.8629Z" fill="white" stroke="white"/>
<path d="M57.953 83.6977C57.6872 83.6977 57.4067 83.6239 57.1705 83.4762C56.7423 83.2105 56.4766 82.738 56.4766 82.2213V55.587C56.4766 55.026 56.7866 54.5092 57.2886 54.273L80.5862 42.639C80.7929 42.5356 81.0143 42.4766 81.2506 42.4766C81.5163 42.4766 81.7968 42.5504 82.0331 42.698C82.4612 42.9638 82.727 43.4362 82.727 43.953V70.5725C82.727 71.1335 82.4169 71.6503 81.915 71.8865L58.6173 83.5353C58.4106 83.6387 58.1892 83.6977 57.953 83.6977Z" fill="url(#paint7_linear_2582_2982)"/>
<path d="M81.7504 43.9528V43.1442L81.027 43.5055L57.7294 55.1395L57.4528 55.2777V55.5869V82.2211V83.0302L58.1764 82.6684L81.474 71.0195L81.7504 70.8813V70.5723V43.9528ZM80.1598 41.7574L80.16 41.7573C80.5035 41.5855 80.8698 41.5 81.2504 41.5C81.6915 41.5 82.1454 41.623 82.5356 41.8669L82.5356 41.8669L82.5402 41.8697C83.2606 42.3093 83.7032 43.1061 83.7032 43.9528V70.5723C83.7032 71.5033 83.1768 72.3498 82.3408 72.7679L59.0432 84.4167C58.6997 84.5884 58.3334 84.6739 57.9528 84.6739C57.5117 84.6739 57.0578 84.5509 56.6676 84.307L56.663 84.3042C55.9426 83.8646 55.5 83.0678 55.5 82.2211V55.5869C55.5 54.6559 56.0263 53.8095 56.8622 53.3914C56.8623 53.3914 56.8623 53.3913 56.8624 53.3913L80.1598 41.7574Z" fill="white" stroke="white"/>
<path d="M60 84.5C56.4 86.5 53.5 85.3333 52.5 84.5V83.5H59L60 84.5Z" fill="white"/>
<defs>
<linearGradient id="paint0_linear_2582_2982" x1="56.5" y1="29" x2="56.5" y2="107.5" gradientUnits="userSpaceOnUse">
<stop stop-color="#005FF5"/>
<stop offset="1" stop-color="#00CDFF"/>
</linearGradient>
<linearGradient id="paint1_linear_2582_2982" x1="56.7263" y1="31" x2="56.7263" y2="107.455" gradientUnits="userSpaceOnUse">
<stop stop-color="#005FF5"/>
<stop offset="1" stop-color="#00CDFF"/>
</linearGradient>
<linearGradient id="paint2_linear_2582_2982" x1="56.725" y1="29.5459" x2="56.725" y2="106.5" gradientUnits="userSpaceOnUse">
<stop stop-color="#005FF5"/>
<stop offset="1" stop-color="#00CDFF"/>
</linearGradient>
<linearGradient id="paint3_linear_2582_2982" x1="56.7263" y1="31" x2="56.7263" y2="107.5" gradientUnits="userSpaceOnUse">
<stop stop-color="#005FF5"/>
<stop offset="1" stop-color="#00CDFF"/>
</linearGradient>
<linearGradient id="paint4_linear_2582_2982" x1="56.5" y1="30" x2="56.5" y2="106.5" gradientUnits="userSpaceOnUse">
<stop stop-color="#005FF5"/>
<stop offset="1" stop-color="#00CDFF"/>
</linearGradient>
<linearGradient id="paint5_linear_2582_2982" x1="56.5" y1="30" x2="56.5" y2="107" gradientUnits="userSpaceOnUse">
<stop stop-color="#005FF5"/>
<stop offset="1" stop-color="#00CDFF"/>
</linearGradient>
<linearGradient id="paint6_linear_2582_2982" x1="54.1641" y1="31.4122" x2="54.1641" y2="103.368" gradientUnits="userSpaceOnUse">
<stop stop-color="#005FF5"/>
<stop offset="1" stop-color="#00CDFF"/>
</linearGradient>
<linearGradient id="paint7_linear_2582_2982" x1="69.6018" y1="42.4766" x2="69.6018" y2="83.6977" gradientUnits="userSpaceOnUse">
<stop stop-color="#005FF5"/>
<stop offset="1" stop-color="#00CDFF"/>
</linearGradient>
</defs>
</svg>
