<svg width="120" height="120" viewBox="0 0 120 120" fill="none" xmlns="http://www.w3.org/2000/svg">
<path d="M19.4808 49.6152C19.4808 48.9249 18.9212 48.3652 18.2308 48.3652C17.5405 48.3652 16.9808 48.9249 16.9808 49.6152C16.9808 51.9869 15.064 53.9037 12.6924 53.9037C12.002 53.9037 11.4424 54.4633 11.4424 55.1537C11.4424 55.844 12.002 56.4037 12.6924 56.4037C15.064 56.4037 16.9808 58.3205 16.9808 60.6922C16.9808 61.3825 17.5405 61.9422 18.2308 61.9422C18.9212 61.9422 19.4808 61.3825 19.4808 60.6922C19.4808 58.3205 21.3977 56.4037 23.7693 56.4037C24.4597 56.4037 25.0193 55.844 25.0193 55.1537C25.0193 54.4633 24.4597 53.9037 23.7693 53.9037C21.3977 53.9037 19.4808 51.9869 19.4808 49.6152Z" fill="url(#paint0_linear_2582_2997)" stroke="white" stroke-width="2.5" stroke-linejoin="round"/>
<path d="M104.211 78.5568C103.664 78.5568 103.148 78.2599 102.867 77.7912C101.633 75.7134 88.9624 72.6981 69.2771 72.6981C49.5918 72.6981 36.9058 75.7134 35.6871 77.7912C35.4059 78.2756 34.8904 78.5568 34.3435 78.5568H34.1248C33.2655 78.5568 32.5625 77.8537 32.5625 76.9945V30.1248C32.5625 29.2655 33.2655 28.5625 34.1248 28.5625H34.3435C34.8904 28.5625 35.4059 28.8593 35.6871 29.328C36.9214 31.4059 49.5918 34.4212 69.2771 34.4212C88.9624 34.4212 101.648 31.4059 102.867 29.328C103.148 28.8437 103.664 28.5625 104.211 28.5625H104.429C105.289 28.5625 105.992 29.2655 105.992 30.1248V76.9945C105.992 77.8537 105.289 78.5568 104.429 78.5568H104.211Z" fill="url(#paint1_linear_2582_2997)"/>
<path d="M104.429 30.1246V76.9943H104.21C102.258 73.6978 87.3686 71.1356 69.2769 71.1356C51.1852 71.1356 36.2807 73.6978 34.3434 76.9943H34.1246V30.1246H34.3434C36.2963 33.4211 51.1852 35.9833 69.2769 35.9833C87.3686 35.9833 102.273 33.4211 104.21 30.1246H104.429ZM104.429 27H104.21C103.148 27 102.148 27.5468 101.586 28.4373C99.9765 29.9997 88.9778 32.8587 69.2769 32.8587C49.576 32.8587 38.5773 29.9997 36.9681 28.4373C36.39 27.5468 35.4057 27 34.3434 27H34.1246C32.4061 27 31 28.4061 31 30.1246V76.9943C31 78.7128 32.4061 80.1189 34.1246 80.1189H34.3434C35.4057 80.1189 36.4056 79.5721 36.9681 78.6816C38.5773 77.1193 49.576 74.2602 69.2769 74.2602C88.9778 74.2602 99.9765 77.1193 101.586 78.6816C102.164 79.5721 103.148 80.1189 104.21 80.1189H104.429C106.148 80.1189 107.554 78.7128 107.554 76.9943V30.1246C107.554 28.4061 106.148 27 104.429 27Z" fill="white"/>
<path d="M34.125 61.9952L48.8421 52.0901C51.5136 50.2935 54.9351 50.106 57.7786 51.6214L73.0425 62.3546C74.3079 63.2451 75.9796 63.2764 77.2763 62.4483L83.5413 58.4332C86.4159 56.3865 90.2592 56.2928 93.2277 58.1988L104.414 65.3855" stroke="white" stroke-width="3" stroke-linecap="round" stroke-linejoin="round"/>
<path d="M67.4482 58.4207L84.1495 47.8438C87.5553 45.6878 91.9142 45.7502 95.2576 48.0156L104.428 54.2024" stroke="white" stroke-width="3" stroke-linecap="round" stroke-linejoin="round"/>
<path d="M44.3745 47.6992C46.7961 47.6992 48.7646 45.7307 48.7646 43.3091C48.7646 40.8875 46.7961 38.9189 44.3745 38.9189C41.9529 38.9189 39.9844 40.8875 39.9844 43.3091C39.9844 45.7307 41.9529 47.6992 44.3745 47.6992Z" fill="white"/>
<path d="M69.2741 92.0777C62.6655 92.0777 41.1055 91.6403 41.1055 86.0784C41.1055 80.5166 62.6655 80.0791 69.2741 80.0791C75.8828 80.0791 97.4428 80.5166 97.4428 86.0784C97.4428 91.6403 75.8828 92.0777 69.2741 92.0777Z" fill="url(#paint2_linear_2582_2997)"/>
<path d="M69.273 81.6871C83.9432 81.6871 95.8325 83.6557 95.8325 86.0773C95.8325 88.4989 83.9432 90.4674 69.273 90.4674C54.6028 90.4674 42.7135 88.4989 42.7135 86.0773C42.7135 83.6557 54.6028 81.6871 69.273 81.6871ZM69.273 78.4531C62.0082 78.4531 55.1496 78.9218 49.9627 79.7811C44.5258 80.6872 39.4795 82.0621 39.4795 86.0616C39.4795 90.0612 44.5102 91.4516 49.9627 92.3422C55.1496 93.2014 62.0082 93.6701 69.273 93.6701C76.5378 93.6701 83.3964 93.2014 88.5833 92.3422C94.0202 91.436 99.0665 90.0612 99.0665 86.0616C99.0665 82.0621 94.0358 80.6716 88.5833 79.7811C83.3964 78.9218 76.5378 78.4531 69.273 78.4531Z" fill="white"/>
<path d="M32.7498 63.6924C32.7498 62.7259 31.9663 61.9424 30.9998 61.9424C30.0333 61.9424 29.2498 62.7259 29.2498 63.6924C29.2498 68.8498 25.0803 73.0193 19.9229 73.0193C18.9564 73.0193 18.1729 73.8028 18.1729 74.7693C18.1729 75.7358 18.9564 76.5193 19.9229 76.5193C25.0803 76.5193 29.2498 80.6888 29.2498 85.8462C29.2498 86.8127 30.0333 87.5962 30.9998 87.5962C31.9663 87.5962 32.7498 86.8127 32.7498 85.8462C32.7498 80.6888 36.9192 76.5193 42.0767 76.5193C43.0432 76.5193 43.8267 75.7358 43.8267 74.7693C43.8267 73.8028 43.0432 73.0193 42.0767 73.0193C36.9192 73.0193 32.7498 68.8498 32.7498 63.6924Z" fill="url(#paint3_linear_2582_2997)" stroke="white" stroke-width="3.5" stroke-linejoin="round"/>
<defs>
<linearGradient id="paint0_linear_2582_2997" x1="18.2308" y1="32" x2="18.2308" y2="92" gradientUnits="userSpaceOnUse">
<stop stop-color="#005FF5"/>
<stop offset="1" stop-color="#00CDFF"/>
</linearGradient>
<linearGradient id="paint1_linear_2582_2997" x1="69.2771" y1="34" x2="69.2771" y2="92" gradientUnits="userSpaceOnUse">
<stop stop-color="#005FF5"/>
<stop offset="1" stop-color="#00CDFF"/>
</linearGradient>
<linearGradient id="paint2_linear_2582_2997" x1="69.2741" y1="34.5" x2="69.2741" y2="92.0777" gradientUnits="userSpaceOnUse">
<stop stop-color="#005FF5"/>
<stop offset="1" stop-color="#00CDFF"/>
</linearGradient>
<linearGradient id="paint3_linear_2582_2997" x1="30.9998" y1="33.5" x2="30.9998" y2="92.5" gradientUnits="userSpaceOnUse">
<stop stop-color="#005FF5"/>
<stop offset="1" stop-color="#00CDFF"/>
</linearGradient>
</defs>
</svg>
