<svg width="390" height="319" viewBox="0 0 390 319" fill="none" xmlns="http://www.w3.org/2000/svg">
<g clip-path="url(#clip0_4438_2690)">
<path d="M89.8098 91.5014L80.4398 139.131L38.0098 133.081L47.3798 85.4414L89.8098 91.5014Z" fill="url(#paint0_linear_4438_2690)"/>
<path d="M38.01 133.08L11 122.63L20.37 75L47.38 85.44L38.01 133.08Z" fill="url(#paint1_linear_4438_2690)"/>
<path d="M47.3801 85.44L20.3701 75L62.8001 81.05L89.8101 91.5L47.3801 85.44Z" fill="url(#paint2_linear_4438_2690)"/>
</g>
<g clip-path="url(#clip1_4438_2690)">
<g opacity="0.4">
<path d="M62.9511 3.39209L73.5156 30.0002L50.5383 40.5434L39.9738 13.9353L62.9511 3.39209Z" fill="url(#paint3_linear_4438_2690)"/>
<path d="M50.5389 40.5438L33.81 43.9893L23.2546 17.3771L39.9744 13.9357L50.5389 40.5438Z" fill="url(#paint4_linear_4438_2690)"/>
<path d="M39.9745 13.935L23.2547 17.3764L46.2228 6.83726L62.9517 3.39178L39.9745 13.935Z" fill="url(#paint5_linear_4438_2690)"/>
</g>
</g>
<path d="M241.489 259L-525 199V319H916V139L241.489 259Z" fill="#015FF5"/>
<path d="M333.228 124L486.228 319H434.728H154.728L173.228 155.5L227.728 192L313.728 171.5L333.228 124Z" fill="#015FF5"/>
<circle cx="10" cy="10" r="10" transform="matrix(-1 0 0 1 348.228 204)" fill="white"/>
<circle cx="10" cy="10" r="10" transform="matrix(-1 0 0 1 233.228 233)" fill="white"/>
<path d="M267.389 233.162C268.311 237.5 275.38 240.456 282.228 239C289.076 237.544 292.762 230.592 292.188 227.891C291.614 225.19 285.597 224.18 278.749 225.636C271.901 227.091 266.815 230.461 267.389 233.162Z" fill="white"/>
<path d="M94.206 143.073L183.675 263.577L118.389 278.037L90.0697 185.471L68.0039 190.358L52.2925 175.157L61.5166 161.069L94.206 143.073Z" fill="#015FF5"/>
<defs>
<linearGradient id="paint0_linear_4438_2690" x1="88.4333" y1="113.805" x2="39.4717" y2="110.698" gradientUnits="userSpaceOnUse">
<stop stop-color="#B8FFFF"/>
<stop offset="1" stop-color="#5AFFFF"/>
</linearGradient>
<linearGradient id="paint1_linear_4438_2690" x1="36.9728" y1="65.7487" x2="24.6051" y2="126.918" gradientUnits="userSpaceOnUse">
<stop stop-color="#5AFFFF"/>
<stop offset="1" stop-color="#4380EB"/>
</linearGradient>
<linearGradient id="paint2_linear_4438_2690" x1="90.233" y1="85.4402" x2="20.0341" y2="80.9868" gradientUnits="userSpaceOnUse">
<stop stop-color="#4380EB"/>
<stop offset="1" stop-color="#1C53B3"/>
</linearGradient>
<linearGradient id="paint3_linear_4438_2690" x1="65.6707" y1="15.8833" x2="40.3605" y2="29.9984" gradientUnits="userSpaceOnUse">
<stop stop-color="#B8FFFF"/>
<stop offset="1" stop-color="#5AFFFF"/>
</linearGradient>
<linearGradient id="paint4_linear_4438_2690" x1="24.7459" y1="8.47006" x2="38.165" y2="42.8062" gradientUnits="userSpaceOnUse">
<stop stop-color="#4380EB"/>
<stop offset="1" stop-color="#1C53B3"/>
</linearGradient>
<linearGradient id="paint5_linear_4438_2690" x1="57.4926" y1="1.2174" x2="21.206" y2="21.4539" gradientUnits="userSpaceOnUse">
<stop stop-color="#4380EB"/>
<stop offset="1" stop-color="#1C53B3"/>
</linearGradient>
<clipPath id="clip0_4438_2690">
<rect width="78.81" height="64.13" fill="white" transform="translate(11 75)"/>
</clipPath>
<clipPath id="clip1_4438_2690">
<rect width="43.23" height="32.51" fill="white" transform="translate(22 17.7324) rotate(-24.2177)"/>
</clipPath>
</defs>
</svg>
