<svg width="390" height="195" viewBox="0 0 390 195" fill="none" xmlns="http://www.w3.org/2000/svg">
<g clip-path="url(#clip0_2675_18586)">
<path d="M146.214 102.031L194.9 130.767L243.875 102.031L195.041 111.32L146.214 102.031Z" fill="url(#paint0_linear_2675_18586)"/>
<path d="M146.214 102.031L194.9 123.818L243.875 102.031H146.214Z" fill="url(#paint1_linear_2675_18586)"/>
<path d="M194.923 84.2526V123.82L243.899 102.033V65.3926L194.923 84.2526Z" fill="url(#paint2_linear_2675_18586)"/>
<path d="M48.6777 102.031L97.3634 130.767L146.339 102.031L97.5045 111.32L48.6777 102.031Z" fill="url(#paint3_linear_2675_18586)"/>
<path d="M48.6777 102.031L97.3634 123.818L146.339 102.031H48.6777Z" fill="url(#paint4_linear_2675_18586)"/>
<path d="M97.3867 84.2526V123.82L146.362 102.033V65.3926L97.3867 84.2526Z" fill="url(#paint5_linear_2675_18586)"/>
<path d="M-48.8584 102.031L-0.172691 130.767L48.803 102.031L-0.0316124 111.32L-48.8584 102.031Z" fill="url(#paint6_linear_2675_18586)"/>
<path d="M-48.8584 102.031L-0.172691 123.818L48.803 102.031H-48.8584Z" fill="url(#paint7_linear_2675_18586)"/>
<path d="M-0.149414 84.2526V123.82L48.8263 102.033V65.3926L-0.149414 84.2526Z" fill="url(#paint8_linear_2675_18586)"/>
<path d="M194.947 36.6387L243.641 65.3748L292.616 36.6387L243.782 45.9278L194.947 36.6387Z" fill="url(#paint9_linear_2675_18586)"/>
<path d="M194.947 36.6387L243.641 58.4255L292.616 36.6387H194.947Z" fill="url(#paint10_linear_2675_18586)"/>
<path d="M243.664 18.86V58.427L292.632 36.6401V0L243.664 18.86Z" fill="url(#paint11_linear_2675_18586)"/>
<path d="M97.9346 36.6387L146.628 65.3748L195.604 36.6387L146.769 45.9278L97.9346 36.6387Z" fill="url(#paint12_linear_2675_18586)"/>
<path d="M97.9346 36.6387L146.628 58.4255L195.604 36.6387H97.9346Z" fill="url(#paint13_linear_2675_18586)"/>
<path d="M146.651 18.86V58.427L195.619 36.6401V0L146.651 18.86Z" fill="url(#paint14_linear_2675_18586)"/>
<path d="M0.922852 36.6387L49.6164 65.3748L98.5921 36.6387L49.7575 45.9278L0.922852 36.6387Z" fill="url(#paint15_linear_2675_18586)"/>
<path d="M0.922852 36.6387L49.6164 58.4255L98.5921 36.6387H0.922852Z" fill="url(#paint16_linear_2675_18586)"/>
<path d="M49.6396 18.86V58.427L98.6075 36.6401V0L49.6396 18.86Z" fill="url(#paint17_linear_2675_18586)"/>
<path d="M292.42 36.6387L341.113 65.3748L390.089 36.6387L341.255 45.9278L292.42 36.6387Z" fill="url(#paint18_linear_2675_18586)"/>
<path d="M292.42 36.6387L341.113 58.4255L390.089 36.6387H292.42Z" fill="url(#paint19_linear_2675_18586)"/>
<path d="M341.137 18.86V58.427L390.105 36.6401V0L341.137 18.86Z" fill="url(#paint20_linear_2675_18586)"/>
<path d="M0 166.258L48.6935 194.994L97.6692 166.258L48.8346 175.547L0 166.258Z" fill="url(#paint21_linear_2675_18586)"/>
<path d="M0 166.258L48.6935 188.045L97.6692 166.258H0Z" fill="url(#paint22_linear_2675_18586)"/>
<path d="M48.7168 148.477V188.044L97.6847 166.257V129.617L48.7168 148.477Z" fill="url(#paint23_linear_2675_18586)"/>
</g>
<defs>
<linearGradient id="paint0_linear_2675_18586" x1="195.041" y1="-0.000714077" x2="195.041" y2="-0.000714077" gradientUnits="userSpaceOnUse">
<stop stop-color="#F5F7F9"/>
<stop offset="0.15" stop-color="#EEF0F2"/>
<stop offset="0.63" stop-color="#DEE1E3"/>
<stop offset="1" stop-color="#D9DCDE"/>
</linearGradient>
<linearGradient id="paint1_linear_2675_18586" x1="195.041" y1="-0.000687217" x2="195.041" y2="-0.000687217" gradientUnits="userSpaceOnUse">
<stop stop-color="#F3F5F7"/>
<stop offset="0.31" stop-color="#FCFCFD"/>
<stop offset="0.73" stop-color="white"/>
</linearGradient>
<linearGradient id="paint2_linear_2675_18586" x1="194.923" y1="0.000715101" x2="243.899" y2="0.000715101" gradientUnits="userSpaceOnUse">
<stop stop-color="#F9F9F9"/>
<stop offset="1" stop-color="#F9F9F9"/>
</linearGradient>
<linearGradient id="paint3_linear_2675_18586" x1="97.5045" y1="-0.000714077" x2="97.5045" y2="-0.000714077" gradientUnits="userSpaceOnUse">
<stop stop-color="#F5F7F9"/>
<stop offset="0.15" stop-color="#EEF0F2"/>
<stop offset="0.63" stop-color="#DEE1E3"/>
<stop offset="1" stop-color="#D9DCDE"/>
</linearGradient>
<linearGradient id="paint4_linear_2675_18586" x1="97.5045" y1="-0.000687217" x2="97.5045" y2="-0.000687217" gradientUnits="userSpaceOnUse">
<stop stop-color="#F3F5F7"/>
<stop offset="0.31" stop-color="#FCFCFD"/>
<stop offset="0.73" stop-color="white"/>
</linearGradient>
<linearGradient id="paint5_linear_2675_18586" x1="97.3867" y1="0.000715101" x2="146.362" y2="0.000715101" gradientUnits="userSpaceOnUse">
<stop stop-color="#F9F9F9"/>
<stop offset="1" stop-color="#F9F9F9"/>
</linearGradient>
<linearGradient id="paint6_linear_2675_18586" x1="-0.0316085" y1="-0.000714077" x2="-0.0316085" y2="-0.000714077" gradientUnits="userSpaceOnUse">
<stop stop-color="#F5F7F9"/>
<stop offset="0.15" stop-color="#EEF0F2"/>
<stop offset="0.63" stop-color="#DEE1E3"/>
<stop offset="1" stop-color="#D9DCDE"/>
</linearGradient>
<linearGradient id="paint7_linear_2675_18586" x1="-0.0316085" y1="-0.000687217" x2="-0.0316085" y2="-0.000687217" gradientUnits="userSpaceOnUse">
<stop stop-color="#F3F5F7"/>
<stop offset="0.31" stop-color="#FCFCFD"/>
<stop offset="0.73" stop-color="white"/>
</linearGradient>
<linearGradient id="paint8_linear_2675_18586" x1="-0.149414" y1="0.000715101" x2="48.8263" y2="0.000715101" gradientUnits="userSpaceOnUse">
<stop stop-color="#F9F9F9"/>
<stop offset="1" stop-color="#F9F9F9"/>
</linearGradient>
<linearGradient id="paint9_linear_2675_18586" x1="243.782" y1="66.3295" x2="243.782" y2="36.6621" gradientUnits="userSpaceOnUse">
<stop stop-color="#F5F7F9"/>
<stop offset="0.15" stop-color="#EEF0F2"/>
<stop offset="0.63" stop-color="#DEE1E3"/>
<stop offset="1" stop-color="#D9DCDE"/>
</linearGradient>
<linearGradient id="paint10_linear_2675_18586" x1="243.782" y1="57.7916" x2="243.782" y2="37.116" gradientUnits="userSpaceOnUse">
<stop stop-color="#F3F5F7"/>
<stop offset="0.31" stop-color="#FCFCFD"/>
<stop offset="0.73" stop-color="white"/>
</linearGradient>
<linearGradient id="paint11_linear_2675_18586" x1="243.664" y1="29.2135" x2="292.632" y2="29.2135" gradientUnits="userSpaceOnUse">
<stop stop-color="#F9F9F9"/>
<stop offset="1" stop-color="#F9F9F9"/>
</linearGradient>
<linearGradient id="paint12_linear_2675_18586" x1="146.769" y1="66.3295" x2="146.769" y2="36.6621" gradientUnits="userSpaceOnUse">
<stop stop-color="#F5F7F9"/>
<stop offset="0.15" stop-color="#EEF0F2"/>
<stop offset="0.63" stop-color="#DEE1E3"/>
<stop offset="1" stop-color="#D9DCDE"/>
</linearGradient>
<linearGradient id="paint13_linear_2675_18586" x1="146.769" y1="57.7916" x2="146.769" y2="37.116" gradientUnits="userSpaceOnUse">
<stop stop-color="#F3F5F7"/>
<stop offset="0.31" stop-color="#FCFCFD"/>
<stop offset="0.73" stop-color="white"/>
</linearGradient>
<linearGradient id="paint14_linear_2675_18586" x1="146.651" y1="29.2135" x2="195.619" y2="29.2135" gradientUnits="userSpaceOnUse">
<stop stop-color="#F9F9F9"/>
<stop offset="1" stop-color="#F9F9F9"/>
</linearGradient>
<linearGradient id="paint15_linear_2675_18586" x1="49.7575" y1="66.3295" x2="49.7575" y2="36.6621" gradientUnits="userSpaceOnUse">
<stop stop-color="#F5F7F9"/>
<stop offset="0.15" stop-color="#EEF0F2"/>
<stop offset="0.63" stop-color="#DEE1E3"/>
<stop offset="1" stop-color="#D9DCDE"/>
</linearGradient>
<linearGradient id="paint16_linear_2675_18586" x1="49.7575" y1="57.7916" x2="49.7575" y2="37.116" gradientUnits="userSpaceOnUse">
<stop stop-color="#F3F5F7"/>
<stop offset="0.31" stop-color="#FCFCFD"/>
<stop offset="0.73" stop-color="white"/>
</linearGradient>
<linearGradient id="paint17_linear_2675_18586" x1="49.6396" y1="29.2135" x2="98.6075" y2="29.2135" gradientUnits="userSpaceOnUse">
<stop stop-color="#F9F9F9"/>
<stop offset="1" stop-color="#F9F9F9"/>
</linearGradient>
<linearGradient id="paint18_linear_2675_18586" x1="341.255" y1="66.3295" x2="341.255" y2="36.6621" gradientUnits="userSpaceOnUse">
<stop stop-color="#F5F7F9"/>
<stop offset="0.15" stop-color="#EEF0F2"/>
<stop offset="0.63" stop-color="#DEE1E3"/>
<stop offset="1" stop-color="#D9DCDE"/>
</linearGradient>
<linearGradient id="paint19_linear_2675_18586" x1="341.255" y1="57.7916" x2="341.255" y2="37.116" gradientUnits="userSpaceOnUse">
<stop stop-color="#F3F5F7"/>
<stop offset="0.31" stop-color="#FCFCFD"/>
<stop offset="0.73" stop-color="white"/>
</linearGradient>
<linearGradient id="paint20_linear_2675_18586" x1="341.137" y1="29.2135" x2="390.105" y2="29.2135" gradientUnits="userSpaceOnUse">
<stop stop-color="#F9F9F9"/>
<stop offset="1" stop-color="#F9F9F9"/>
</linearGradient>
<linearGradient id="paint21_linear_2675_18586" x1="48.8346" y1="195.949" x2="48.8346" y2="166.281" gradientUnits="userSpaceOnUse">
<stop stop-color="#F5F7F9"/>
<stop offset="0.15" stop-color="#EEF0F2"/>
<stop offset="0.63" stop-color="#DEE1E3"/>
<stop offset="1" stop-color="#D9DCDE"/>
</linearGradient>
<linearGradient id="paint22_linear_2675_18586" x1="48.8346" y1="187.411" x2="48.8346" y2="166.735" gradientUnits="userSpaceOnUse">
<stop stop-color="#F3F5F7"/>
<stop offset="0.31" stop-color="#FCFCFD"/>
<stop offset="0.73" stop-color="white"/>
</linearGradient>
<linearGradient id="paint23_linear_2675_18586" x1="48.7168" y1="158.831" x2="97.6847" y2="158.831" gradientUnits="userSpaceOnUse">
<stop stop-color="#F9F9F9"/>
<stop offset="1" stop-color="#F9F9F9"/>
</linearGradient>
<clipPath id="clip0_2675_18586">
<rect width="390" height="195" fill="white"/>
</clipPath>
</defs>
</svg>
