<svg width="181" height="181" viewBox="0 0 181 181" fill="none" xmlns="http://www.w3.org/2000/svg">
<g clip-path="url(#clip0_2539_2740)">
<path d="M90.3799 180.38C140.086 180.38 180.38 140.086 180.38 90.3799C180.38 40.6743 140.086 0.379883 90.3799 0.379883C40.6743 0.379883 0.379883 40.6743 0.379883 90.3799C0.379883 140.086 40.6743 180.38 90.3799 180.38Z" stroke="url(#paint0_linear_2539_2740)" stroke-width="0.75" stroke-miterlimit="10"/>
<path d="M88.6699 174.73C136.199 174.73 174.73 136.2 174.73 88.6703C174.73 41.1407 136.199 2.61035 88.6699 2.61035C41.1402 2.61035 2.60986 41.1407 2.60986 88.6703C2.60986 136.2 41.1402 174.73 88.6699 174.73Z" stroke="url(#paint1_linear_2539_2740)" stroke-width="0.72" stroke-miterlimit="10"/>
<path d="M86.9601 169.09C132.319 169.09 169.09 132.319 169.09 86.9601C169.09 41.6009 132.319 4.83008 86.9601 4.83008C41.6009 4.83008 4.83008 41.6009 4.83008 86.9601C4.83008 132.319 41.6009 169.09 86.9601 169.09Z" stroke="url(#paint2_linear_2539_2740)" stroke-width="0.69" stroke-miterlimit="10"/>
<path d="M85.2598 163.45C128.443 163.45 163.45 128.443 163.45 85.2603C163.45 42.0772 128.443 7.07031 85.2598 7.07031C42.0767 7.07031 7.06982 42.0772 7.06982 85.2603C7.06982 128.443 42.0767 163.45 85.2598 163.45Z" stroke="url(#paint3_linear_2539_2740)" stroke-width="0.66" stroke-miterlimit="10"/>
<path d="M83.5498 157.8C124.557 157.8 157.8 124.557 157.8 83.5498C157.8 42.5427 124.557 9.2998 83.5498 9.2998C42.5427 9.2998 9.2998 42.5427 9.2998 83.5498C9.2998 124.557 42.5427 157.8 83.5498 157.8Z" stroke="url(#paint4_linear_2539_2740)" stroke-width="0.62" stroke-miterlimit="10"/>
<path d="M81.8398 152.15C120.671 152.15 152.15 120.671 152.15 81.8403C152.15 43.0091 120.671 11.5303 81.8398 11.5303C43.0086 11.5303 11.5298 43.0091 11.5298 81.8403C11.5298 120.671 43.0086 152.15 81.8398 152.15Z" stroke="url(#paint5_linear_2539_2740)" stroke-width="0.59" stroke-miterlimit="10"/>
<path d="M80.1398 146.52C116.8 146.52 146.52 116.8 146.52 80.1398C146.52 43.4791 116.8 13.7598 80.1398 13.7598C43.4791 13.7598 13.7598 43.4791 13.7598 80.1398C13.7598 116.8 43.4791 146.52 80.1398 146.52Z" stroke="url(#paint6_linear_2539_2740)" stroke-width="0.56" stroke-miterlimit="10"/>
<path d="M78.4302 140.87C112.915 140.87 140.87 112.915 140.87 78.4302C140.87 43.9456 112.915 15.9902 78.4302 15.9902C43.9456 15.9902 15.9902 43.9456 15.9902 78.4302C15.9902 112.915 43.9456 140.87 78.4302 140.87Z" stroke="url(#paint7_linear_2539_2740)" stroke-width="0.53" stroke-miterlimit="10"/>
<path d="M76.73 135.23C109.039 135.23 135.23 109.039 135.23 76.7305C135.23 44.4218 109.039 18.2305 76.73 18.2305C44.4213 18.2305 18.23 44.4218 18.23 76.7305C18.23 109.039 44.4213 135.23 76.73 135.23Z" stroke="url(#paint8_linear_2539_2740)" stroke-width="0.5" stroke-miterlimit="10"/>
<path d="M75.02 129.58C105.153 129.58 129.58 105.153 129.58 75.02C129.58 44.8873 105.153 20.46 75.02 20.46C44.8873 20.46 20.46 44.8873 20.46 75.02C20.46 105.153 44.8873 129.58 75.02 129.58Z" stroke="url(#paint9_linear_2539_2740)" stroke-width="0.47" stroke-miterlimit="10"/>
<path d="M73.3099 123.93C101.267 123.93 123.93 101.267 123.93 73.3104C123.93 45.3538 101.267 22.6904 73.3099 22.6904C45.3533 22.6904 22.6899 45.3538 22.6899 73.3104C22.6899 101.267 45.3533 123.93 73.3099 123.93Z" stroke="url(#paint10_linear_2539_2740)" stroke-width="0.44" stroke-miterlimit="10"/>
<path d="M71.6099 118.3C97.3961 118.3 118.3 97.3961 118.3 71.6099C118.3 45.8237 97.3961 24.9199 71.6099 24.9199C45.8237 24.9199 24.9199 45.8237 24.9199 71.6099C24.9199 97.3961 45.8237 118.3 71.6099 118.3Z" stroke="url(#paint11_linear_2539_2740)" stroke-width="0.41" stroke-miterlimit="10"/>
<path d="M69.8999 112.65C93.5101 112.65 112.65 93.5106 112.65 69.9004C112.65 46.2902 93.5101 27.1504 69.8999 27.1504C46.2897 27.1504 27.1499 46.2902 27.1499 69.9004C27.1499 93.5106 46.2897 112.65 69.8999 112.65Z" stroke="url(#paint12_linear_2539_2740)" stroke-width="0.38" stroke-miterlimit="10"/>
<path d="M68.1899 107C89.6241 107 107 89.6241 107 68.1899C107 46.7557 89.6241 29.3799 68.1899 29.3799C46.7557 29.3799 29.3799 46.7557 29.3799 68.1899C29.3799 89.6241 46.7557 107 68.1899 107Z" stroke="url(#paint13_linear_2539_2740)" stroke-width="0.34" stroke-miterlimit="10"/>
<path d="M81.0784 98.1659C98.5768 90.1101 106.232 69.3943 98.1758 51.8959C90.12 34.3975 69.4043 26.7427 51.9058 34.7985C34.4074 42.8543 26.7527 63.57 34.8084 81.0684C42.8642 98.5669 63.58 106.222 81.0784 98.1659Z" stroke="url(#paint14_linear_2539_2740)" stroke-width="0.31" stroke-miterlimit="10"/>
<path d="M64.7798 95.7198C81.8675 95.7198 95.7198 81.8675 95.7198 64.7798C95.7198 47.6922 81.8675 33.8398 64.7798 33.8398C47.6922 33.8398 33.8398 47.6922 33.8398 64.7798C33.8398 81.8675 47.6922 95.7198 64.7798 95.7198Z" stroke="url(#paint15_linear_2539_2740)" stroke-width="0.28" stroke-miterlimit="10"/>
<path d="M63.0698 90.0801C77.9815 90.0801 90.0698 77.9918 90.0698 63.0801C90.0698 48.1684 77.9815 36.0801 63.0698 36.0801C48.1581 36.0801 36.0698 48.1684 36.0698 63.0801C36.0698 77.9918 48.1581 90.0801 63.0698 90.0801Z" stroke="url(#paint16_linear_2539_2740)" stroke-width="0.25" stroke-miterlimit="10"/>
</g>
<defs>
<linearGradient id="paint0_linear_2539_2740" x1="90.3799" y1="-0.000117182" x2="90.3799" y2="180.75" gradientUnits="userSpaceOnUse">
<stop stop-color="#00CDFF"/>
<stop offset="1" stop-color="#005FF5"/>
</linearGradient>
<linearGradient id="paint1_linear_2539_2740" x1="80.1999" y1="2.66035" x2="97.1399" y2="174.68" gradientUnits="userSpaceOnUse">
<stop stop-color="#00CDFF"/>
<stop offset="1" stop-color="#005FF5"/>
</linearGradient>
<linearGradient id="paint2_linear_2539_2740" x1="70.8701" y1="6.06008" x2="103.05" y2="167.86" gradientUnits="userSpaceOnUse">
<stop stop-color="#00CDFF"/>
<stop offset="1" stop-color="#005FF5"/>
</linearGradient>
<linearGradient id="paint3_linear_2539_2740" x1="62.4598" y1="10.1003" x2="108.05" y2="160.41" gradientUnits="userSpaceOnUse">
<stop stop-color="#00CDFF"/>
<stop offset="1" stop-color="#005FF5"/>
</linearGradient>
<linearGradient id="paint4_linear_2539_2740" x1="55.0098" y1="14.6498" x2="112.09" y2="152.45" gradientUnits="userSpaceOnUse">
<stop stop-color="#00CDFF"/>
<stop offset="1" stop-color="#005FF5"/>
</linearGradient>
<linearGradient id="paint5_linear_2539_2740" x1="48.5498" y1="19.5603" x2="115.14" y2="144.13" gradientUnits="userSpaceOnUse">
<stop stop-color="#00CDFF"/>
<stop offset="1" stop-color="#005FF5"/>
</linearGradient>
<linearGradient id="paint6_linear_2539_2740" x1="43.0998" y1="24.7098" x2="117.17" y2="135.57" gradientUnits="userSpaceOnUse">
<stop stop-color="#00CDFF"/>
<stop offset="1" stop-color="#005FF5"/>
</linearGradient>
<linearGradient id="paint7_linear_2539_2740" x1="38.6502" y1="29.9602" x2="118.21" y2="126.9" gradientUnits="userSpaceOnUse">
<stop stop-color="#00CDFF"/>
<stop offset="1" stop-color="#005FF5"/>
</linearGradient>
<linearGradient id="paint8_linear_2539_2740" x1="35.18" y1="35.1805" x2="118.27" y2="118.27" gradientUnits="userSpaceOnUse">
<stop stop-color="#00CDFF"/>
<stop offset="1" stop-color="#005FF5"/>
</linearGradient>
<linearGradient id="paint9_linear_2539_2740" x1="32.66" y1="40.25" x2="117.38" y2="109.78" gradientUnits="userSpaceOnUse">
<stop stop-color="#00CDFF"/>
<stop offset="1" stop-color="#005FF5"/>
</linearGradient>
<linearGradient id="paint10_linear_2539_2740" x1="31.0299" y1="45.0604" x2="115.59" y2="101.56" gradientUnits="userSpaceOnUse">
<stop stop-color="#00CDFF"/>
<stop offset="1" stop-color="#005FF5"/>
</linearGradient>
<linearGradient id="paint11_linear_2539_2740" x1="30.2399" y1="49.4999" x2="112.97" y2="93.7099" gradientUnits="userSpaceOnUse">
<stop stop-color="#00CDFF"/>
<stop offset="1" stop-color="#005FF5"/>
</linearGradient>
<linearGradient id="paint12_linear_2539_2740" x1="30.2199" y1="53.4604" x2="109.58" y2="86.3404" gradientUnits="userSpaceOnUse">
<stop stop-color="#00CDFF"/>
<stop offset="1" stop-color="#005FF5"/>
</linearGradient>
<linearGradient id="paint13_linear_2539_2740" x1="30.8799" y1="56.8699" x2="105.51" y2="79.5099" gradientUnits="userSpaceOnUse">
<stop stop-color="#00CDFF"/>
<stop offset="1" stop-color="#005FF5"/>
</linearGradient>
<linearGradient id="paint14_linear_2539_2740" x1="32.1157" y1="59.6474" x2="100.846" y2="73.3174" gradientUnits="userSpaceOnUse">
<stop stop-color="#00CDFF"/>
<stop offset="1" stop-color="#005FF5"/>
</linearGradient>
<linearGradient id="paint15_linear_2539_2740" x1="33.8498" y1="61.7298" x2="95.7098" y2="67.8298" gradientUnits="userSpaceOnUse">
<stop stop-color="#00CDFF"/>
<stop offset="1" stop-color="#005FF5"/>
</linearGradient>
<linearGradient id="paint16_linear_2539_2740" x1="35.9498" y1="63.0801" x2="90.1998" y2="63.0801" gradientUnits="userSpaceOnUse">
<stop stop-color="#00CDFF"/>
<stop offset="1" stop-color="#005FF5"/>
</linearGradient>
<clipPath id="clip0_2539_2740">
<rect width="180.75" height="180.75" fill="white"/>
</clipPath>
</defs>
</svg>
