<svg width="202" height="222" viewBox="0 0 202 222" fill="none" xmlns="http://www.w3.org/2000/svg">
<g filter="url(#filter0_d_2552_2730)">
<path opacity="0.5" d="M101 181C150.706 181 191 140.706 191 91C191 41.2944 150.706 1 101 1C51.2944 1 11 41.2944 11 91C11 140.706 51.2944 181 101 181Z" fill="url(#paint0_linear_2552_2730)"/>
<path d="M101 181C150.706 181 191 140.706 191 91C191 41.2944 150.706 1 101 1C51.2944 1 11 41.2944 11 91C11 140.706 51.2944 181 101 181Z" stroke="white" stroke-width="0.75" stroke-miterlimit="10"/>
<path d="M99.29 175.35C146.82 175.35 185.35 136.82 185.35 89.2905C185.35 41.7608 146.82 3.23047 99.29 3.23047C51.7604 3.23047 13.23 41.7608 13.23 89.2905C13.23 136.82 51.7604 175.35 99.29 175.35Z" stroke="white" stroke-width="0.72" stroke-miterlimit="10"/>
<path d="M97.58 169.7C142.934 169.7 179.7 132.934 179.7 87.58C179.7 42.2263 142.934 5.45996 97.58 5.45996C52.2263 5.45996 15.46 42.2263 15.46 87.58C15.46 132.934 52.2263 169.7 97.58 169.7Z" stroke="white" stroke-width="0.69" stroke-miterlimit="10"/>
<path d="M95.8799 164.07C139.063 164.07 174.07 129.064 174.07 85.8804C174.07 42.6973 139.063 7.69043 95.8799 7.69043C52.6968 7.69043 17.6899 42.6973 17.6899 85.8804C17.6899 129.064 52.6968 164.07 95.8799 164.07Z" stroke="white" stroke-width="0.66" stroke-miterlimit="10"/>
<path d="M94.1699 158.42C135.177 158.42 168.42 125.177 168.42 84.1699C168.42 43.1628 135.177 9.91992 94.1699 9.91992C53.1628 9.91992 19.9199 43.1628 19.9199 84.1699C19.9199 125.177 53.1628 158.42 94.1699 158.42Z" stroke="white" stroke-width="0.62" stroke-miterlimit="10"/>
<path d="M92.4599 152.77C131.291 152.77 162.77 121.292 162.77 82.4604C162.77 43.6292 131.291 12.1504 92.4599 12.1504C53.6288 12.1504 22.1499 43.6292 22.1499 82.4604C22.1499 121.292 53.6288 152.77 92.4599 152.77Z" stroke="white" stroke-width="0.59" stroke-miterlimit="10"/>
<path d="M90.7599 147.14C127.421 147.14 157.14 117.421 157.14 80.7599C157.14 44.0992 127.421 14.3799 90.7599 14.3799C54.0992 14.3799 24.3799 44.0992 24.3799 80.7599C24.3799 117.421 54.0992 147.14 90.7599 147.14Z" stroke="white" stroke-width="0.56" stroke-miterlimit="10"/>
<path d="M89.0499 141.49C123.535 141.49 151.49 113.535 151.49 79.0504C151.49 44.5657 123.535 16.6104 89.0499 16.6104C54.5652 16.6104 26.6099 44.5657 26.6099 79.0504C26.6099 113.535 54.5652 141.49 89.0499 141.49Z" stroke="white" stroke-width="0.53" stroke-miterlimit="10"/>
<path d="M87.3501 135.85C119.659 135.85 145.85 109.658 145.85 77.3496C145.85 45.041 119.659 18.8496 87.3501 18.8496C55.0414 18.8496 28.8501 45.041 28.8501 77.3496C28.8501 109.658 55.0414 135.85 87.3501 135.85Z" stroke="white" stroke-width="0.5" stroke-miterlimit="10"/>
<path d="M85.6401 130.2C115.773 130.2 140.2 105.773 140.2 75.6401C140.2 45.5074 115.773 21.0801 85.6401 21.0801C55.5074 21.0801 31.0801 45.5074 31.0801 75.6401C31.0801 105.773 55.5074 130.2 85.6401 130.2Z" stroke="white" stroke-width="0.47" stroke-miterlimit="10"/>
<path d="M83.9298 124.56C111.892 124.56 134.56 101.892 134.56 73.9298C134.56 45.9676 111.892 23.2998 83.9298 23.2998C55.9676 23.2998 33.2998 45.9676 33.2998 73.9298C33.2998 101.892 55.9676 124.56 83.9298 124.56Z" stroke="white" stroke-width="0.44" stroke-miterlimit="10"/>
<path d="M82.23 118.92C108.016 118.92 128.92 98.0162 128.92 72.23C128.92 46.4439 108.016 25.54 82.23 25.54C56.4439 25.54 35.54 46.4439 35.54 72.23C35.54 98.0162 56.4439 118.92 82.23 118.92Z" stroke="white" stroke-width="0.41" stroke-miterlimit="10"/>
<path d="M80.52 113.27C104.13 113.27 123.27 94.1297 123.27 70.5195C123.27 46.9094 104.13 27.7695 80.52 27.7695C56.9098 27.7695 37.77 46.9094 37.77 70.5195C37.77 94.1297 56.9098 113.27 80.52 113.27Z" stroke="white" stroke-width="0.38" stroke-miterlimit="10"/>
<path d="M78.81 107.62C100.244 107.62 117.62 90.2442 117.62 68.81C117.62 47.3758 100.244 30 78.81 30C57.3758 30 40 47.3758 40 68.81C40 90.2442 57.3758 107.62 78.81 107.62Z" stroke="white" stroke-width="0.34" stroke-miterlimit="10"/>
<path d="M77.11 101.99C96.3737 101.99 111.99 86.3742 111.99 67.1105C111.99 47.8468 96.3737 32.2305 77.11 32.2305C57.8463 32.2305 42.23 47.8468 42.23 67.1105C42.23 86.3742 57.8463 101.99 77.11 101.99Z" stroke="white" stroke-width="0.31" stroke-miterlimit="10"/>
<path d="M75.4 96.34C92.4876 96.34 106.34 82.4876 106.34 65.4C106.34 48.3123 92.4876 34.46 75.4 34.46C58.3123 34.46 44.46 48.3123 44.46 65.4C44.46 82.4876 58.3123 96.34 75.4 96.34Z" stroke="white" stroke-width="0.28" stroke-miterlimit="10"/>
<path d="M73.7002 90.7002C88.6119 90.7002 100.7 78.6119 100.7 63.7002C100.7 48.7885 88.6119 36.7002 73.7002 36.7002C58.7885 36.7002 46.7002 48.7885 46.7002 63.7002C46.7002 78.6119 58.7885 90.7002 73.7002 90.7002Z" stroke="white" stroke-width="0.25" stroke-miterlimit="10"/>
</g>
<defs>
<filter id="filter0_d_2552_2730" x="0.625" y="0.625" width="200.75" height="220.75" filterUnits="userSpaceOnUse" color-interpolation-filters="sRGB">
<feFlood flood-opacity="0" result="BackgroundImageFix"/>
<feColorMatrix in="SourceAlpha" type="matrix" values="0 0 0 0 0 0 0 0 0 0 0 0 0 0 0 0 0 0 127 0" result="hardAlpha"/>
<feOffset dy="30"/>
<feGaussianBlur stdDeviation="5"/>
<feComposite in2="hardAlpha" operator="out"/>
<feColorMatrix type="matrix" values="0 0 0 0 0 0 0 0 0 0 0 0 0 0 0 0 0 0 0.1 0"/>
<feBlend mode="normal" in2="BackgroundImageFix" result="effect1_dropShadow_2552_2730"/>
<feBlend mode="normal" in="SourceGraphic" in2="effect1_dropShadow_2552_2730" result="shape"/>
</filter>
<linearGradient id="paint0_linear_2552_2730" x1="101" y1="1" x2="101" y2="181" gradientUnits="userSpaceOnUse">
<stop stop-color="#00CDFF"/>
<stop offset="1" stop-color="#005FF5"/>
</linearGradient>
</defs>
</svg>
