<svg width="409" height="195" viewBox="0 0 409 195" fill="none" xmlns="http://www.w3.org/2000/svg">
<path d="M153 0L0 195H51.5H331.5L313 31.5L258.5 68L172.5 47.5L153 0Z" fill="#01CBFF"/>
<circle cx="148" cy="90" r="10" fill="white"/>
<circle cx="263" cy="119" r="10" fill="white"/>
<path d="M218.838 109.162C217.916 113.5 210.848 116.456 204 115C197.152 113.544 193.465 106.592 194.04 103.891C194.614 101.19 200.631 100.18 207.479 101.636C214.327 103.091 219.413 106.461 218.838 109.162Z" fill="white"/>
<path d="M368.909 90L306.5 197.5L361 206L383 116L396.141 118.512L408.227 108.285L404.818 95.8884L368.909 90Z" fill="#01CBFF"/>
</svg>
